SeanSans-CondensedLight.ufo
<glyph name="exclam" format="1">
  <advance width="243"/>
  <unicode hex="0021"/>
  <outline>
    <contour>
      <point x="150" y="229" type="line"/>
      <point x="155" y="722" type="line"/>
      <point x="87" y="722" type="line"/>
      <point x="92" y="229" type="line"/>
    </contour>
    <contour>
      <point x="155" y="26" type="curve"/>
      <point x="155" y="48"/>
      <point x="141" y="59"/>
      <point x="121" y="59" type="curve"/>
      <point x="101" y="59"/>
      <point x="88" y="46"/>
      <point x="88" y="26" type="curve"/>
      <point x="155" y="26"/>
      <point x="88" y="26"/>
      <point x="155" y="26" type="curve"/>
      <point x="155" y="4"/>
      <point x="141" y="-6"/>
      <point x="121" y="-6" type="curve"/>
      <point x="100" y="-6"/>
      <point x="88" y="5"/>
      <point x="88" y="26" type="curve"/>
      <point x="155" y="26"/>
      <point x="88" y="26"/>
    </contour>
  </outline>
</glyph>
<glyph name="numbersign" format="1">
  <advance width="520"/>
  <unicode hex="0023"/>
  <outline>
    <contour>
      <point x="43" y="239" type="curve"/>
      <point x="415" y="239" type="curve"/>
      <point x="426" y="286" type="curve"/>
      <point x="54" y="286" type="curve"/>
    </contour>
    <contour>
      <point x="93" y="474" type="curve"/>
      <point x="465" y="474" type="curve"/>
      <point x="477" y="521" type="curve"/>
      <point x="104" y="521" type="curve"/>
    </contour>
    <contour>
      <point x="307" y="39" type="curve"/>
      <point x="462" y="722" type="curve"/>
      <point x="404" y="722" type="curve"/>
      <point x="249" y="39" type="curve"/>
    </contour>
    <contour>
      <point x="120" y="46" type="curve"/>
      <point x="273" y="722" type="curve"/>
      <point x="215" y="722" type="curve"/>
      <point x="65" y="46" type="curve"/>
    </contour>
  </outline>
</glyph>
<glyph name="dollar" format="1">
  <advance width="434"/>
  <unicode hex="0024"/>
  <outline>
    <contour>
      <point x="231" y="-43" type="curve"/>
      <point x="231" y="-10"/>
      <point x="231" y="37"/>
      <point x="231" y="70" type="curve"/>
      <point x="173" y="70"/>
      <point x="231" y="70"/>
      <point x="173" y="70" type="curve"/>
      <point x="173" y="37"/>
      <point x="173" y="-10"/>
      <point x="173" y="-43" type="curve"/>
      <point x="231" y="-43"/>
      <point x="173" y="-43"/>
    </contour>
    <contour>
      <point x="239" y="660" type="curve"/>
      <point x="239" y="693"/>
      <point x="239" y="740"/>
      <point x="239" y="773" type="curve"/>
      <point x="182" y="773"/>
      <point x="239" y="773"/>
      <point x="182" y="773" type="curve"/>
      <point x="182" y="740"/>
      <point x="182" y="693"/>
      <point x="182" y="660" type="curve"/>
      <point x="239" y="660"/>
      <point x="182" y="660"/>
    </contour>
    <contour>
      <point x="51" y="97" type="curve"/>
      <point x="90" y="70"/>
      <point x="140" y="46"/>
      <point x="200" y="46" type="curve"/>
      <point x="308" y="46"/>
      <point x="384" y="111"/>
      <point x="384" y="205" type="curve"/>
      <point x="384" y="291"/>
      <point x="314" y="347"/>
      <point x="229" y="396" type="curve"/>
      <point x="164" y="434"/>
      <point x="117" y="470"/>
      <point x="117" y="536" type="curve"/>
      <point x="117" y="593"/>
      <point x="152" y="638"/>
      <point x="213" y="638" type="curve"/>
      <point x="262" y="638"/>
      <point x="295" y="621"/>
      <point x="334" y="593" type="curve"/>
      <point x="362" y="632"/>
      <point x="334" y="593"/>
      <point x="362" y="632" type="curve"/>
      <point x="316" y="666"/>
      <point x="275" y="684"/>
      <point x="216" y="684" type="curve"/>
      <point x="120" y="684"/>
      <point x="59" y="622"/>
      <point x="59" y="536" type="curve"/>
      <point x="59" y="452"/>
      <point x="113" y="400"/>
      <point x="195" y="353" type="curve"/>
      <point x="265" y="314"/>
      <point x="326" y="273"/>
      <point x="326" y="202" type="curve"/>
      <point x="326" y="138"/>
      <point x="277" y="92"/>
      <point x="205" y="92" type="curve"/>
      <point x="156" y="92"/>
      <point x="115" y="117"/>
      <point x="82" y="138" type="curve"/>
      <point x="51" y="97"/>
      <point x="82" y="138"/>
    </contour>
  </outline>
</glyph>
<glyph name="percent" format="1">
  <advance width="780"/>
  <unicode hex="0025"/>
  <outline>
    <contour>
      <point x="270" y="-77" type="line"/>
      <point x="575" y="743" type="line"/>
      <point x="518" y="743" type="line"/>
      <point x="213" y="-77" type="line"/>
    </contour>
    <contour>
      <point x="88" y="539" type="curve"/>
      <point x="88" y="629"/>
      <point x="102" y="705"/>
      <point x="180" y="705" type="curve"/>
      <point x="259" y="706"/>
      <point x="273" y="630"/>
      <point x="273" y="539" type="curve"/>
      <point x="273" y="448"/>
      <point x="262" y="370"/>
      <point x="184" y="370" type="curve"/>
      <point x="104" y="370"/>
      <point x="88" y="447"/>
      <point x="88" y="539" type="curve"/>
      <point x="69" y="539"/>
      <point x="57" y="539"/>
      <point x="38" y="539" type="curve"/>
      <point x="38" y="420"/>
      <point x="75" y="327"/>
      <point x="181" y="327" type="curve"/>
      <point x="289" y="327"/>
      <point x="326" y="421"/>
      <point x="326" y="541" type="curve"/>
      <point x="326" y="658"/>
      <point x="289" y="749"/>
      <point x="183" y="749" type="curve"/>
      <point x="76" y="749"/>
      <point x="38" y="657"/>
      <point x="38" y="539" type="curve"/>
      <point x="57" y="539"/>
      <point x="69" y="539"/>
    </contour>
    <contour>
      <point x="505" y="131" type="curve"/>
      <point x="505" y="222"/>
      <point x="519" y="298"/>
      <point x="597" y="298" type="curve"/>
      <point x="676" y="299"/>
      <point x="690" y="222"/>
      <point x="690" y="131" type="curve"/>
      <point x="690" y="40"/>
      <point x="679" y="-38"/>
      <point x="601" y="-38" type="curve"/>
      <point x="521" y="-38"/>
      <point x="505" y="39"/>
      <point x="505" y="131" type="curve"/>
      <point x="486" y="131"/>
      <point x="474" y="131"/>
      <point x="455" y="131" type="curve"/>
      <point x="455" y="12"/>
      <point x="492" y="-81"/>
      <point x="598" y="-81" type="curve"/>
      <point x="706" y="-81"/>
      <point x="743" y="13"/>
      <point x="743" y="133" type="curve"/>
      <point x="743" y="251"/>
      <point x="706" y="342"/>
      <point x="600" y="341" type="curve"/>
      <point x="493" y="341"/>
      <point x="455" y="249"/>
      <point x="455" y="131" type="curve"/>
      <point x="474" y="131"/>
      <point x="486" y="131"/>
    </contour>
  </outline>
</glyph>
<glyph name="ampersand" format="1">
  <advance width="525"/>
  <unicode hex="0026"/>
  <outline>
    <contour>
      <point x="507" y="16" type="line"/>
      <point x="429" y="126"/>
      <point x="349" y="246"/>
      <point x="268" y="357" type="curve"/>
      <point x="223" y="426"/>
      <point x="167" y="485"/>
      <point x="167" y="569" type="curve"/>
      <point x="167" y="627"/>
      <point x="186" y="679"/>
      <point x="234" y="679" type="curve"/>
      <point x="285" y="679"/>
      <point x="305" y="630"/>
      <point x="305" y="571" type="curve"/>
      <point x="305" y="494"/>
      <point x="262" y="445"/>
      <point x="200" y="398" type="curve"/>
      <point x="123" y="337"/>
      <point x="64" y="280"/>
      <point x="64" y="184" type="curve"/>
      <point x="64" y="76"/>
      <point x="125" y="-5"/>
      <point x="228" y="-5" type="curve"/>
      <point x="391" y="-5"/>
      <point x="444" y="146"/>
      <point x="483" y="316" type="curve"/>
      <point x="433" y="328"/>
      <point x="483" y="316"/>
      <point x="433" y="328" type="curve"/>
      <point x="400" y="181"/>
      <point x="362" y="43"/>
      <point x="231" y="43" type="curve"/>
      <point x="159" y="43"/>
      <point x="122" y="105"/>
      <point x="122" y="184" type="curve"/>
      <point x="122" y="262"/>
      <point x="167" y="310"/>
      <point x="228" y="359" type="curve"/>
      <point x="304" y="419"/>
      <point x="363" y="476"/>
      <point x="364" y="572" type="curve"/>
      <point x="364" y="661"/>
      <point x="319" y="727"/>
      <point x="236" y="727" type="curve"/>
      <point x="154" y="727"/>
      <point x="112" y="658"/>
      <point x="112" y="569" type="curve"/>
      <point x="112" y="473"/>
      <point x="171" y="406"/>
      <point x="227" y="329" type="curve"/>
      <point x="304" y="219"/>
      <point x="387" y="96"/>
      <point x="464" y="-12" type="curve"/>
    </contour>
  </outline>
</glyph>
<glyph name="parenleft" format="1">
  <advance width="277"/>
  <unicode hex="0028"/>
  <outline>
    <contour>
      <point x="274" y="-228" type="curve"/>
      <point x="144" y="-49"/>
      <point x="111" y="107"/>
      <point x="111" y="326" type="curve"/>
      <point x="111" y="545"/>
      <point x="146" y="701"/>
      <point x="273" y="882" type="curve"/>
      <point x="238" y="911"/>
      <point x="273" y="882"/>
      <point x="238" y="911" type="curve"/>
      <point x="100" y="723"/>
      <point x="54" y="560"/>
      <point x="54" y="326" type="curve"/>
      <point x="54" y="92"/>
      <point x="101" y="-70"/>
      <point x="238" y="-260" type="curve"/>
      <point x="274" y="-228"/>
      <point x="238" y="-260"/>
    </contour>
  </outline>
</glyph>
<glyph name="parenright" format="1">
  <advance width="285"/>
  <unicode hex="0029"/>
  <outline>
    <contour>
      <point x="37" y="-275" type="curve"/>
      <point x="176" y="-78"/>
      <point x="232" y="86"/>
      <point x="232" y="328" type="curve"/>
      <point x="232" y="562"/>
      <point x="183" y="725"/>
      <point x="40" y="912" type="curve"/>
      <point x="4" y="880"/>
      <point x="40" y="912"/>
      <point x="4" y="880" type="curve"/>
      <point x="136" y="701"/>
      <point x="174" y="545"/>
      <point x="174" y="325" type="curve"/>
      <point x="174" y="100"/>
      <point x="127" y="-57"/>
      <point x="0" y="-244" type="curve"/>
      <point x="37" y="-275"/>
      <point x="0" y="-244"/>
    </contour>
  </outline>
</glyph>
<glyph name="asterisk" format="1">
  <advance width="630"/>
  <unicode hex="002A"/>
  <outline>
    <contour>
      <point x="336" y="587" type="line"/>
      <point x="340" y="783" type="line"/>
      <point x="290" y="783" type="line"/>
      <point x="294" y="587" type="line"/>
    </contour>
    <contour>
      <point x="374" y="529" type="line"/>
      <point x="562" y="588" type="line"/>
      <point x="546" y="635" type="line"/>
      <point x="361" y="568" type="line"/>
    </contour>
    <contour>
      <point x="331" y="474" type="line"/>
      <point x="447" y="315" type="line"/>
      <point x="486" y="346" type="line"/>
      <point x="364" y="500" type="line"/>
    </contour>
    <contour>
      <point x="266" y="500" type="line"/>
      <point x="144" y="346" type="line"/>
      <point x="183" y="315" type="line"/>
      <point x="298" y="475" type="line"/>
    </contour>
    <contour>
      <point x="269" y="568" type="line"/>
      <point x="84" y="635" type="line"/>
      <point x="68" y="588" type="line"/>
      <point x="255" y="529" type="line"/>
    </contour>
  </outline>
</glyph>
<glyph name="plus" format="1">
  <advance width="580"/>
  <unicode hex="002B"/>
  <outline>
    <contour>
      <point x="43" y="285" type="curve"/>
      <point x="537" y="285" type="line"/>
      <point x="537" y="337"/>
      <point x="537" y="285"/>
      <point x="537" y="337" type="curve"/>
      <point x="43" y="337" type="line"/>
      <point x="43" y="285"/>
      <point x="43" y="337"/>
    </contour>
    <contour>
      <point x="317" y="29" type="curve"/>
      <point x="317" y="585" type="line"/>
      <point x="260" y="585"/>
      <point x="320" y="585"/>
      <point x="263" y="585" type="curve"/>
      <point x="263" y="29" type="line"/>
      <point x="320" y="29"/>
      <point x="260" y="29"/>
    </contour>
  </outline>
</glyph>
<glyph name="comma" format="1">
  <advance width="148"/>
  <unicode hex="002C"/>
  <outline>
    <contour>
      <point x="27" y="-107" type="line"/>
      <point x="71" y="-90"/>
      <point x="103" y="-50"/>
      <point x="103" y="14" type="curve"/>
      <point x="103" y="53"/>
      <point x="91" y="78"/>
      <point x="65" y="78" type="curve"/>
      <point x="43" y="78"/>
      <point x="30" y="67"/>
      <point x="30" y="45" type="curve"/>
      <point x="30" y="27"/>
      <point x="39" y="14"/>
      <point x="58" y="11" type="curve"/>
      <point x="58" y="-12"/>
      <point x="50" y="-53"/>
      <point x="15" y="-73" type="curve"/>
    </contour>
  </outline>
</glyph>
<glyph name="hyphen" format="1">
  <advance width="365"/>
  <unicode hex="002D"/>
  <outline>
    <contour>
      <point x="79" y="250" type="curve"/>
      <point x="148" y="250"/>
      <point x="217" y="250"/>
      <point x="286" y="250" type="curve"/>
      <point x="286" y="301"/>
      <point x="286" y="250"/>
      <point x="286" y="301" type="curve"/>
      <point x="217" y="301"/>
      <point x="148" y="301"/>
      <point x="79" y="301" type="curve"/>
      <point x="79" y="250"/>
      <point x="79" y="301"/>
    </contour>
  </outline>
</glyph>
<glyph name="period" format="1">
  <advance width="199"/>
  <unicode hex="002E"/>
  <outline>
    <contour>
      <point x="133" y="26" type="curve"/>
      <point x="133" y="48"/>
      <point x="119" y="59"/>
      <point x="99" y="59" type="curve"/>
      <point x="79" y="59"/>
      <point x="66" y="46"/>
      <point x="66" y="26" type="curve"/>
      <point x="133" y="26"/>
      <point x="66" y="26"/>
      <point x="133" y="26" type="curve"/>
      <point x="133" y="4"/>
      <point x="119" y="-6"/>
      <point x="99" y="-6" type="curve"/>
      <point x="78" y="-6"/>
      <point x="66" y="5"/>
      <point x="66" y="26" type="curve"/>
      <point x="133" y="26"/>
      <point x="66" y="26"/>
    </contour>
  </outline>
</glyph>
<glyph name="slash" format="1">
  <advance width="415"/>
  <unicode hex="002F"/>
  <outline>
    <contour>
      <point x="85" y="-52" type="curve"/>
      <point x="186" y="241"/>
      <point x="287" y="533"/>
      <point x="389" y="826" type="curve"/>
      <point x="331" y="826"/>
      <point x="389" y="826"/>
      <point x="331" y="826" type="curve"/>
      <point x="230" y="533"/>
      <point x="128" y="241"/>
      <point x="27" y="-52" type="curve"/>
      <point x="85" y="-52"/>
      <point x="27" y="-52"/>
    </contour>
  </outline>
</glyph>
<glyph name="zero" format="1">
  <advance width="555"/>
  <unicode hex="0030"/>
  <outline>
    <contour>
      <point x="122" y="360" type="curve"/>
      <point x="122" y="532"/>
      <point x="141" y="678"/>
      <point x="276" y="678" type="curve"/>
      <point x="414" y="678"/>
      <point x="433" y="534"/>
      <point x="433" y="363" type="curve"/>
      <point x="433" y="192"/>
      <point x="413" y="44"/>
      <point x="281" y="44" type="curve"/>
      <point x="148" y="44"/>
      <point x="122" y="189"/>
      <point x="122" y="360" type="curve"/>
      <point x="66" y="360"/>
      <point x="121" y="360"/>
      <point x="65" y="360" type="curve"/>
      <point x="65" y="157"/>
      <point x="105" y="-5"/>
      <point x="279" y="-5" type="curve"/>
      <point x="452" y="-5"/>
      <point x="491" y="159"/>
      <point x="491" y="363" type="curve"/>
      <point x="491" y="565"/>
      <point x="453" y="727"/>
      <point x="282" y="727" type="curve"/>
      <point x="107" y="727"/>
      <point x="65" y="564"/>
      <point x="65" y="360" type="curve"/>
      <point x="121" y="360"/>
      <point x="66" y="360"/>
    </contour>
  </outline>
</glyph>
<glyph name="one" format="1">
  <advance width="312"/>
  <unicode hex="0031"/>
  <outline>
    <contour>
      <point x="58" y="523" type="curve"/>
      <point x="212" y="695"/>
      <point x="58" y="523"/>
      <point x="212" y="695" type="curve"/>
      <point x="167" y="722"/>
      <point x="212" y="695"/>
      <point x="167" y="722" type="curve"/>
      <point x="21" y="559"/>
      <point x="167" y="722"/>
      <point x="21" y="559" type="curve"/>
      <point x="58" y="523"/>
      <point x="21" y="559"/>
    </contour>
    <contour>
      <point x="223" y="0" type="curve"/>
      <point x="223" y="241"/>
      <point x="223" y="481"/>
      <point x="223" y="722" type="curve"/>
      <point x="167" y="722"/>
      <point x="223" y="722"/>
      <point x="167" y="722" type="curve"/>
      <point x="167" y="481"/>
      <point x="167" y="241"/>
      <point x="167" y="0" type="curve"/>
      <point x="223" y="0"/>
      <point x="167" y="0"/>
    </contour>
  </outline>
</glyph>
<glyph name="two" format="1">
  <advance width="431"/>
  <unicode hex="0032"/>
  <outline>
    <contour>
      <point x="43" y="0" type="curve"/>
      <point x="172" y="0"/>
      <point x="275" y="0"/>
      <point x="377" y="0" type="curve"/>
      <point x="377" y="47"/>
      <point x="377" y="0"/>
      <point x="377" y="47" type="curve"/>
      <point x="266" y="47"/>
      <point x="155" y="47"/>
      <point x="43" y="47" type="curve"/>
      <point x="43" y="0"/>
      <point x="43" y="47"/>
    </contour>
    <contour>
      <point x="94" y="550" type="curve"/>
      <point x="123" y="618"/>
      <point x="146" y="678"/>
      <point x="216" y="678" type="curve"/>
      <point x="292" y="678"/>
      <point x="316" y="609"/>
      <point x="316" y="519" type="curve"/>
      <point x="316" y="407"/>
      <point x="249" y="307"/>
      <point x="203" y="250" type="curve"/>
      <point x="150" y="181"/>
      <point x="98" y="115"/>
      <point x="43" y="47" type="curve"/>
      <point x="51" y="0"/>
      <point x="43" y="47"/>
      <point x="51" y="0" type="curve"/>
      <point x="127" y="68"/>
      <point x="184" y="142"/>
      <point x="240" y="215" type="curve"/>
      <point x="297" y="284"/>
      <point x="373" y="392"/>
      <point x="373" y="522" type="curve"/>
      <point x="373" y="642"/>
      <point x="327" y="727"/>
      <point x="218" y="727" type="curve"/>
      <point x="129" y="727"/>
      <point x="82" y="660"/>
      <point x="50" y="574" type="curve"/>
      <point x="94" y="550"/>
      <point x="50" y="574"/>
    </contour>
  </outline>
</glyph>
<glyph name="three" format="1">
  <advance width="435"/>
  <unicode hex="0033"/>
  <outline>
    <contour>
      <point x="51" y="57" type="curve"/>
      <point x="95" y="20"/>
      <point x="132" y="-5"/>
      <point x="190" y="-5" type="curve"/>
      <point x="311" y="-5"/>
      <point x="373" y="72"/>
      <point x="373" y="199" type="curve"/>
      <point x="373" y="323"/>
      <point x="274" y="396"/>
      <point x="129" y="396" type="curve"/>
      <point x="129" y="364"/>
      <point x="129" y="387"/>
      <point x="129" y="356" type="curve"/>
      <point x="240" y="356"/>
      <point x="317" y="295"/>
      <point x="317" y="197" type="curve"/>
      <point x="317" y="105"/>
      <point x="268" y="44"/>
      <point x="192" y="44" type="curve"/>
      <point x="148" y="44"/>
      <point x="118" y="63"/>
      <point x="82" y="92" type="curve"/>
      <point x="51" y="57"/>
      <point x="82" y="92"/>
    </contour>
    <contour>
      <point x="93" y="609" type="curve"/>
      <point x="109" y="639"/>
      <point x="143" y="678"/>
      <point x="189" y="678" type="curve"/>
      <point x="261" y="678"/>
      <point x="293" y="623"/>
      <point x="293" y="543" type="curve"/>
      <point x="293" y="457"/>
      <point x="226" y="404"/>
      <point x="129" y="404" type="curve"/>
      <point x="129" y="372"/>
      <point x="129" y="395"/>
      <point x="129" y="364" type="curve"/>
      <point x="258" y="364"/>
      <point x="349" y="430"/>
      <point x="349" y="545" type="curve"/>
      <point x="349" y="654"/>
      <point x="297" y="727"/>
      <point x="194" y="727" type="curve"/>
      <point x="129" y="727"/>
      <point x="79" y="681"/>
      <point x="55" y="637" type="curve"/>
      <point x="93" y="609"/>
      <point x="55" y="637"/>
    </contour>
  </outline>
</glyph>
<glyph name="four" format="1">
  <advance width="458"/>
  <unicode hex="0034"/>
  <outline>
    <contour>
      <point x="54" y="269" type="line"/>
      <point x="302" y="714" type="line"/>
      <point x="252" y="715" type="line"/>
      <point x="23" y="304" type="line"/>
    </contour>
    <contour>
      <point x="419" y="304" type="line"/>
      <point x="23" y="304" type="line"/>
      <point x="23" y="254" type="line"/>
      <point x="419" y="254" type="line"/>
    </contour>
    <contour>
      <point x="309" y="0" type="line"/>
      <point x="309" y="715" type="line"/>
      <point x="253" y="715" type="line"/>
      <point x="253" y="0" type="line"/>
    </contour>
  </outline>
</glyph>
<glyph name="five" format="1">
  <advance width="423"/>
  <unicode hex="0035"/>
  <outline>
    <contour>
      <point x="80" y="722" type="curve"/>
      <point x="80" y="621"/>
      <point x="80" y="516"/>
      <point x="80" y="398" type="curve"/>
      <point x="136" y="379"/>
      <point x="80" y="398"/>
      <point x="135" y="379" type="curve"/>
      <point x="135" y="477"/>
      <point x="135" y="577"/>
      <point x="135" y="675" type="curve"/>
      <point x="80" y="722"/>
      <point x="135" y="675"/>
    </contour>
    <contour>
      <point x="135" y="379" type="curve"/>
      <point x="148" y="390"/>
      <point x="176" y="403"/>
      <point x="201" y="403" type="curve"/>
      <point x="284" y="403"/>
      <point x="310" y="322"/>
      <point x="310" y="229" type="curve"/>
      <point x="310" y="132"/>
      <point x="275" y="44"/>
      <point x="191" y="44" type="curve"/>
      <point x="147" y="44"/>
      <point x="120" y="58"/>
      <point x="82" y="85" type="curve"/>
      <point x="52" y="44"/>
      <point x="82" y="85"/>
      <point x="52" y="44" type="curve"/>
      <point x="91" y="13"/>
      <point x="138" y="-5"/>
      <point x="192" y="-5" type="curve"/>
      <point x="307" y="-5"/>
      <point x="367" y="101"/>
      <point x="367" y="229" type="curve"/>
      <point x="367" y="351"/>
      <point x="319" y="453"/>
      <point x="208" y="453" type="curve"/>
      <point x="166" y="453"/>
      <point x="123" y="436"/>
      <point x="91" y="398" type="curve"/>
      <point x="136" y="382"/>
      <point x="90" y="395"/>
    </contour>
    <contour>
      <point x="347" y="722" type="curve"/>
      <point x="259" y="722"/>
      <point x="168" y="722"/>
      <point x="80" y="722" type="curve"/>
      <point x="135" y="675"/>
      <point x="80" y="722"/>
      <point x="135" y="675" type="curve"/>
      <point x="205" y="675"/>
      <point x="277" y="675"/>
      <point x="347" y="675" type="curve"/>
      <point x="347" y="722"/>
      <point x="347" y="675"/>
    </contour>
  </outline>
</glyph>
<glyph name="six" format="1">
  <advance width="469"/>
  <unicode hex="0036"/>
  <outline>
    <contour>
      <point x="109" y="224" type="curve"/>
      <point x="123" y="295"/>
      <point x="166" y="372"/>
      <point x="244" y="372" type="curve"/>
      <point x="326" y="372"/>
      <point x="354" y="302"/>
      <point x="354" y="209" type="curve"/>
      <point x="354" y="127"/>
      <point x="325" y="47"/>
      <point x="247" y="47" type="curve"/>
      <point x="150" y="47"/>
      <point x="118" y="136"/>
      <point x="118" y="247" type="curve"/>
      <point x="118" y="459"/>
      <point x="216" y="613"/>
      <point x="408" y="689" type="curve"/>
      <point x="391" y="732"/>
      <point x="408" y="689"/>
      <point x="391" y="732" type="curve"/>
      <point x="178" y="652"/>
      <point x="61" y="486"/>
      <point x="61" y="245" type="curve"/>
      <point x="61" y="101"/>
      <point x="115" y="-7"/>
      <point x="246" y="-7" type="curve"/>
      <point x="361" y="-7"/>
      <point x="413" y="85"/>
      <point x="413" y="210" type="curve"/>
      <point x="413" y="332"/>
      <point x="362" y="421"/>
      <point x="252" y="421" type="curve"/>
      <point x="148" y="421"/>
      <point x="91" y="328"/>
      <point x="78" y="240" type="curve"/>
      <point x="108" y="224"/>
      <point x="79" y="240"/>
    </contour>
  </outline>
</glyph>
<glyph name="seven" format="1">
  <advance width="408"/>
  <unicode hex="0037"/>
  <outline>
    <contour>
      <point x="40" y="675" type="curve"/>
      <point x="393" y="675" type="curve"/>
      <point x="393" y="722" type="curve"/>
      <point x="40" y="722" type="curve"/>
    </contour>
    <contour>
      <point x="355" y="722" type="curve"/>
      <point x="57" y="0" type="curve"/>
      <point x="120" y="0" type="curve"/>
      <point x="393" y="675" type="curve"/>
    </contour>
  </outline>
</glyph>
<glyph name="eight" format="1">
  <advance width="463"/>
  <unicode hex="0038"/>
  <outline>
    <contour>
      <point x="79" y="557" type="curve"/>
      <point x="79" y="460"/>
      <point x="133" y="414"/>
      <point x="214" y="360" type="curve"/>
      <point x="290" y="309"/>
      <point x="340" y="261"/>
      <point x="340" y="176" type="curve"/>
      <point x="340" y="98"/>
      <point x="306" y="44"/>
      <point x="231" y="44" type="curve"/>
      <point x="156" y="44"/>
      <point x="122" y="98"/>
      <point x="122" y="176" type="curve"/>
      <point x="122" y="263"/>
      <point x="173" y="307"/>
      <point x="250" y="360" type="curve"/>
      <point x="328" y="414"/>
      <point x="384" y="460"/>
      <point x="384" y="555" type="curve"/>
      <point x="384" y="660"/>
      <point x="334" y="727"/>
      <point x="231" y="727" type="curve"/>
      <point x="130" y="727"/>
      <point x="79" y="659"/>
      <point x="79" y="557" type="curve"/>
      <point x="135" y="557"/>
      <point x="79" y="557"/>
      <point x="135" y="557" type="curve"/>
      <point x="135" y="626"/>
      <point x="163" y="678"/>
      <point x="229" y="678" type="curve"/>
      <point x="298" y="678"/>
      <point x="327" y="628"/>
      <point x="327" y="555" type="curve"/>
      <point x="327" y="480"/>
      <point x="281" y="440"/>
      <point x="214" y="395" type="curve"/>
      <point x="125" y="334"/>
      <point x="65" y="283"/>
      <point x="65" y="176" type="curve"/>
      <point x="65" y="65"/>
      <point x="120" y="-5"/>
      <point x="228" y="-5" type="curve"/>
      <point x="337" y="-5"/>
      <point x="398" y="63"/>
      <point x="398" y="176" type="curve"/>
      <point x="398" y="282"/>
      <point x="338" y="335"/>
      <point x="250" y="395" type="curve"/>
      <point x="183" y="442"/>
      <point x="135" y="480"/>
      <point x="135" y="557" type="curve"/>
      <point x="79" y="557"/>
      <point x="135" y="557"/>
    </contour>
  </outline>
</glyph>
<glyph name="nine" format="1">
  <advance width="467"/>
  <unicode hex="0039"/>
  <outline>
    <contour>
      <point x="362" y="485" type="curve"/>
      <point x="340" y="417"/>
      <point x="305" y="350"/>
      <point x="225" y="350" type="curve"/>
      <point x="142" y="350"/>
      <point x="112" y="422"/>
      <point x="112" y="515" type="curve"/>
      <point x="112" y="603"/>
      <point x="142" y="675"/>
      <point x="219" y="675" type="curve"/>
      <point x="317" y="675"/>
      <point x="349" y="585"/>
      <point x="349" y="475" type="curve"/>
      <point x="349" y="263"/>
      <point x="263" y="116"/>
      <point x="66" y="32" type="curve"/>
      <point x="89" y="-15"/>
      <point x="66" y="32"/>
      <point x="89" y="-15" type="curve"/>
      <point x="300" y="73"/>
      <point x="406" y="236"/>
      <point x="406" y="477" type="curve"/>
      <point x="406" y="621"/>
      <point x="353" y="729"/>
      <point x="221" y="729" type="curve"/>
      <point x="106" y="729"/>
      <point x="55" y="637"/>
      <point x="55" y="512" type="curve"/>
      <point x="55" y="390"/>
      <point x="106" y="301"/>
      <point x="220" y="301" type="curve"/>
      <point x="320" y="301"/>
      <point x="364" y="382"/>
      <point x="392" y="472" type="curve"/>
      <point x="362" y="485"/>
      <point x="392" y="472"/>
    </contour>
  </outline>
</glyph>
<glyph name="colon" format="1">
  <advance width="218"/>
  <unicode hex="003A"/>
  <outline>
    <contour>
      <point x="139" y="405" type="curve"/>
      <point x="139" y="427"/>
      <point x="125" y="438"/>
      <point x="105" y="438" type="curve"/>
      <point x="85" y="438"/>
      <point x="72" y="426"/>
      <point x="72" y="405" type="curve"/>
      <point x="139" y="405"/>
      <point x="72" y="405"/>
      <point x="139" y="405" type="curve"/>
      <point x="139" y="384"/>
      <point x="125" y="373"/>
      <point x="105" y="373" type="curve"/>
      <point x="84" y="373"/>
      <point x="72" y="384"/>
      <point x="72" y="405" type="curve"/>
      <point x="139" y="405"/>
      <point x="72" y="405"/>
    </contour>
    <contour>
      <point x="139" y="28" type="curve"/>
      <point x="139" y="49"/>
      <point x="125" y="61"/>
      <point x="105" y="61" type="curve"/>
      <point x="85" y="61"/>
      <point x="72" y="48"/>
      <point x="72" y="28" type="curve"/>
      <point x="139" y="28"/>
      <point x="72" y="28"/>
      <point x="139" y="28" type="curve"/>
      <point x="139" y="6"/>
      <point x="125" y="-4"/>
      <point x="105" y="-4" type="curve"/>
      <point x="84" y="-4"/>
      <point x="72" y="7"/>
      <point x="72" y="28" type="curve"/>
      <point x="139" y="28"/>
      <point x="72" y="28"/>
    </contour>
  </outline>
</glyph>
<glyph name="semicolon" format="1">
  <advance width="172"/>
  <unicode hex="003B"/>
  <outline>
    <contour>
      <point x="39" y="-134" type="line"/>
      <point x="86" y="-117"/>
      <point x="119" y="-78"/>
      <point x="119" y="-14" type="curve"/>
      <point x="119" y="26"/>
      <point x="107" y="51"/>
      <point x="80" y="51" type="curve"/>
      <point x="57" y="51"/>
      <point x="43" y="39"/>
      <point x="43" y="18" type="curve"/>
      <point x="43" y="0"/>
      <point x="52" y="-13"/>
      <point x="72" y="-17" type="curve"/>
      <point x="72" y="-39"/>
      <point x="64" y="-80"/>
      <point x="28" y="-100" type="curve"/>
    </contour>
    <contour>
      <point x="114" y="413" type="curve"/>
      <point x="114" y="435"/>
      <point x="100" y="446"/>
      <point x="80" y="446" type="curve"/>
      <point x="59" y="446"/>
      <point x="47" y="433"/>
      <point x="47" y="413" type="curve"/>
      <point x="114" y="413"/>
      <point x="47" y="413"/>
      <point x="114" y="413" type="curve"/>
      <point x="114" y="392"/>
      <point x="100" y="381"/>
      <point x="80" y="381" type="curve"/>
      <point x="59" y="381"/>
      <point x="47" y="392"/>
      <point x="47" y="413" type="curve"/>
      <point x="114" y="413"/>
      <point x="47" y="413"/>
    </contour>
  </outline>
</glyph>
<glyph name="less" format="1">
  <advance width="532"/>
  <unicode hex="003C"/>
  <outline>
    <contour>
      <point x="471" y="596" type="curve"/>
      <point x="326" y="506"/>
      <point x="181" y="416"/>
      <point x="37" y="326" type="curve"/>
      <point x="37" y="274"/>
      <point x="37" y="326"/>
      <point x="37" y="274" type="curve"/>
      <point x="181" y="364"/>
      <point x="326" y="454"/>
      <point x="471" y="544" type="curve"/>
      <point x="471" y="596"/>
      <point x="471" y="544"/>
    </contour>
    <contour>
      <point x="478" y="62" type="curve"/>
      <point x="330" y="150"/>
      <point x="183" y="238"/>
      <point x="37" y="326" type="curve"/>
      <point x="37" y="274"/>
      <point x="37" y="326"/>
      <point x="37" y="274" type="curve"/>
      <point x="183" y="186"/>
      <point x="330" y="98"/>
      <point x="478" y="10" type="curve"/>
      <point x="478" y="62"/>
      <point x="478" y="10"/>
    </contour>
  </outline>
</glyph>
<glyph name="equal" format="1">
  <advance width="556"/>
  <unicode hex="003D"/>
  <outline>
    <contour>
      <point x="63" y="193" type="curve"/>
      <point x="212" y="193"/>
      <point x="362" y="193"/>
      <point x="512" y="193" type="curve"/>
      <point x="512" y="242"/>
      <point x="512" y="193"/>
      <point x="512" y="242" type="curve"/>
      <point x="362" y="242"/>
      <point x="212" y="242"/>
      <point x="63" y="242" type="curve"/>
      <point x="63" y="193"/>
      <point x="63" y="242"/>
    </contour>
    <contour>
      <point x="63" y="415" type="curve"/>
      <point x="212" y="415"/>
      <point x="362" y="415"/>
      <point x="512" y="415" type="curve"/>
      <point x="512" y="464"/>
      <point x="512" y="415"/>
      <point x="512" y="464" type="curve"/>
      <point x="362" y="464"/>
      <point x="212" y="464"/>
      <point x="63" y="464" type="curve"/>
      <point x="63" y="415"/>
      <point x="63" y="464"/>
    </contour>
  </outline>
</glyph>
<glyph name="greater" format="1">
  <advance width="532"/>
  <unicode hex="003E"/>
  <outline>
    <contour>
      <point x="60" y="10" type="curve"/>
      <point x="205" y="100"/>
      <point x="350" y="190"/>
      <point x="495" y="280" type="curve"/>
      <point x="495" y="332"/>
      <point x="495" y="280"/>
      <point x="495" y="332" type="curve"/>
      <point x="350" y="242"/>
      <point x="205" y="152"/>
      <point x="60" y="62" type="curve"/>
      <point x="60" y="10"/>
      <point x="60" y="62"/>
    </contour>
    <contour>
      <point x="53" y="544" type="curve"/>
      <point x="200" y="456"/>
      <point x="348" y="368"/>
      <point x="495" y="280" type="curve"/>
      <point x="495" y="332"/>
      <point x="495" y="280"/>
      <point x="495" y="332" type="curve"/>
      <point x="348" y="420"/>
      <point x="200" y="508"/>
      <point x="53" y="596" type="curve"/>
      <point x="53" y="544"/>
      <point x="53" y="596"/>
    </contour>
  </outline>
</glyph>
<glyph name="question" format="1">
  <advance width="415"/>
  <unicode hex="003F"/>
  <outline>
    <contour>
      <point x="167" y="347" type="curve"/>
      <point x="167" y="310"/>
      <point x="167" y="258"/>
      <point x="167" y="221" type="curve"/>
      <point x="221" y="221"/>
      <point x="167" y="221"/>
      <point x="221" y="221" type="curve"/>
      <point x="221" y="258"/>
      <point x="221" y="310"/>
      <point x="221" y="347" type="curve"/>
      <point x="167" y="347"/>
      <point x="221" y="347"/>
    </contour>
    <contour>
      <point x="87" y="610" type="line"/>
      <point x="109" y="645"/>
      <point x="140" y="672"/>
      <point x="189" y="672" type="curve"/>
      <point x="270" y="672"/>
      <point x="305" y="604"/>
      <point x="305" y="519" type="curve"/>
      <point x="305" y="423"/>
      <point x="264" y="347"/>
      <point x="175" y="347" type="curve"/>
      <point x="175" y="319"/>
      <point x="175" y="328"/>
      <point x="175" y="301" type="curve"/>
      <point x="296" y="301"/>
      <point x="361" y="394"/>
      <point x="361" y="519" type="curve"/>
      <point x="361" y="635"/>
      <point x="301" y="722"/>
      <point x="192" y="722" type="curve"/>
      <point x="123" y="722"/>
      <point x="82" y="690"/>
      <point x="52" y="644" type="curve"/>
    </contour>
    <contour>
      <point x="228" y="26" type="curve"/>
      <point x="228" y="48"/>
      <point x="214" y="59"/>
      <point x="194" y="59" type="curve"/>
      <point x="173" y="59"/>
      <point x="161" y="46"/>
      <point x="161" y="26" type="curve"/>
      <point x="228" y="26"/>
      <point x="161" y="26"/>
      <point x="228" y="26" type="curve"/>
      <point x="228" y="4"/>
      <point x="214" y="-6"/>
      <point x="194" y="-6" type="curve"/>
      <point x="173" y="-6"/>
      <point x="161" y="5"/>
      <point x="161" y="26" type="curve"/>
      <point x="228" y="26"/>
      <point x="161" y="26"/>
    </contour>
  </outline>
</glyph>
<glyph name="at" format="1">
  <advance width="651"/>
  <unicode hex="0040"/>
  <outline>
    <contour>
      <point x="438" y="-76" type="curve"/>
      <point x="405" y="-101"/>
      <point x="378" y="-110"/>
      <point x="335" y="-110" type="curve"/>
      <point x="177" y="-110"/>
      <point x="112" y="21"/>
      <point x="112" y="196" type="curve"/>
      <point x="112" y="366"/>
      <point x="176" y="496"/>
      <point x="330" y="496" type="curve"/>
      <point x="476" y="496"/>
      <point x="535" y="370"/>
      <point x="535" y="209" type="curve"/>
      <point x="535" y="135"/>
      <point x="535" y="67"/>
      <point x="493" y="67" type="curve"/>
      <point x="446" y="67"/>
      <point x="447" y="130"/>
      <point x="447" y="201" type="curve"/>
      <point x="447" y="302"/>
      <point x="414" y="380"/>
      <point x="323" y="380" type="curve"/>
      <point x="227" y="380"/>
      <point x="193" y="304"/>
      <point x="193" y="200" type="curve"/>
      <point x="193" y="92"/>
      <point x="222" y="11"/>
      <point x="318" y="11" type="curve"/>
      <point x="406" y="11"/>
      <point x="429" y="89"/>
      <point x="438" y="188" type="curve"/>
      <point x="402" y="196"/>
      <point x="438" y="188"/>
      <point x="402" y="196" type="curve"/>
      <point x="390" y="127"/>
      <point x="383" y="58"/>
      <point x="324" y="58" type="curve"/>
      <point x="258" y="58"/>
      <point x="245" y="123"/>
      <point x="245" y="203" type="curve"/>
      <point x="245" y="275"/>
      <point x="258" y="333"/>
      <point x="319" y="333" type="curve"/>
      <point x="384" y="333"/>
      <point x="394" y="272"/>
      <point x="394" y="198" type="curve"/>
      <point x="394" y="103"/>
      <point x="404" y="23"/>
      <point x="489" y="23" type="curve"/>
      <point x="577" y="23"/>
      <point x="587" y="108"/>
      <point x="587" y="212" type="curve"/>
      <point x="587" y="405"/>
      <point x="512" y="545"/>
      <point x="333" y="545" type="curve"/>
      <point x="142" y="545"/>
      <point x="59" y="399"/>
      <point x="59" y="194" type="curve"/>
      <point x="59" y="-11"/>
      <point x="143" y="-157"/>
      <point x="332" y="-157" type="curve"/>
      <point x="386" y="-157"/>
      <point x="419" y="-148"/>
      <point x="462" y="-117" type="curve"/>
      <point x="438" y="-76"/>
      <point x="462" y="-117"/>
    </contour>
  </outline>
</glyph>
<glyph name="B" format="1">
  <advance width="510"/>
  <unicode hex="0042"/>
  <outline>
    <contour>
      <point x="132" y="675" type="curve"/>
      <point x="178" y="675"/>
      <point x="208" y="675"/>
      <point x="254" y="675" type="curve"/>
      <point x="327" y="675"/>
      <point x="363" y="624"/>
      <point x="363" y="550" type="curve"/>
      <point x="363" y="479"/>
      <point x="328" y="432"/>
      <point x="260" y="432" type="curve"/>
      <point x="212" y="432"/>
      <point x="180" y="432"/>
      <point x="132" y="432" type="curve"/>
      <point x="132" y="414"/>
      <point x="132" y="402"/>
      <point x="132" y="385" type="curve"/>
      <point x="172" y="385"/>
      <point x="200" y="385"/>
      <point x="240" y="385" type="curve"/>
      <point x="343" y="385"/>
      <point x="420" y="441"/>
      <point x="420" y="548" type="curve"/>
      <point x="420" y="655"/>
      <point x="361" y="722"/>
      <point x="257" y="722" type="curve"/>
      <point x="210" y="722"/>
      <point x="179" y="722"/>
      <point x="132" y="722" type="curve"/>
      <point x="132" y="704"/>
      <point x="132" y="693"/>
    </contour>
    <contour>
      <point x="171" y="0" type="curve"/>
      <point x="171" y="241"/>
      <point x="171" y="481"/>
      <point x="171" y="722" type="curve"/>
      <point x="110" y="722"/>
      <point x="171" y="722"/>
      <point x="110" y="722" type="curve"/>
      <point x="110" y="481"/>
      <point x="111" y="241"/>
      <point x="110" y="0" type="curve"/>
      <point x="171" y="0"/>
      <point x="110" y="0"/>
    </contour>
    <contour>
      <point x="132" y="385" type="curve"/>
      <point x="180" y="385"/>
      <point x="212" y="385"/>
      <point x="260" y="385" type="curve"/>
      <point x="355" y="385"/>
      <point x="396" y="312"/>
      <point x="396" y="211" type="curve"/>
      <point x="396" y="113"/>
      <point x="350" y="47"/>
      <point x="256" y="47" type="curve"/>
      <point x="209" y="47"/>
      <point x="179" y="47"/>
      <point x="132" y="47" type="curve"/>
      <point x="132" y="29"/>
      <point x="132" y="18"/>
      <point x="132" y="0" type="curve"/>
      <point x="180" y="0"/>
      <point x="211" y="0"/>
      <point x="259" y="0" type="curve"/>
      <point x="384" y="0"/>
      <point x="454" y="81"/>
      <point x="454" y="210" type="curve"/>
      <point x="454" y="348"/>
      <point x="374" y="432"/>
      <point x="241" y="432" type="curve"/>
      <point x="201" y="432"/>
      <point x="172" y="432"/>
      <point x="132" y="432" type="curve"/>
      <point x="132" y="414"/>
      <point x="132" y="402"/>
    </contour>
  </outline>
</glyph>
<glyph name="C" format="1">
  <advance width="525"/>
  <unicode hex="0043"/>
  <outline>
    <contour>
      <point x="484" y="655" type="curve"/>
      <point x="436" y="695"/>
      <point x="379" y="727"/>
      <point x="311" y="727" type="curve"/>
      <point x="121" y="727"/>
      <point x="62" y="562"/>
      <point x="62" y="344" type="curve"/>
      <point x="62" y="146"/>
      <point x="120" y="-5"/>
      <point x="296" y="-5" type="curve"/>
      <point x="386" y="-5"/>
      <point x="442" y="33"/>
      <point x="498" y="97" type="curve"/>
      <point x="463" y="132"/>
      <point x="497" y="97"/>
      <point x="462" y="132" type="curve"/>
      <point x="415" y="80"/>
      <point x="371" y="46"/>
      <point x="299" y="46" type="curve"/>
      <point x="154" y="46"/>
      <point x="119" y="179"/>
      <point x="119" y="346" type="curve"/>
      <point x="119" y="529"/>
      <point x="156" y="677"/>
      <point x="308" y="677" type="curve"/>
      <point x="366" y="677"/>
      <point x="414" y="651"/>
      <point x="453" y="618" type="curve"/>
      <point x="484" y="655"/>
      <point x="453" y="618"/>
    </contour>
    <contour>
      <point x="307" y="812" type="move" name="top"/>
    </contour>
    <contour>
      <point x="308" y="-2" type="move" name="bottom"/>
    </contour>
  </outline>
</glyph>
<glyph name="D" format="1">
  <advance width="591"/>
  <unicode hex="0044"/>
  <outline>
    <contour>
      <point x="110" y="722" type="curve"/>
      <point x="110" y="481"/>
      <point x="110" y="241"/>
      <point x="110" y="0" type="curve"/>
      <point x="168" y="0"/>
      <point x="110" y="0"/>
      <point x="168" y="0" type="curve"/>
      <point x="168" y="241"/>
      <point x="168" y="481"/>
      <point x="168" y="722" type="curve"/>
      <point x="110" y="722"/>
      <point x="168" y="722"/>
    </contour>
    <contour>
      <point x="140" y="0" type="curve"/>
      <point x="186" y="0"/>
      <point x="219" y="0"/>
      <point x="266" y="0" type="curve"/>
      <point x="455" y="0"/>
      <point x="528" y="148"/>
      <point x="528" y="355" type="curve"/>
      <point x="528" y="570"/>
      <point x="453" y="722"/>
      <point x="258" y="722" type="curve"/>
      <point x="216" y="722"/>
      <point x="183" y="722"/>
      <point x="140" y="722" type="curve"/>
      <point x="140" y="685"/>
      <point x="140" y="712"/>
      <point x="140" y="675" type="curve"/>
      <point x="182" y="675"/>
      <point x="214" y="675"/>
      <point x="256" y="675" type="curve"/>
      <point x="419" y="675"/>
      <point x="470" y="538"/>
      <point x="470" y="354" type="curve"/>
      <point x="470" y="180"/>
      <point x="425" y="47"/>
      <point x="271" y="47" type="curve"/>
      <point x="223" y="47"/>
      <point x="187" y="47"/>
      <point x="140" y="47" type="curve"/>
      <point x="140" y="10"/>
      <point x="140" y="37"/>
    </contour>
    <contour>
      <point x="240" y="812" type="move" name="top"/>
    </contour>
  </outline>
</glyph>
<glyph name="F" format="1">
  <advance width="445"/>
  <unicode hex="0046"/>
  <outline>
    <contour>
      <point x="142" y="350" type="curve"/>
      <point x="218" y="350"/>
      <point x="295" y="350"/>
      <point x="371" y="350" type="curve"/>
      <point x="371" y="397"/>
      <point x="371" y="350"/>
      <point x="371" y="397" type="curve"/>
      <point x="295" y="397"/>
      <point x="218" y="397"/>
      <point x="142" y="397" type="curve"/>
      <point x="142" y="350"/>
      <point x="142" y="397"/>
    </contour>
    <contour>
      <point x="168" y="0" type="curve"/>
      <point x="168" y="722" type="line"/>
      <point x="110" y="722"/>
      <point x="168" y="722"/>
      <point x="110" y="722" type="curve"/>
      <point x="110" y="481"/>
      <point x="110" y="241"/>
      <point x="110" y="0" type="curve"/>
      <point x="168" y="0"/>
      <point x="110" y="0"/>
    </contour>
    <contour>
      <point x="131" y="675" type="curve"/>
      <point x="228" y="675"/>
      <point x="326" y="675"/>
      <point x="424" y="675" type="curve"/>
      <point x="424" y="722"/>
      <point x="424" y="675"/>
      <point x="424" y="722" type="curve"/>
      <point x="326" y="722"/>
      <point x="228" y="722"/>
      <point x="131" y="722" type="curve"/>
      <point x="131" y="675"/>
      <point x="131" y="722"/>
    </contour>
  </outline>
</glyph>
<glyph name="G" format="1">
  <advance width="603"/>
  <unicode hex="0047"/>
  <outline>
    <contour>
      <point x="521" y="333" type="curve"/>
      <point x="469" y="333"/>
      <point x="416" y="333"/>
      <point x="364" y="333" type="curve"/>
      <point x="364" y="287"/>
      <point x="364" y="333"/>
      <point x="364" y="287" type="curve"/>
      <point x="416" y="287"/>
      <point x="469" y="287"/>
      <point x="521" y="287" type="curve"/>
      <point x="521" y="333"/>
      <point x="521" y="287"/>
    </contour>
    <contour>
      <point x="537" y="78" type="curve"/>
      <point x="537" y="163"/>
      <point x="537" y="248"/>
      <point x="537" y="333" type="curve"/>
      <point x="484" y="333"/>
      <point x="537" y="333"/>
      <point x="484" y="333" type="curve"/>
      <point x="484" y="248"/>
      <point x="484" y="163"/>
      <point x="484" y="78" type="curve"/>
      <point x="537" y="78"/>
      <point x="484" y="78"/>
    </contour>
    <contour>
      <point x="525" y="643" type="curve"/>
      <point x="462" y="698"/>
      <point x="400" y="727"/>
      <point x="317" y="727" type="curve"/>
      <point x="130" y="727"/>
      <point x="61" y="573"/>
      <point x="61" y="364" type="curve"/>
      <point x="61" y="150"/>
      <point x="134" y="-5"/>
      <point x="325" y="-5" type="curve"/>
      <point x="413" y="-5"/>
      <point x="467" y="24"/>
      <point x="537" y="78" type="curve"/>
      <point x="506" y="115"/>
      <point x="537" y="78"/>
      <point x="506" y="115" type="curve"/>
      <point x="458" y="75"/>
      <point x="399" y="45"/>
      <point x="325" y="45" type="curve"/>
      <point x="165" y="45"/>
      <point x="120" y="185"/>
      <point x="120" y="368" type="curve"/>
      <point x="120" y="541"/>
      <point x="165" y="677"/>
      <point x="317" y="677" type="curve"/>
      <point x="388" y="677"/>
      <point x="442" y="651"/>
      <point x="496" y="603" type="curve"/>
      <point x="525" y="643"/>
      <point x="496" y="603"/>
    </contour>
    <contour>
      <point x="314" y="812" type="move" name="top"/>
    </contour>
    <contour>
      <point x="335" y="-57" type="move" name="bottom"/>
    </contour>
  </outline>
</glyph>
<glyph name="H" format="1">
  <advance width="635"/>
  <unicode hex="0048"/>
  <outline>
    <contour>
      <point x="168" y="0" type="curve"/>
      <point x="168" y="722" type="line"/>
      <point x="110" y="722"/>
      <point x="168" y="722"/>
      <point x="110" y="722" type="curve"/>
      <point x="110" y="481"/>
      <point x="110" y="241"/>
      <point x="110" y="0" type="curve"/>
      <point x="168" y="0"/>
      <point x="110" y="0"/>
    </contour>
    <contour>
      <point x="495" y="386" type="curve"/>
      <point x="376" y="386"/>
      <point x="257" y="386"/>
      <point x="139" y="386" type="curve"/>
      <point x="139" y="339"/>
      <point x="139" y="386"/>
      <point x="139" y="339" type="curve"/>
      <point x="257" y="339"/>
      <point x="376" y="339"/>
      <point x="495" y="339" type="curve"/>
      <point x="495" y="386"/>
      <point x="495" y="339"/>
    </contour>
    <contour>
      <point x="525" y="1" type="curve"/>
      <point x="525" y="232"/>
      <point x="525" y="490"/>
      <point x="525" y="721" type="curve"/>
      <point x="467" y="721"/>
      <point x="525" y="721"/>
      <point x="467" y="721" type="curve"/>
      <point x="467" y="1" type="line"/>
      <point x="525" y="1"/>
      <point x="467" y="1"/>
    </contour>
  </outline>
</glyph>
<glyph name="J" format="1">
  <advance width="360"/>
  <unicode hex="004A"/>
  <outline>
    <contour>
      <point x="11" y="40" type="curve"/>
      <point x="36" y="17"/>
      <point x="67" y="-5"/>
      <point x="109" y="-5" type="curve"/>
      <point x="224" y="-5"/>
      <point x="258" y="84"/>
      <point x="258" y="223" type="curve"/>
      <point x="258" y="405"/>
      <point x="258" y="540"/>
      <point x="258" y="722" type="curve"/>
      <point x="211" y="722"/>
      <point x="247" y="722"/>
      <point x="200" y="722" type="curve"/>
      <point x="200" y="540"/>
      <point x="200" y="405"/>
      <point x="200" y="223" type="curve"/>
      <point x="200" y="125"/>
      <point x="193" y="43"/>
      <point x="109" y="43" type="curve"/>
      <point x="78" y="43"/>
      <point x="58" y="60"/>
      <point x="39" y="77" type="curve"/>
      <point x="17" y="48"/>
      <point x="33" y="69"/>
    </contour>
  </outline>
</glyph>
<glyph name="K" format="1">
  <advance width="490"/>
  <unicode hex="004B"/>
  <outline>
    <contour>
      <point x="399" y="722" type="curve"/>
      <point x="153" y="380" type="line"/>
      <point x="220" y="380"/>
      <point x="154" y="380"/>
      <point x="221" y="380" type="curve"/>
      <point x="469" y="722" type="line"/>
      <point x="414" y="722"/>
      <point x="454" y="722"/>
    </contour>
    <contour>
      <point x="168" y="0" type="curve"/>
      <point x="168" y="722" type="line"/>
      <point x="110" y="722"/>
      <point x="168" y="722"/>
      <point x="110" y="722" type="curve"/>
      <point x="110" y="481"/>
      <point x="110" y="241"/>
      <point x="110" y="0" type="curve"/>
      <point x="168" y="0"/>
      <point x="110" y="0"/>
    </contour>
    <contour>
      <point x="485" y="0" type="curve"/>
      <point x="221" y="380" type="line"/>
      <point x="154" y="380"/>
      <point x="220" y="380"/>
      <point x="153" y="380" type="curve"/>
      <point x="415" y="0" type="line"/>
      <point x="474" y="0"/>
      <point x="426" y="0"/>
    </contour>
    <contour>
      <point x="301" y="-57" type="move" name="bottom"/>
    </contour>
  </outline>
</glyph>
<glyph name="L" format="1">
  <advance width="450"/>
  <unicode hex="004C"/>
  <outline>
    <contour>
      <point x="168" y="0" type="curve"/>
      <point x="168" y="241"/>
      <point x="168" y="481"/>
      <point x="168" y="722" type="curve"/>
      <point x="110" y="722"/>
      <point x="168" y="722"/>
      <point x="110" y="722" type="curve"/>
      <point x="110" y="481"/>
      <point x="110" y="241"/>
      <point x="110" y="0" type="curve"/>
      <point x="168" y="0"/>
      <point x="110" y="0"/>
    </contour>
    <contour>
      <point x="138" y="0" type="curve"/>
      <point x="239" y="0"/>
      <point x="339" y="0"/>
      <point x="440" y="0" type="curve"/>
      <point x="440" y="47"/>
      <point x="440" y="0"/>
      <point x="440" y="47" type="curve"/>
      <point x="339" y="47"/>
      <point x="239" y="47"/>
      <point x="138" y="47" type="curve"/>
      <point x="138" y="0"/>
      <point x="138" y="47"/>
    </contour>
    <contour>
      <point x="139" y="812" type="move" name="top"/>
    </contour>
    <contour>
      <point x="259" y="-56" type="move" name="bottom"/>
    </contour>
  </outline>
</glyph>
<glyph name="M" format="1">
  <advance width="703"/>
  <unicode hex="004D"/>
  <outline>
    <contour>
      <point x="627" y="0" type="curve"/>
      <point x="612" y="241"/>
      <point x="596" y="481"/>
      <point x="581" y="722" type="curve"/>
      <point x="529" y="722"/>
      <point x="581" y="722"/>
      <point x="529" y="722" type="curve"/>
      <point x="543" y="481"/>
      <point x="555" y="241"/>
      <point x="570" y="0" type="curve"/>
      <point x="627" y="0"/>
      <point x="570" y="0"/>
    </contour>
    <contour>
      <point x="130" y="0" type="curve"/>
      <point x="143" y="241"/>
      <point x="157" y="481"/>
      <point x="170" y="722" type="curve"/>
      <point x="120" y="722"/>
      <point x="170" y="722"/>
      <point x="120" y="722" type="curve"/>
      <point x="106" y="481"/>
      <point x="92" y="241"/>
      <point x="78" y="0" type="curve"/>
      <point x="130" y="0"/>
      <point x="78" y="0"/>
    </contour>
    <contour>
      <point x="373" y="0" type="curve"/>
      <point x="306" y="241"/>
      <point x="238" y="481"/>
      <point x="172" y="722" type="curve"/>
      <point x="122" y="722"/>
      <point x="172" y="722"/>
      <point x="122" y="722" type="curve"/>
      <point x="189" y="481"/>
      <point x="255" y="241"/>
      <point x="322" y="0" type="curve"/>
      <point x="373" y="0"/>
      <point x="322" y="0"/>
    </contour>
    <contour>
      <point x="380" y="0" type="curve"/>
      <point x="445" y="241"/>
      <point x="511" y="481"/>
      <point x="576" y="722" type="curve"/>
      <point x="526" y="722"/>
      <point x="576" y="722"/>
      <point x="526" y="722" type="curve"/>
      <point x="460" y="481"/>
      <point x="394" y="241"/>
      <point x="328" y="0" type="curve"/>
      <point x="380" y="0"/>
      <point x="328" y="0"/>
    </contour>
  </outline>
</glyph>
<glyph name="P" format="1">
  <advance width="475"/>
  <unicode hex="0050"/>
  <outline>
    <contour>
      <point x="131" y="317" type="curve"/>
      <point x="169" y="291"/>
      <point x="209" y="272"/>
      <point x="258" y="272" type="curve"/>
      <point x="369" y="274"/>
      <point x="427" y="360"/>
      <point x="427" y="489" type="curve"/>
      <point x="427" y="621"/>
      <point x="360" y="722"/>
      <point x="236" y="722" type="curve"/>
      <point x="204" y="722"/>
      <point x="173" y="722"/>
      <point x="142" y="722" type="curve"/>
      <point x="142" y="675"/>
      <point x="142" y="722"/>
      <point x="142" y="675" type="curve"/>
      <point x="171" y="675"/>
      <point x="199" y="675"/>
      <point x="228" y="675" type="curve"/>
      <point x="324" y="675"/>
      <point x="369" y="593"/>
      <point x="369" y="489" type="curve"/>
      <point x="369" y="395"/>
      <point x="335" y="318"/>
      <point x="253" y="318" type="curve"/>
      <point x="211" y="318"/>
      <point x="184" y="334"/>
      <point x="150" y="358" type="curve"/>
      <point x="132" y="319"/>
      <point x="150" y="357"/>
    </contour>
    <contour>
      <point x="168" y="0" type="curve"/>
      <point x="168" y="241"/>
      <point x="168" y="481"/>
      <point x="168" y="722" type="curve"/>
      <point x="110" y="722"/>
      <point x="168" y="722"/>
      <point x="110" y="722" type="curve"/>
      <point x="110" y="481"/>
      <point x="110" y="241"/>
      <point x="110" y="0" type="curve"/>
      <point x="168" y="0"/>
      <point x="110" y="0"/>
    </contour>
  </outline>
</glyph>
<glyph name="Q" format="1">
  <advance width="644"/>
  <unicode hex="0051"/>
  <outline>
    <contour>
      <point x="279" y="11" type="curve"/>
      <point x="344" y="-148"/>
      <point x="428" y="-232"/>
      <point x="587" y="-232" type="curve"/>
      <point x="587" y="-182"/>
      <point x="587" y="-232"/>
      <point x="587" y="-182" type="curve"/>
      <point x="452" y="-182"/>
      <point x="385" y="-104"/>
      <point x="329" y="34" type="curve"/>
      <point x="279" y="11"/>
      <point x="329" y="34"/>
    </contour>
    <contour>
      <point x="119" y="360" type="curve"/>
      <point x="119" y="529"/>
      <point x="150" y="676"/>
      <point x="296" y="676" type="curve"/>
      <point x="442" y="676"/>
      <point x="476" y="531"/>
      <point x="476" y="362" type="curve"/>
      <point x="476" y="193"/>
      <point x="447" y="45"/>
      <point x="301" y="45" type="curve"/>
      <point x="153" y="45"/>
      <point x="119" y="190"/>
      <point x="119" y="360" type="curve"/>
      <point x="62" y="360"/>
      <point x="119" y="360"/>
      <point x="62" y="360" type="curve"/>
      <point x="62" y="159"/>
      <point x="120" y="-5"/>
      <point x="298" y="-5" type="curve"/>
      <point x="477" y="-5"/>
      <point x="534" y="162"/>
      <point x="534" y="365" type="curve"/>
      <point x="534" y="565"/>
      <point x="477" y="728"/>
      <point x="300" y="728" type="curve"/>
      <point x="121" y="728"/>
      <point x="62" y="562"/>
      <point x="62" y="360" type="curve"/>
      <point x="119" y="360"/>
      <point x="62" y="360"/>
    </contour>
  </outline>
</glyph>
<glyph name="R" format="1">
  <advance width="502"/>
  <unicode hex="0052"/>
  <outline>
    <contour>
      <point x="254" y="354" type="curve"/>
      <point x="315" y="236"/>
      <point x="376" y="118"/>
      <point x="437" y="0" type="curve"/>
      <point x="499" y="0"/>
      <point x="436" y="0"/>
      <point x="499" y="0" type="curve"/>
      <point x="439" y="118"/>
      <point x="377" y="236"/>
      <point x="316" y="354" type="curve"/>
      <point x="254" y="354"/>
      <point x="317" y="354"/>
    </contour>
    <contour>
      <point x="168" y="0" type="curve"/>
      <point x="168" y="241"/>
      <point x="168" y="481"/>
      <point x="168" y="722" type="curve"/>
      <point x="110" y="722"/>
      <point x="168" y="722"/>
      <point x="110" y="722" type="curve"/>
      <point x="110" y="481"/>
      <point x="110" y="241"/>
      <point x="110" y="0" type="curve"/>
      <point x="168" y="0"/>
      <point x="110" y="0"/>
    </contour>
    <contour>
      <point x="141" y="328" type="curve"/>
      <point x="182" y="328"/>
      <point x="223" y="328"/>
      <point x="265" y="328" type="curve"/>
      <point x="380" y="328"/>
      <point x="439" y="408"/>
      <point x="439" y="532" type="curve"/>
      <point x="439" y="649"/>
      <point x="378" y="722"/>
      <point x="264" y="722" type="curve"/>
      <point x="220" y="722"/>
      <point x="184" y="722"/>
      <point x="141" y="722" type="curve"/>
      <point x="141" y="675"/>
      <point x="141" y="722"/>
      <point x="141" y="675" type="curve"/>
      <point x="181" y="675"/>
      <point x="213" y="675"/>
      <point x="254" y="675" type="curve"/>
      <point x="339" y="675"/>
      <point x="381" y="617"/>
      <point x="381" y="527" type="curve"/>
      <point x="381" y="439"/>
      <point x="347" y="375"/>
      <point x="266" y="375" type="curve"/>
      <point x="224" y="375"/>
      <point x="182" y="375"/>
      <point x="141" y="375" type="curve"/>
      <point x="141" y="328"/>
      <point x="141" y="375"/>
    </contour>
    <contour>
      <point x="232" y="812" type="move" name="top"/>
    </contour>
    <contour>
      <point x="309" y="-58" type="move" name="bottom"/>
    </contour>
  </outline>
</glyph>
<glyph name="S" format="1">
  <advance width="431"/>
  <unicode hex="0053"/>
  <outline>
    <contour>
      <point x="46" y="57" type="curve"/>
      <point x="86" y="21"/>
      <point x="134" y="-5"/>
      <point x="197" y="-5" type="curve"/>
      <point x="309" y="-5"/>
      <point x="379" y="63"/>
      <point x="379" y="176" type="curve"/>
      <point x="379" y="282"/>
      <point x="319" y="338"/>
      <point x="231" y="397" type="curve"/>
      <point x="163" y="441"/>
      <point x="113" y="483"/>
      <point x="113" y="556" type="curve"/>
      <point x="112" y="626"/>
      <point x="145" y="678"/>
      <point x="209" y="678" type="curve"/>
      <point x="256" y="678"/>
      <point x="299" y="649"/>
      <point x="323" y="625" type="curve"/>
      <point x="345" y="655"/>
      <point x="328" y="633"/>
      <point x="350" y="662" type="curve"/>
      <point x="310" y="700"/>
      <point x="269" y="723"/>
      <point x="210" y="723" type="curve"/>
      <point x="111" y="723"/>
      <point x="54" y="656"/>
      <point x="54" y="554" type="curve"/>
      <point x="54" y="457"/>
      <point x="112" y="407"/>
      <point x="194" y="353" type="curve"/>
      <point x="268" y="305"/>
      <point x="322" y="257"/>
      <point x="322" y="176" type="curve"/>
      <point x="322" y="103"/>
      <point x="272" y="44"/>
      <point x="200" y="44" type="curve"/>
      <point x="148" y="44"/>
      <point x="110" y="72"/>
      <point x="78" y="101" type="curve"/>
      <point x="52" y="65"/>
      <point x="72" y="92"/>
    </contour>
    <contour>
      <point x="212" y="812" type="move" name="top"/>
    </contour>
    <contour>
      <point x="216" y="-55" type="move" name="bottom"/>
    </contour>
  </outline>
</glyph>
<glyph name="T" format="1">
  <advance width="464"/>
  <unicode hex="0054"/>
  <outline>
    <contour>
      <point x="261" y="0" type="curve"/>
      <point x="261" y="237"/>
      <point x="261" y="473"/>
      <point x="261" y="710" type="curve"/>
      <point x="203" y="710"/>
      <point x="261" y="710"/>
      <point x="203" y="710" type="curve"/>
      <point x="203" y="473"/>
      <point x="203" y="237"/>
      <point x="203" y="0" type="curve"/>
      <point x="261" y="0"/>
      <point x="203" y="0"/>
    </contour>
    <contour>
      <point x="11" y="672" type="curve"/>
      <point x="158" y="672"/>
      <point x="306" y="672"/>
      <point x="453" y="672" type="curve"/>
      <point x="453" y="723"/>
      <point x="453" y="670"/>
      <point x="453" y="722" type="curve"/>
      <point x="306" y="722"/>
      <point x="158" y="722"/>
      <point x="11" y="722" type="curve"/>
      <point x="11" y="670"/>
      <point x="11" y="723"/>
    </contour>
    <contour>
      <point x="232" y="812" type="move" name="top"/>
    </contour>
    <contour>
      <point x="250" y="-57" type="move" name="bottom"/>
    </contour>
  </outline>
</glyph>
<glyph name="V" format="1">
  <advance width="491"/>
  <unicode hex="0056"/>
  <outline>
    <contour>
      <point x="417" y="722" type="curve"/>
      <point x="351" y="481"/>
      <point x="287" y="241"/>
      <point x="222" y="0" type="curve"/>
      <point x="283" y="0"/>
      <point x="218" y="0"/>
      <point x="278" y="0" type="curve"/>
      <point x="344" y="241"/>
      <point x="410" y="481"/>
      <point x="476" y="722" type="curve"/>
      <point x="417" y="722"/>
      <point x="476" y="722"/>
    </contour>
    <contour>
      <point x="12" y="722" type="curve"/>
      <point x="79" y="481"/>
      <point x="146" y="241"/>
      <point x="213" y="0" type="curve"/>
      <point x="274" y="0"/>
      <point x="210" y="0"/>
      <point x="270" y="0" type="curve"/>
      <point x="205" y="241"/>
      <point x="139" y="481"/>
      <point x="73" y="722" type="curve"/>
      <point x="12" y="722"/>
      <point x="73" y="722"/>
    </contour>
  </outline>
</glyph>
<glyph name="W" format="1">
  <advance width="651"/>
  <unicode hex="0057"/>
  <outline>
    <contour>
      <point x="211" y="0" type="curve"/>
      <point x="259" y="241"/>
      <point x="306" y="481"/>
      <point x="354" y="722" type="curve"/>
      <point x="304" y="722"/>
      <point x="355" y="722"/>
      <point x="304" y="722" type="curve"/>
      <point x="259" y="481"/>
      <point x="213" y="242"/>
      <point x="167" y="0" type="curve"/>
      <point x="213" y="0"/>
      <point x="165" y="0"/>
    </contour>
    <contour>
      <point x="310" y="722" type="curve"/>
      <point x="354" y="481"/>
      <point x="396" y="241"/>
      <point x="440" y="0" type="curve"/>
      <point x="485" y="0"/>
      <point x="436" y="0"/>
      <point x="482" y="0" type="curve"/>
      <point x="441" y="242"/>
      <point x="400" y="481"/>
      <point x="360" y="722" type="curve"/>
      <point x="309" y="722"/>
      <point x="360" y="722"/>
    </contour>
    <contour>
      <point x="30" y="722" type="curve"/>
      <point x="73" y="481"/>
      <point x="117" y="241"/>
      <point x="161" y="0" type="curve"/>
      <point x="207" y="0"/>
      <point x="162" y="0"/>
      <point x="208" y="0" type="curve"/>
      <point x="166" y="241"/>
      <point x="124" y="481"/>
      <point x="82" y="722" type="curve"/>
      <point x="30" y="722"/>
      <point x="82" y="722"/>
    </contour>
    <contour>
      <point x="573" y="722" type="curve"/>
      <point x="530" y="481"/>
      <point x="486" y="241"/>
      <point x="443" y="0" type="curve"/>
      <point x="489" y="0"/>
      <point x="444" y="0"/>
      <point x="490" y="0" type="curve"/>
      <point x="535" y="241"/>
      <point x="580" y="481"/>
      <point x="626" y="722" type="curve"/>
      <point x="573" y="722"/>
      <point x="626" y="722"/>
    </contour>
  </outline>
</glyph>
<glyph name="X" format="1">
  <advance width="447"/>
  <unicode hex="0058"/>
  <outline>
    <contour>
      <point x="363" y="722" type="curve"/>
      <point x="243" y="481"/>
      <point x="125" y="241"/>
      <point x="5" y="0" type="curve"/>
      <point x="67" y="0"/>
      <point x="5" y="0"/>
      <point x="67" y="0" type="curve"/>
      <point x="186" y="241"/>
      <point x="303" y="481"/>
      <point x="421" y="722" type="curve"/>
      <point x="363" y="722"/>
      <point x="421" y="722"/>
    </contour>
    <contour>
      <point x="27" y="722" type="curve"/>
      <point x="143" y="481"/>
      <point x="261" y="241"/>
      <point x="378" y="0" type="curve"/>
      <point x="439" y="0"/>
      <point x="378" y="0"/>
      <point x="439" y="0" type="curve"/>
      <point x="321" y="241"/>
      <point x="203" y="481"/>
      <point x="86" y="722" type="curve"/>
      <point x="27" y="722"/>
      <point x="86" y="722"/>
    </contour>
  </outline>
</glyph>
<glyph name="Y" format="1">
  <advance width="435"/>
  <unicode hex="0059"/>
  <outline>
    <contour>
      <point x="21" y="722" type="curve"/>
      <point x="77" y="594"/>
      <point x="132" y="466"/>
      <point x="188" y="337" type="curve"/>
      <point x="247" y="337"/>
      <point x="181" y="337"/>
      <point x="241" y="337" type="curve"/>
      <point x="188" y="466"/>
      <point x="135" y="593"/>
      <point x="81" y="722" type="curve"/>
      <point x="21" y="722"/>
      <point x="81" y="722"/>
    </contour>
    <contour>
      <point x="366" y="722" type="curve"/>
      <point x="308" y="593"/>
      <point x="253" y="466"/>
      <point x="194" y="337" type="curve"/>
      <point x="254" y="337"/>
      <point x="191" y="337"/>
      <point x="250" y="337" type="curve"/>
      <point x="309" y="466"/>
      <point x="367" y="594"/>
      <point x="426" y="722" type="curve"/>
      <point x="366" y="722"/>
      <point x="426" y="722"/>
    </contour>
    <contour>
      <point x="250" y="0" type="curve"/>
      <point x="250" y="115"/>
      <point x="250" y="228"/>
      <point x="250" y="343" type="curve"/>
      <point x="188" y="343"/>
      <point x="250" y="343"/>
      <point x="188" y="343" type="curve"/>
      <point x="188" y="228"/>
      <point x="188" y="115"/>
      <point x="188" y="0" type="curve"/>
      <point x="250" y="0"/>
      <point x="188" y="0"/>
    </contour>
    <contour>
      <point x="222" y="812" type="move" name="top"/>
    </contour>
  </outline>
</glyph>
<glyph name="bracketleft" format="1">
  <advance width="248"/>
  <unicode hex="005B"/>
  <outline>
    <contour>
      <point x="217" y="770" type="curve"/>
      <point x="182" y="770"/>
      <point x="145" y="770"/>
      <point x="108" y="770" type="curve"/>
      <point x="102" y="770"/>
      <point x="90" y="770"/>
      <point x="84" y="770" type="curve"/>
      <point x="84" y="764"/>
      <point x="84" y="757"/>
      <point x="84" y="751" type="curve"/>
      <point x="84" y="466"/>
      <point x="84" y="182"/>
      <point x="84" y="-103" type="curve"/>
      <point x="84" y="-109"/>
      <point x="84" y="-113"/>
      <point x="84" y="-121" type="curve"/>
      <point x="90" y="-121"/>
      <point x="102" y="-121"/>
      <point x="107" y="-121" type="curve"/>
      <point x="144" y="-121"/>
      <point x="181" y="-121"/>
      <point x="217" y="-121" type="curve"/>
      <point x="217" y="-69"/>
      <point x="217" y="-121"/>
      <point x="217" y="-69" type="curve"/>
      <point x="181" y="-69"/>
      <point x="144" y="-69"/>
      <point x="107" y="-69" type="curve"/>
      <point x="142" y="-69"/>
      <point x="107" y="-69"/>
      <point x="142" y="-69" type="curve"/>
      <point x="142" y="-103"/>
      <point x="142" y="-69"/>
      <point x="142" y="-103" type="curve"/>
      <point x="142" y="182"/>
      <point x="142" y="466"/>
      <point x="142" y="751" type="curve"/>
      <point x="142" y="719"/>
      <point x="142" y="751"/>
      <point x="142" y="719" type="curve"/>
      <point x="108" y="719"/>
      <point x="142" y="719"/>
      <point x="108" y="719" type="curve"/>
      <point x="145" y="719"/>
      <point x="182" y="719"/>
      <point x="217" y="719" type="curve"/>
      <point x="217" y="770"/>
      <point x="217" y="719"/>
    </contour>
  </outline>
</glyph>
<glyph name="backslash" format="1">
  <advance width="399"/>
  <unicode hex="005C"/>
  <outline>
    <contour>
      <point x="370" y="-68" type="curve"/>
      <point x="277" y="236"/>
      <point x="183" y="540"/>
      <point x="90" y="844" type="curve"/>
      <point x="29" y="844"/>
      <point x="90" y="844"/>
      <point x="29" y="844" type="curve"/>
      <point x="123" y="540"/>
      <point x="216" y="236"/>
      <point x="309" y="-68" type="curve"/>
      <point x="370" y="-68"/>
      <point x="309" y="-68"/>
    </contour>
  </outline>
</glyph>
<glyph name="bracketright" format="1">
  <advance width="249"/>
  <unicode hex="005D"/>
  <outline>
    <contour>
      <point x="31" y="719" type="curve"/>
      <point x="68" y="719"/>
      <point x="104" y="719"/>
      <point x="141" y="719" type="curve"/>
      <point x="135" y="725"/>
      <point x="127" y="726"/>
      <point x="122" y="733" type="curve"/>
      <point x="116" y="738"/>
      <point x="112" y="745"/>
      <point x="107" y="751" type="curve"/>
      <point x="107" y="466"/>
      <point x="106" y="182"/>
      <point x="107" y="-103" type="curve"/>
      <point x="112" y="-96"/>
      <point x="118" y="-90"/>
      <point x="124" y="-84" type="curve"/>
      <point x="128" y="-78"/>
      <point x="136" y="-76"/>
      <point x="141" y="-69" type="curve"/>
      <point x="104" y="-69"/>
      <point x="68" y="-69"/>
      <point x="31" y="-69" type="curve"/>
      <point x="31" y="-121"/>
      <point x="31" y="-69"/>
      <point x="31" y="-121" type="curve"/>
      <point x="68" y="-121"/>
      <point x="104" y="-121"/>
      <point x="141" y="-121" type="curve"/>
      <point x="165" y="-121"/>
      <point x="141" y="-121"/>
      <point x="165" y="-121" type="curve"/>
      <point x="165" y="-103"/>
      <point x="165" y="-121"/>
      <point x="165" y="-103" type="curve"/>
      <point x="164" y="182"/>
      <point x="165" y="466"/>
      <point x="165" y="751" type="curve"/>
      <point x="165" y="770"/>
      <point x="165" y="751"/>
      <point x="165" y="770" type="curve"/>
      <point x="141" y="770"/>
      <point x="165" y="770"/>
      <point x="141" y="770" type="curve"/>
      <point x="104" y="770"/>
      <point x="68" y="770"/>
      <point x="31" y="770" type="curve"/>
      <point x="31" y="719"/>
      <point x="31" y="770"/>
    </contour>
  </outline>
</glyph>
<glyph name="asciicircum" format="1">
  <advance width="413"/>
  <unicode hex="005E"/>
  <outline>
    <contour>
      <point x="110" y="462" type="curve"/>
      <point x="152" y="573"/>
      <point x="193" y="683"/>
      <point x="235" y="794" type="curve"/>
      <point x="177" y="794"/>
      <point x="235" y="794"/>
      <point x="177" y="794" type="curve"/>
      <point x="135" y="683"/>
      <point x="94" y="573"/>
      <point x="52" y="462" type="curve"/>
      <point x="110" y="462"/>
      <point x="52" y="462"/>
    </contour>
    <contour>
      <point x="361" y="462" type="curve"/>
      <point x="320" y="570"/>
      <point x="275" y="686"/>
      <point x="235" y="794" type="curve"/>
      <point x="177" y="794"/>
      <point x="235" y="794"/>
      <point x="177" y="794" type="curve"/>
      <point x="218" y="686"/>
      <point x="262" y="570"/>
      <point x="303" y="462" type="curve"/>
      <point x="361" y="462"/>
      <point x="303" y="462"/>
    </contour>
  </outline>
</glyph>
<glyph name="b" format="1">
  <advance width="510"/>
  <unicode hex="0062"/>
  <outline>
    <contour>
      <point x="138" y="389" type="curve"/>
      <point x="155" y="431"/>
      <point x="204" y="490"/>
      <point x="270" y="490" type="curve"/>
      <point x="367" y="490"/>
      <point x="395" y="384"/>
      <point x="395" y="267" type="curve"/>
      <point x="396" y="154"/>
      <point x="361" y="43"/>
      <point x="270" y="43" type="curve"/>
      <point x="214" y="43"/>
      <point x="169" y="87"/>
      <point x="141" y="144" type="curve"/>
      <point x="109" y="121"/>
      <point x="144" y="141"/>
      <point x="111" y="117" type="curve"/>
      <point x="145" y="48"/>
      <point x="197" y="-5"/>
      <point x="274" y="-5" type="curve"/>
      <point x="403" y="-5"/>
      <point x="453" y="119"/>
      <point x="453" y="269" type="curve"/>
      <point x="453" y="415"/>
      <point x="405" y="538"/>
      <point x="275" y="538" type="curve"/>
      <point x="191" y="538"/>
      <point x="135" y="475"/>
      <point x="112" y="420" type="curve"/>
      <point x="138" y="394"/>
      <point x="112" y="415"/>
    </contour>
    <contour>
      <point x="151" y="0" type="curve"/>
      <point x="151" y="267"/>
      <point x="151" y="533"/>
      <point x="151" y="800" type="curve"/>
      <point x="93" y="800"/>
      <point x="151" y="800"/>
      <point x="93" y="800" type="curve"/>
      <point x="93" y="533"/>
      <point x="93" y="267"/>
      <point x="93" y="0" type="curve"/>
      <point x="151" y="0"/>
      <point x="93" y="0"/>
    </contour>
  </outline>
</glyph>
<glyph name="f" format="1">
  <advance width="326"/>
  <unicode hex="0066"/>
  <outline>
    <contour>
      <point x="22" y="486" type="curve"/>
      <point x="302" y="486" type="line"/>
      <point x="302" y="533"/>
      <point x="302" y="486"/>
      <point x="302" y="533" type="curve"/>
      <point x="22" y="533" type="line"/>
      <point x="22" y="486"/>
      <point x="22" y="533"/>
    </contour>
    <contour>
      <point x="183" y="0" type="curve"/>
      <point x="183" y="630" type="line"/>
      <point x="183" y="700"/>
      <point x="197" y="760"/>
      <point x="255" y="760" type="curve"/>
      <point x="278" y="760"/>
      <point x="298" y="750"/>
      <point x="317" y="738" type="curve"/>
      <point x="340" y="775"/>
      <point x="317" y="738"/>
      <point x="340" y="775" type="curve"/>
      <point x="315" y="792"/>
      <point x="285" y="805"/>
      <point x="255" y="805" type="curve"/>
      <point x="166" y="805"/>
      <point x="125" y="727"/>
      <point x="126" y="630" type="curve"/>
      <point x="126" y="0" type="line"/>
      <point x="183" y="0"/>
      <point x="126" y="0"/>
    </contour>
  </outline>
</glyph>
<glyph name="g" format="1">
  <advance width="403"/>
  <unicode hex="0067"/>
  <outline>
    <contour>
      <point x="280" y="479" type="curve"/>
      <point x="387" y="553" type="line"/>
      <point x="377" y="567"/>
      <point x="371" y="582"/>
      <point x="361" y="595" type="curve"/>
      <point x="249" y="516" type="line"/>
      <point x="280" y="479"/>
      <point x="249" y="516"/>
    </contour>
    <contour>
      <point x="104" y="352" type="curve"/>
      <point x="104" y="426"/>
      <point x="133" y="492"/>
      <point x="200" y="492" type="curve"/>
      <point x="268" y="492"/>
      <point x="294" y="428"/>
      <point x="294" y="353" type="curve"/>
      <point x="294" y="284"/>
      <point x="266" y="221"/>
      <point x="200" y="221" type="curve"/>
      <point x="135" y="221"/>
      <point x="104" y="280"/>
      <point x="104" y="352" type="curve"/>
      <point x="46" y="349"/>
      <point x="104" y="352"/>
      <point x="46" y="349" type="curve"/>
      <point x="46" y="250"/>
      <point x="101" y="175"/>
      <point x="196" y="175" type="curve"/>
      <point x="294" y="175"/>
      <point x="351" y="252"/>
      <point x="351" y="355" type="curve"/>
      <point x="351" y="458"/>
      <point x="298" y="538"/>
      <point x="200" y="538" type="curve"/>
      <point x="99" y="538"/>
      <point x="46" y="456"/>
      <point x="46" y="349" type="curve"/>
      <point x="104" y="352"/>
      <point x="46" y="349"/>
    </contour>
    <contour>
      <point x="113" y="233" type="curve"/>
      <point x="72" y="201"/>
      <point x="49" y="163"/>
      <point x="49" y="110" type="curve"/>
      <point x="49" y="32"/>
      <point x="110" y="-10"/>
      <point x="191" y="-19" type="curve"/>
      <point x="271" y="-28"/>
      <point x="336" y="-61"/>
      <point x="336" y="-137" type="curve"/>
      <point x="336" y="-212"/>
      <point x="277" y="-258"/>
      <point x="198" y="-258" type="curve"/>
      <point x="122" y="-258"/>
      <point x="72" y="-203"/>
      <point x="72" y="-126" type="curve"/>
      <point x="72" y="-67"/>
      <point x="92" y="-19"/>
      <point x="141" y="9" type="curve"/>
      <point x="113" y="38"/>
      <point x="141" y="9"/>
      <point x="113" y="38" type="curve"/>
      <point x="48" y="2"/>
      <point x="14" y="-52"/>
      <point x="14" y="-128" type="curve"/>
      <point x="14" y="-234"/>
      <point x="87" y="-304"/>
      <point x="195" y="-304" type="curve"/>
      <point x="306" y="-304"/>
      <point x="390" y="-241"/>
      <point x="389" y="-132" type="curve"/>
      <point x="389" y="-33"/>
      <point x="306" y="14"/>
      <point x="202" y="26" type="curve"/>
      <point x="147" y="31"/>
      <point x="107" y="62"/>
      <point x="107" y="115" type="curve"/>
      <point x="107" y="152"/>
      <point x="116" y="179"/>
      <point x="144" y="203" type="curve"/>
      <point x="113" y="233"/>
      <point x="144" y="203"/>
    </contour>
    <contour>
      <point x="199" y="654" type="move" name="top"/>
    </contour>
  </outline>
</glyph>
<glyph name="h" format="1">
  <advance width="503"/>
  <unicode hex="0068"/>
  <outline>
    <contour>
      <point x="137" y="338" type="curve"/>
      <point x="152" y="408"/>
      <point x="199" y="490"/>
      <point x="269" y="490" type="curve"/>
      <point x="347" y="490"/>
      <point x="359" y="419"/>
      <point x="359" y="332" type="curve"/>
      <point x="359" y="221"/>
      <point x="359" y="111"/>
      <point x="359" y="0" type="curve"/>
      <point x="417" y="0"/>
      <point x="359" y="0"/>
      <point x="417" y="0" type="curve"/>
      <point x="417" y="112"/>
      <point x="417" y="224"/>
      <point x="417" y="337" type="curve"/>
      <point x="417" y="451"/>
      <point x="388" y="537"/>
      <point x="283" y="537" type="curve"/>
      <point x="196" y="537"/>
      <point x="133" y="453"/>
      <point x="119" y="366" type="curve"/>
      <point x="140" y="340"/>
      <point x="117" y="364"/>
    </contour>
    <contour>
      <point x="151" y="0" type="curve"/>
      <point x="151" y="267"/>
      <point x="151" y="533"/>
      <point x="151" y="800" type="curve"/>
      <point x="93" y="800"/>
      <point x="151" y="800"/>
      <point x="93" y="800" type="curve"/>
      <point x="93" y="533"/>
      <point x="93" y="267"/>
      <point x="93" y="0" type="curve"/>
      <point x="151" y="0"/>
      <point x="93" y="0"/>
    </contour>
  </outline>
</glyph>
<glyph name="i" format="1">
  <advance width="249"/>
  <unicode hex="0069"/>
  <outline>
    <contour>
      <point x="155" y="0" type="curve"/>
      <point x="155" y="178"/>
      <point x="155" y="355"/>
      <point x="155" y="533" type="curve"/>
      <point x="94" y="533"/>
      <point x="155" y="533"/>
      <point x="94" y="533" type="curve"/>
      <point x="94" y="355"/>
      <point x="94" y="178"/>
      <point x="94" y="0" type="curve"/>
      <point x="155" y="0"/>
      <point x="94" y="0"/>
    </contour>
    <contour>
      <point x="157" y="684" type="curve"/>
      <point x="157" y="707"/>
      <point x="143" y="718"/>
      <point x="122" y="718" type="curve"/>
      <point x="101" y="718"/>
      <point x="88" y="705"/>
      <point x="88" y="684" type="curve"/>
      <point x="157" y="684"/>
      <point x="88" y="684"/>
      <point x="157" y="684" type="curve"/>
      <point x="157" y="662"/>
      <point x="143" y="651"/>
      <point x="122" y="651" type="curve"/>
      <point x="100" y="651"/>
      <point x="88" y="663"/>
      <point x="88" y="684" type="curve"/>
      <point x="157" y="684"/>
      <point x="88" y="684"/>
    </contour>
    <contour>
      <point x="122" y="654" type="move" name="top"/>
    </contour>
    <contour>
      <point x="152" y="1" type="move" name="bottom"/>
    </contour>
  </outline>
</glyph>
<glyph name="j" format="1">
  <advance width="217"/>
  <unicode hex="006A"/>
  <outline>
    <contour>
      <point x="-15" y="-302" type="curve"/>
      <point x="-8" y="-303"/>
      <point x="0" y="-304"/>
      <point x="9" y="-304" type="curve"/>
      <point x="95" y="-304"/>
      <point x="144" y="-228"/>
      <point x="144" y="-136" type="curve"/>
      <point x="144" y="87"/>
      <point x="144" y="310"/>
      <point x="144" y="533" type="curve"/>
      <point x="86" y="533"/>
      <point x="144" y="533"/>
      <point x="86" y="533" type="curve"/>
      <point x="86" y="310"/>
      <point x="86" y="87"/>
      <point x="86" y="-136" type="curve"/>
      <point x="86" y="-194"/>
      <point x="64" y="-256"/>
      <point x="11" y="-256" type="curve"/>
      <point x="6" y="-256"/>
      <point x="-1" y="-255"/>
      <point x="-6" y="-254" type="curve"/>
      <point x="-14" y="-299"/>
      <point x="-6" y="-257"/>
    </contour>
    <contour>
      <point x="150" y="683" type="curve"/>
      <point x="150" y="705"/>
      <point x="135" y="717"/>
      <point x="115" y="717" type="curve"/>
      <point x="93" y="717"/>
      <point x="81" y="704"/>
      <point x="81" y="683" type="curve"/>
      <point x="150" y="683"/>
      <point x="81" y="683"/>
      <point x="150" y="683" type="curve"/>
      <point x="150" y="660"/>
      <point x="136" y="650"/>
      <point x="115" y="650" type="curve"/>
      <point x="93" y="650"/>
      <point x="81" y="661"/>
      <point x="81" y="683" type="curve"/>
      <point x="150" y="683"/>
      <point x="81" y="683"/>
    </contour>
  </outline>
</glyph>
<glyph name="k" format="1">
  <advance width="436"/>
  <unicode hex="006B"/>
  <outline>
    <contour>
      <point x="151" y="0" type="curve"/>
      <point x="151" y="800" type="line"/>
      <point x="93" y="800"/>
      <point x="151" y="800"/>
      <point x="93" y="800" type="curve"/>
      <point x="93" y="533"/>
      <point x="93" y="267"/>
      <point x="93" y="0" type="curve"/>
      <point x="151" y="0"/>
      <point x="93" y="0"/>
    </contour>
    <contour>
      <point x="323" y="533" type="curve"/>
      <point x="135" y="275" type="line"/>
      <point x="199" y="275"/>
      <point x="137" y="275"/>
      <point x="201" y="275" type="curve"/>
      <point x="393" y="533" type="line"/>
      <point x="334" y="533"/>
      <point x="382" y="533"/>
    </contour>
    <contour>
      <point x="411" y="0" type="curve"/>
      <point x="201" y="275" type="line"/>
      <point x="137" y="275"/>
      <point x="199" y="275"/>
      <point x="135" y="275" type="curve"/>
      <point x="342" y="0" type="line"/>
      <point x="398" y="0"/>
      <point x="355" y="0"/>
    </contour>
    <contour>
      <point x="291" y="-57" type="move" name="bottom"/>
    </contour>
  </outline>
</glyph>
<glyph name="m" format="1">
  <advance width="712"/>
  <unicode hex="006D"/>
  <outline>
    <contour>
      <point x="375" y="331" type="curve"/>
      <point x="396" y="408"/>
      <point x="425" y="490"/>
      <point x="491" y="490" type="curve"/>
      <point x="570" y="490"/>
      <point x="567" y="423"/>
      <point x="567" y="332" type="curve"/>
      <point x="567" y="221"/>
      <point x="567" y="111"/>
      <point x="567" y="0" type="curve"/>
      <point x="625" y="0"/>
      <point x="567" y="0"/>
      <point x="625" y="0" type="curve"/>
      <point x="625" y="112"/>
      <point x="625" y="224"/>
      <point x="625" y="337" type="curve"/>
      <point x="625" y="456"/>
      <point x="616" y="538"/>
      <point x="508" y="538" type="curve"/>
      <point x="419" y="538"/>
      <point x="376" y="454"/>
      <point x="356" y="357" type="curve"/>
      <point x="376" y="331"/>
      <point x="355" y="356"/>
    </contour>
    <contour>
      <point x="138" y="331" type="curve"/>
      <point x="156" y="406"/>
      <point x="185" y="491"/>
      <point x="253" y="491" type="curve"/>
      <point x="332" y="491"/>
      <point x="331" y="423"/>
      <point x="331" y="332" type="curve"/>
      <point x="331" y="221"/>
      <point x="331" y="111"/>
      <point x="331" y="0" type="curve"/>
      <point x="388" y="0"/>
      <point x="331" y="0"/>
      <point x="388" y="0" type="curve"/>
      <point x="388" y="112"/>
      <point x="388" y="224"/>
      <point x="388" y="337" type="curve"/>
      <point x="388" y="456"/>
      <point x="379" y="539"/>
      <point x="272" y="539" type="curve"/>
      <point x="180" y="539"/>
      <point x="140" y="455"/>
      <point x="119" y="357" type="curve"/>
      <point x="140" y="331"/>
      <point x="118" y="356"/>
    </contour>
    <contour>
      <point x="151" y="0" type="curve"/>
      <point x="151" y="178"/>
      <point x="151" y="355"/>
      <point x="151" y="533" type="curve"/>
      <point x="93" y="533"/>
      <point x="151" y="533"/>
      <point x="93" y="533" type="curve"/>
      <point x="93" y="355"/>
      <point x="93" y="178"/>
      <point x="93" y="0" type="curve"/>
      <point x="151" y="0"/>
      <point x="93" y="0"/>
    </contour>
  </outline>
</glyph>
<glyph name="p" format="1">
  <advance width="514"/>
  <unicode hex="0070"/>
  <outline>
    <contour>
      <point x="138" y="374" type="curve"/>
      <point x="154" y="426"/>
      <point x="207" y="491"/>
      <point x="271" y="491" type="curve"/>
      <point x="376" y="491"/>
      <point x="400" y="388"/>
      <point x="400" y="272" type="curve"/>
      <point x="402" y="150"/>
      <point x="374" y="42"/>
      <point x="271" y="42" type="curve"/>
      <point x="210" y="42"/>
      <point x="171" y="82"/>
      <point x="141" y="133" type="curve"/>
      <point x="115" y="108"/>
      <point x="141" y="133"/>
      <point x="115" y="108" type="curve"/>
      <point x="153" y="39"/>
      <point x="203" y="-5"/>
      <point x="280" y="-5" type="curve"/>
      <point x="420" y="-5"/>
      <point x="458" y="125"/>
      <point x="458" y="275" type="curve"/>
      <point x="458" y="416"/>
      <point x="417" y="538"/>
      <point x="281" y="538" type="curve"/>
      <point x="200" y="538"/>
      <point x="144" y="475"/>
      <point x="119" y="416" type="curve"/>
      <point x="140" y="376"/>
      <point x="117" y="414"/>
    </contour>
    <contour>
      <point x="151" y="-300" type="curve"/>
      <point x="151" y="-22"/>
      <point x="151" y="255"/>
      <point x="151" y="533" type="curve"/>
      <point x="93" y="533"/>
      <point x="151" y="533"/>
      <point x="93" y="533" type="curve"/>
      <point x="93" y="255"/>
      <point x="93" y="-22"/>
      <point x="93" y="-300" type="curve"/>
      <point x="151" y="-300"/>
      <point x="93" y="-300"/>
    </contour>
  </outline>
</glyph>
<glyph name="q" format="1">
  <advance width="515"/>
  <unicode hex="0071"/>
  <outline>
    <contour>
      <point x="396" y="423" type="curve"/>
      <point x="365" y="496"/>
      <point x="301" y="538"/>
      <point x="233" y="538" type="curve"/>
      <point x="96" y="538"/>
      <point x="57" y="410"/>
      <point x="57" y="264" type="curve"/>
      <point x="58" y="119"/>
      <point x="102" y="-6"/>
      <point x="238" y="-6" type="curve"/>
      <point x="310" y="-6"/>
      <point x="368" y="54"/>
      <point x="396" y="122" type="curve"/>
      <point x="374" y="148"/>
      <point x="397" y="125"/>
      <point x="375" y="152" type="curve"/>
      <point x="352" y="93"/>
      <point x="303" y="41"/>
      <point x="244" y="41" type="curve"/>
      <point x="141" y="41"/>
      <point x="115" y="148"/>
      <point x="115" y="267" type="curve"/>
      <point x="115" y="383"/>
      <point x="141" y="490"/>
      <point x="242" y="490" type="curve"/>
      <point x="295" y="490"/>
      <point x="346" y="457"/>
      <point x="378" y="392" type="curve"/>
      <point x="394" y="420"/>
      <point x="380" y="395"/>
    </contour>
    <contour>
      <point x="421" y="-300" type="curve"/>
      <point x="421" y="-22"/>
      <point x="421" y="255"/>
      <point x="421" y="533" type="curve"/>
      <point x="361" y="533"/>
      <point x="421" y="533"/>
      <point x="361" y="533" type="curve"/>
      <point x="361" y="255"/>
      <point x="361" y="-22"/>
      <point x="361" y="-300" type="curve"/>
      <point x="421" y="-300"/>
      <point x="361" y="-300"/>
    </contour>
  </outline>
</glyph>
<glyph name="r" format="1">
  <advance width="316"/>
  <unicode hex="0072"/>
  <outline>
    <contour>
      <point x="151" y="0" type="curve"/>
      <point x="151" y="178"/>
      <point x="151" y="355"/>
      <point x="151" y="533" type="curve"/>
      <point x="93" y="533"/>
      <point x="151" y="533"/>
      <point x="93" y="533" type="curve"/>
      <point x="93" y="355"/>
      <point x="93" y="178"/>
      <point x="93" y="0" type="curve"/>
      <point x="151" y="0"/>
      <point x="93" y="0"/>
    </contour>
    <contour>
      <point x="138" y="346" type="curve"/>
      <point x="158" y="440"/>
      <point x="228" y="490"/>
      <point x="303" y="490" type="curve"/>
      <point x="303" y="542"/>
      <point x="303" y="486"/>
      <point x="303" y="538" type="curve"/>
      <point x="214" y="538"/>
      <point x="140" y="473"/>
      <point x="115" y="378" type="curve"/>
      <point x="138" y="353"/>
      <point x="119" y="369"/>
    </contour>
    <contour>
      <point x="127" y="654" type="move" name="top"/>
    </contour>
    <contour>
      <point x="141" y="-57" type="move" name="bottom"/>
    </contour>
  </outline>
</glyph>
<glyph name="v" format="1">
  <advance width="421"/>
  <unicode hex="0076"/>
  <outline>
    <contour>
      <point x="27" y="533" type="curve"/>
      <point x="77" y="355"/>
      <point x="127" y="178"/>
      <point x="176" y="0" type="curve"/>
      <point x="231" y="0"/>
      <point x="176" y="0"/>
      <point x="231" y="0" type="curve"/>
      <point x="182" y="178"/>
      <point x="136" y="355"/>
      <point x="88" y="533" type="curve"/>
      <point x="27" y="533"/>
      <point x="88" y="533"/>
    </contour>
    <contour>
      <point x="340" y="533" type="curve"/>
      <point x="188" y="0" type="line"/>
      <point x="244" y="0"/>
      <point x="188" y="0"/>
      <point x="244" y="0" type="curve"/>
      <point x="296" y="178"/>
      <point x="348" y="355"/>
      <point x="400" y="533" type="curve"/>
      <point x="340" y="533"/>
      <point x="400" y="533"/>
    </contour>
  </outline>
</glyph>
<glyph name="w" format="1">
  <advance width="651"/>
  <unicode hex="0077"/>
  <outline>
    <contour>
      <point x="211" y="0" type="curve"/>
      <point x="260" y="178"/>
      <point x="308" y="355"/>
      <point x="357" y="533" type="curve"/>
      <point x="303" y="533"/>
      <point x="357" y="533"/>
      <point x="303" y="533" type="curve"/>
      <point x="255" y="355"/>
      <point x="208" y="178"/>
      <point x="160" y="0" type="curve"/>
      <point x="211" y="0"/>
      <point x="160" y="0"/>
    </contour>
    <contour>
      <point x="572" y="533" type="curve"/>
      <point x="528" y="355"/>
      <point x="483" y="178"/>
      <point x="439" y="0" type="curve"/>
      <point x="490" y="0"/>
      <point x="439" y="0"/>
      <point x="490" y="0" type="curve"/>
      <point x="535" y="178"/>
      <point x="581" y="355"/>
      <point x="626" y="533" type="curve"/>
      <point x="572" y="533"/>
      <point x="626" y="533"/>
    </contour>
    <contour>
      <point x="308" y="533" type="curve"/>
      <point x="351" y="355"/>
      <point x="394" y="178"/>
      <point x="438" y="0" type="curve"/>
      <point x="489" y="0"/>
      <point x="438" y="0"/>
      <point x="489" y="0" type="curve"/>
      <point x="446" y="178"/>
      <point x="403" y="355"/>
      <point x="360" y="533" type="curve"/>
      <point x="308" y="533"/>
      <point x="360" y="533"/>
    </contour>
    <contour>
      <point x="29" y="533" type="curve"/>
      <point x="73" y="355"/>
      <point x="117" y="178"/>
      <point x="160" y="0" type="curve"/>
      <point x="210" y="0"/>
      <point x="160" y="0"/>
      <point x="210" y="0" type="curve"/>
      <point x="167" y="178"/>
      <point x="125" y="355"/>
      <point x="82" y="533" type="curve"/>
      <point x="29" y="533"/>
      <point x="82" y="533"/>
    </contour>
  </outline>
</glyph>
<glyph name="x" format="1">
  <advance width="411"/>
  <unicode hex="0078"/>
  <outline>
    <contour>
      <point x="395" y="0" type="curve"/>
      <point x="325" y="128"/>
      <point x="157" y="405"/>
      <point x="86" y="533" type="curve"/>
      <point x="25" y="533"/>
      <point x="86" y="533"/>
      <point x="25" y="533" type="curve"/>
      <point x="95" y="405"/>
      <point x="263" y="128"/>
      <point x="331" y="0" type="curve"/>
      <point x="395" y="0"/>
      <point x="331" y="0"/>
    </contour>
    <contour>
      <point x="327" y="533" type="curve"/>
      <point x="256" y="405"/>
      <point x="85" y="128"/>
      <point x="15" y="0" type="curve"/>
      <point x="78" y="0"/>
      <point x="15" y="0"/>
      <point x="78" y="0" type="curve"/>
      <point x="148" y="128"/>
      <point x="317" y="405"/>
      <point x="387" y="533" type="curve"/>
      <point x="327" y="533"/>
      <point x="387" y="533"/>
    </contour>
  </outline>
</glyph>
<glyph name="braceleft" format="1">
  <advance width="214"/>
  <unicode hex="007B"/>
  <outline>
    <contour>
      <point x="184" y="-73" type="curve"/>
      <point x="132" y="-73"/>
      <point x="127" y="-21"/>
      <point x="127" y="37" type="curve"/>
      <point x="127" y="94"/>
      <point x="127" y="151"/>
      <point x="127" y="208" type="curve"/>
      <point x="127" y="294"/>
      <point x="97" y="364"/>
      <point x="18" y="364" type="curve"/>
      <point x="18" y="315"/>
      <point x="18" y="364"/>
      <point x="18" y="315" type="curve"/>
      <point x="66" y="315"/>
      <point x="75" y="267"/>
      <point x="75" y="212" type="curve"/>
      <point x="75" y="155"/>
      <point x="75" y="97"/>
      <point x="75" y="40" type="curve"/>
      <point x="75" y="-50"/>
      <point x="104" y="-119"/>
      <point x="184" y="-119" type="curve"/>
      <point x="184" y="-73"/>
      <point x="184" y="-119"/>
    </contour>
    <contour>
      <point x="184" y="797" type="curve"/>
      <point x="104" y="797"/>
      <point x="75" y="729"/>
      <point x="75" y="640" type="curve"/>
      <point x="75" y="581"/>
      <point x="75" y="523"/>
      <point x="75" y="464" type="curve"/>
      <point x="75" y="409"/>
      <point x="66" y="364"/>
      <point x="18" y="364" type="curve"/>
      <point x="18" y="315"/>
      <point x="18" y="364"/>
      <point x="18" y="315" type="curve"/>
      <point x="97" y="315"/>
      <point x="127" y="383"/>
      <point x="127" y="471" type="curve"/>
      <point x="127" y="527"/>
      <point x="127" y="583"/>
      <point x="127" y="640" type="curve"/>
      <point x="127" y="699"/>
      <point x="132" y="750"/>
      <point x="184" y="750" type="curve"/>
      <point x="184" y="797"/>
      <point x="184" y="750"/>
    </contour>
  </outline>
</glyph>
<glyph name="braceright" format="1">
  <advance width="215"/>
  <unicode hex="007D"/>
  <outline>
    <contour>
      <point x="30" y="-119" type="curve"/>
      <point x="111" y="-119"/>
      <point x="140" y="-50"/>
      <point x="140" y="40" type="curve"/>
      <point x="140" y="97"/>
      <point x="140" y="155"/>
      <point x="140" y="212" type="curve"/>
      <point x="140" y="267"/>
      <point x="148" y="315"/>
      <point x="195" y="315" type="curve"/>
      <point x="195" y="364"/>
      <point x="195" y="315"/>
      <point x="195" y="364" type="curve"/>
      <point x="117" y="364"/>
      <point x="87" y="294"/>
      <point x="87" y="208" type="curve"/>
      <point x="87" y="151"/>
      <point x="87" y="94"/>
      <point x="87" y="37" type="curve"/>
      <point x="87" y="-21"/>
      <point x="82" y="-73"/>
      <point x="30" y="-73" type="curve"/>
      <point x="30" y="-119"/>
      <point x="30" y="-73"/>
    </contour>
    <contour>
      <point x="30" y="750" type="curve"/>
      <point x="82" y="750"/>
      <point x="87" y="699"/>
      <point x="87" y="640" type="curve"/>
      <point x="87" y="583"/>
      <point x="87" y="527"/>
      <point x="87" y="471" type="curve"/>
      <point x="87" y="383"/>
      <point x="117" y="315"/>
      <point x="195" y="315" type="curve"/>
      <point x="195" y="364"/>
      <point x="195" y="315"/>
      <point x="195" y="364" type="curve"/>
      <point x="149" y="364"/>
      <point x="140" y="409"/>
      <point x="140" y="464" type="curve"/>
      <point x="140" y="523"/>
      <point x="140" y="581"/>
      <point x="140" y="640" type="curve"/>
      <point x="140" y="729"/>
      <point x="111" y="797"/>
      <point x="30" y="797" type="curve"/>
      <point x="30" y="750"/>
      <point x="30" y="797"/>
    </contour>
  </outline>
</glyph>
<glyph name="asciitilde" format="1">
  <advance width="551"/>
  <unicode hex="007E"/>
  <outline>
    <contour>
      <point x="424" y="354" type="curve"/>
      <point x="413" y="312"/>
      <point x="404" y="261"/>
      <point x="362" y="261" type="curve"/>
      <point x="332" y="261"/>
      <point x="315" y="277"/>
      <point x="295" y="301" type="curve"/>
      <point x="265" y="336"/>
      <point x="240" y="359"/>
      <point x="194" y="359" type="curve"/>
      <point x="119" y="359"/>
      <point x="94" y="305"/>
      <point x="80" y="229" type="curve"/>
      <point x="107" y="221"/>
      <point x="99" y="222"/>
      <point x="127" y="214" type="curve"/>
      <point x="136" y="263"/>
      <point x="147" y="309"/>
      <point x="192" y="309" type="curve"/>
      <point x="221" y="309"/>
      <point x="235" y="294"/>
      <point x="254" y="272" type="curve"/>
      <point x="286" y="235"/>
      <point x="313" y="212"/>
      <point x="362" y="212" type="curve"/>
      <point x="435" y="212"/>
      <point x="453" y="270"/>
      <point x="471" y="341" type="curve"/>
      <point x="444" y="348"/>
      <point x="452" y="347"/>
    </contour>
  </outline>
</glyph>
<glyph name="exclamdown" format="1">
  <advance width="242"/>
  <unicode hex="00A1"/>
  <outline>
    <contour>
      <point x="93" y="297" type="line"/>
      <point x="87" y="-196" type="line"/>
      <point x="156" y="-197" type="line"/>
      <point x="151" y="296" type="line"/>
    </contour>
    <contour>
      <point x="88" y="500" type="curve"/>
      <point x="88" y="478"/>
      <point x="102" y="467"/>
      <point x="122" y="467" type="curve"/>
      <point x="142" y="467"/>
      <point x="155" y="479"/>
      <point x="155" y="499" type="curve"/>
      <point x="88" y="500"/>
      <point x="155" y="499"/>
      <point x="88" y="500" type="curve"/>
      <point x="88" y="521"/>
      <point x="102" y="532"/>
      <point x="122" y="532" type="curve"/>
      <point x="143" y="532"/>
      <point x="155" y="520"/>
      <point x="155" y="499" type="curve"/>
      <point x="88" y="500"/>
      <point x="155" y="499"/>
    </contour>
  </outline>
</glyph>
<glyph name="cent" format="1">
  <advance width="496"/>
  <unicode hex="00A2"/>
  <outline>
    <contour>
      <point x="289" y="-53" type="curve"/>
      <point x="289" y="-13"/>
      <point x="289" y="27"/>
      <point x="289" y="67" type="curve"/>
      <point x="231" y="67"/>
      <point x="289" y="67"/>
      <point x="231" y="67" type="curve"/>
      <point x="231" y="27"/>
      <point x="231" y="-13"/>
      <point x="231" y="-53" type="curve"/>
      <point x="289" y="-53"/>
      <point x="231" y="-53"/>
    </contour>
    <contour>
      <point x="246" y="778" type="curve"/>
      <point x="246" y="742"/>
      <point x="246" y="706"/>
      <point x="246" y="670" type="curve"/>
      <point x="304" y="670"/>
      <point x="246" y="670"/>
      <point x="304" y="670" type="curve"/>
      <point x="304" y="706"/>
      <point x="304" y="742"/>
      <point x="304" y="778" type="curve"/>
      <point x="246" y="778"/>
      <point x="304" y="778"/>
    </contour>
    <contour>
      <point x="443" y="605" type="curve"/>
      <point x="393" y="658"/>
      <point x="347" y="681"/>
      <point x="280" y="681" type="curve"/>
      <point x="119" y="681"/>
      <point x="52" y="544"/>
      <point x="52" y="365" type="curve"/>
      <point x="52" y="191"/>
      <point x="102" y="51"/>
      <point x="257" y="51" type="curve"/>
      <point x="336" y="51"/>
      <point x="389" y="84"/>
      <point x="442" y="148" type="curve"/>
      <point x="405" y="182"/>
      <point x="442" y="148"/>
      <point x="405" y="182" type="curve"/>
      <point x="364" y="134"/>
      <point x="326" y="100"/>
      <point x="262" y="100" type="curve"/>
      <point x="141" y="100"/>
      <point x="110" y="223"/>
      <point x="110" y="368" type="curve"/>
      <point x="110" y="513"/>
      <point x="154" y="632"/>
      <point x="275" y="632" type="curve"/>
      <point x="332" y="632"/>
      <point x="370" y="610"/>
      <point x="409" y="570" type="curve"/>
      <point x="443" y="605"/>
      <point x="409" y="570"/>
    </contour>
  </outline>
</glyph>
<glyph name="sterling" format="1">
  <advance width="399"/>
  <unicode hex="00A3"/>
  <outline>
    <contour>
      <point x="331" y="47" type="curve"/>
      <point x="233" y="47"/>
      <point x="137" y="47"/>
      <point x="41" y="47" type="curve"/>
      <point x="41" y="0"/>
      <point x="41" y="47"/>
      <point x="41" y="0" type="curve"/>
      <point x="137" y="0"/>
      <point x="235" y="0"/>
      <point x="331" y="0" type="curve"/>
      <point x="331" y="47"/>
      <point x="331" y="0"/>
    </contour>
    <contour>
      <point x="295" y="400" type="curve"/>
      <point x="219" y="400"/>
      <point x="139" y="400"/>
      <point x="63" y="400" type="curve"/>
      <point x="63" y="353"/>
      <point x="63" y="400"/>
      <point x="63" y="353" type="curve"/>
      <point x="139" y="353"/>
      <point x="219" y="353"/>
      <point x="295" y="353" type="curve"/>
      <point x="295" y="400"/>
      <point x="295" y="353"/>
    </contour>
    <contour>
      <point x="347" y="672" type="curve"/>
      <point x="314" y="708"/>
      <point x="286" y="724"/>
      <point x="242" y="724" type="curve"/>
      <point x="92" y="724"/>
      <point x="89" y="560"/>
      <point x="118" y="371" type="curve"/>
      <point x="143" y="205"/>
      <point x="163" y="47"/>
      <point x="41" y="47" type="curve"/>
      <point x="41" y="0"/>
      <point x="41" y="47"/>
      <point x="41" y="0" type="curve"/>
      <point x="208" y="0"/>
      <point x="200" y="180"/>
      <point x="171" y="381" type="curve"/>
      <point x="149" y="534"/>
      <point x="136" y="678"/>
      <point x="238" y="678" type="curve"/>
      <point x="273" y="678"/>
      <point x="294" y="661"/>
      <point x="316" y="639" type="curve"/>
      <point x="347" y="672"/>
      <point x="316" y="639"/>
    </contour>
  </outline>
</glyph>
<glyph name="currency" format="1">
  <advance width="565"/>
  <unicode hex="00A4"/>
  <outline>
    <contour>
      <point x="204" y="312" type="curve"/>
      <point x="204" y="381"/>
      <point x="221" y="442"/>
      <point x="282" y="442" type="curve"/>
      <point x="344" y="442"/>
      <point x="359" y="383"/>
      <point x="359" y="312" type="curve"/>
      <point x="359" y="240"/>
      <point x="347" y="176"/>
      <point x="285" y="176" type="curve"/>
      <point x="220" y="176"/>
      <point x="204" y="238"/>
      <point x="204" y="312" type="curve"/>
      <point x="146" y="312"/>
      <point x="206" y="312"/>
      <point x="149" y="312" type="curve"/>
      <point x="149" y="208"/>
      <point x="189" y="130"/>
      <point x="284" y="130" type="curve"/>
      <point x="378" y="130"/>
      <point x="416" y="211"/>
      <point x="416" y="314" type="curve"/>
      <point x="416" y="412"/>
      <point x="377" y="488"/>
      <point x="287" y="488" type="curve"/>
      <point x="192" y="488"/>
      <point x="149" y="413"/>
      <point x="149" y="312" type="curve"/>
      <point x="206" y="312"/>
      <point x="146" y="312"/>
    </contour>
    <contour>
      <point x="357" y="404" type="line"/>
      <point x="500" y="540" type="line"/>
      <point x="456" y="584" type="line"/>
      <point x="321" y="441" type="line"/>
    </contour>
    <contour>
      <point x="324" y="184" type="line"/>
      <point x="459" y="41" type="line"/>
      <point x="503" y="85" type="line"/>
      <point x="360" y="220" type="line"/>
    </contour>
    <contour>
      <point x="204" y="221" type="line"/>
      <point x="62" y="85" type="line"/>
      <point x="105" y="42" type="line"/>
      <point x="241" y="184" type="line"/>
    </contour>
    <contour>
      <point x="246" y="442" type="line"/>
      <point x="111" y="585" type="line"/>
      <point x="67" y="541" type="line"/>
      <point x="209" y="405" type="line"/>
    </contour>
  </outline>
</glyph>
<glyph name="yen" format="1">
  <advance width="488"/>
  <unicode hex="00A5"/>
  <outline>
    <contour>
      <point x="406" y="385" type="curve"/>
      <point x="356" y="385"/>
      <point x="305" y="385"/>
      <point x="256" y="385" type="curve"/>
      <point x="256" y="333"/>
      <point x="256" y="385"/>
      <point x="256" y="333" type="curve"/>
      <point x="305" y="333"/>
      <point x="356" y="333"/>
      <point x="406" y="333" type="curve"/>
      <point x="406" y="385"/>
      <point x="406" y="333"/>
    </contour>
    <contour>
      <point x="235" y="385" type="curve"/>
      <point x="185" y="385"/>
      <point x="136" y="385"/>
      <point x="87" y="385" type="curve"/>
      <point x="87" y="333"/>
      <point x="87" y="385"/>
      <point x="87" y="333" type="curve"/>
      <point x="136" y="333"/>
      <point x="185" y="333"/>
      <point x="235" y="333" type="curve"/>
      <point x="235" y="385"/>
      <point x="235" y="333"/>
    </contour>
    <contour>
      <point x="406" y="259" type="curve"/>
      <point x="299" y="259"/>
      <point x="193" y="259"/>
      <point x="87" y="259" type="curve"/>
      <point x="87" y="207"/>
      <point x="87" y="259"/>
      <point x="87" y="207" type="curve"/>
      <point x="193" y="207"/>
      <point x="299" y="207"/>
      <point x="406" y="207" type="curve"/>
      <point x="406" y="259"/>
      <point x="406" y="207"/>
    </contour>
    <contour>
      <point x="44" y="722" type="curve"/>
      <point x="100" y="594"/>
      <point x="155" y="466"/>
      <point x="211" y="337" type="curve"/>
      <point x="271" y="337"/>
      <point x="205" y="337"/>
      <point x="264" y="337" type="curve"/>
      <point x="211" y="466"/>
      <point x="158" y="593"/>
      <point x="105" y="722" type="curve"/>
      <point x="44" y="722"/>
      <point x="105" y="722"/>
    </contour>
    <contour>
      <point x="389" y="722" type="curve"/>
      <point x="332" y="593"/>
      <point x="276" y="466"/>
      <point x="217" y="337" type="curve"/>
      <point x="277" y="337"/>
      <point x="214" y="337"/>
      <point x="274" y="337" type="curve"/>
      <point x="333" y="466"/>
      <point x="391" y="594"/>
      <point x="450" y="722" type="curve"/>
      <point x="389" y="722"/>
      <point x="450" y="722"/>
    </contour>
    <contour>
      <point x="274" y="0" type="curve"/>
      <point x="274" y="115"/>
      <point x="274" y="228"/>
      <point x="274" y="343" type="curve"/>
      <point x="211" y="343"/>
      <point x="274" y="343"/>
      <point x="211" y="343" type="curve"/>
      <point x="211" y="228"/>
      <point x="211" y="115"/>
      <point x="211" y="0" type="curve"/>
      <point x="274" y="0"/>
      <point x="211" y="0"/>
    </contour>
  </outline>
</glyph>
<glyph name="section" format="1">
  <advance width="402"/>
  <unicode hex="00A7"/>
  <outline>
    <contour>
      <point x="317" y="706" type="curve"/>
      <point x="279" y="735"/>
      <point x="250" y="751"/>
      <point x="204" y="751" type="curve"/>
      <point x="125" y="751"/>
      <point x="82" y="696"/>
      <point x="82" y="618" type="curve"/>
      <point x="82" y="547"/>
      <point x="116" y="499"/>
      <point x="180" y="468" type="curve"/>
      <point x="238" y="441"/>
      <point x="291" y="421"/>
      <point x="291" y="361" type="curve"/>
      <point x="291" y="302"/>
      <point x="268" y="259"/>
      <point x="211" y="243" type="curve"/>
      <point x="245" y="206"/>
      <point x="211" y="243"/>
      <point x="245" y="206" type="curve"/>
      <point x="318" y="229"/>
      <point x="349" y="284"/>
      <point x="349" y="361" type="curve"/>
      <point x="348" y="443"/>
      <point x="287" y="479"/>
      <point x="209" y="512" type="curve"/>
      <point x="164" y="534"/>
      <point x="137" y="567"/>
      <point x="137" y="618" type="curve"/>
      <point x="137" y="665"/>
      <point x="156" y="704"/>
      <point x="203" y="704" type="curve"/>
      <point x="240" y="704"/>
      <point x="261" y="690"/>
      <point x="289" y="670" type="curve"/>
      <point x="317" y="706"/>
      <point x="289" y="670"/>
    </contour>
    <contour>
      <point x="158" y="517" type="curve"/>
      <point x="90" y="489"/>
      <point x="58" y="440"/>
      <point x="58" y="367" type="curve"/>
      <point x="58" y="287"/>
      <point x="109" y="245"/>
      <point x="184" y="213" type="curve"/>
      <point x="233" y="189"/>
      <point x="272" y="163"/>
      <point x="272" y="109" type="curve"/>
      <point x="272" y="58"/>
      <point x="250" y="18"/>
      <point x="203" y="18" type="curve"/>
      <point x="160" y="18"/>
      <point x="136" y="37"/>
      <point x="106" y="66" type="curve"/>
      <point x="72" y="32"/>
      <point x="106" y="66"/>
      <point x="72" y="32" type="curve"/>
      <point x="112" y="-9"/>
      <point x="148" y="-29"/>
      <point x="202" y="-29" type="curve"/>
      <point x="282" y="-29"/>
      <point x="328" y="26"/>
      <point x="328" y="109" type="curve"/>
      <point x="327" y="182"/>
      <point x="288" y="227"/>
      <point x="221" y="257" type="curve"/>
      <point x="164" y="283"/>
      <point x="115" y="308"/>
      <point x="115" y="367" type="curve"/>
      <point x="115" y="421"/>
      <point x="136" y="461"/>
      <point x="186" y="482" type="curve"/>
      <point x="158" y="517"/>
      <point x="186" y="482"/>
    </contour>
  </outline>
</glyph>
<glyph name="dieresis" format="1">
  <advance width="379"/>
  <unicode hex="00A8"/>
  <outline>
    <contour>
      <point x="151" y="669" type="curve"/>
      <point x="151" y="691"/>
      <point x="137" y="702"/>
      <point x="117" y="702" type="curve"/>
      <point x="96" y="702"/>
      <point x="84" y="689"/>
      <point x="84" y="669" type="curve"/>
      <point x="151" y="669"/>
      <point x="84" y="669"/>
      <point x="151" y="669" type="curve"/>
      <point x="151" y="648"/>
      <point x="137" y="637"/>
      <point x="117" y="637" type="curve"/>
      <point x="96" y="637"/>
      <point x="84" y="648"/>
      <point x="84" y="669" type="curve"/>
      <point x="151" y="669"/>
      <point x="84" y="669"/>
    </contour>
    <contour>
      <point x="268" y="669" type="curve"/>
      <point x="268" y="691"/>
      <point x="254" y="702"/>
      <point x="234" y="702" type="curve"/>
      <point x="213" y="702"/>
      <point x="201" y="689"/>
      <point x="201" y="669" type="curve"/>
      <point x="268" y="669"/>
      <point x="201" y="669"/>
      <point x="268" y="669" type="curve"/>
      <point x="268" y="648"/>
      <point x="254" y="637"/>
      <point x="234" y="637" type="curve"/>
      <point x="213" y="637"/>
      <point x="201" y="648"/>
      <point x="201" y="669" type="curve"/>
      <point x="268" y="669"/>
      <point x="201" y="669"/>
    </contour>
    <contour>
      <point x="176" y="641" type="move" name="_top"/>
    </contour>
  </outline>
</glyph>
<glyph name="copyright" format="1">
  <advance width="608"/>
  <unicode hex="00A9"/>
  <outline>
    <contour>
      <point x="112" y="320" type="curve"/>
      <point x="112" y="474"/>
      <point x="169" y="605"/>
      <point x="306" y="605" type="curve"/>
      <point x="441" y="605"/>
      <point x="496" y="473"/>
      <point x="496" y="319" type="curve"/>
      <point x="496" y="170"/>
      <point x="444" y="39"/>
      <point x="311" y="39" type="curve"/>
      <point x="175" y="39"/>
      <point x="112" y="167"/>
      <point x="112" y="320" type="curve"/>
      <point x="62" y="320"/>
      <point x="113" y="320"/>
      <point x="62" y="320" type="curve"/>
      <point x="62" y="143"/>
      <point x="146" y="-2"/>
      <point x="309" y="-2" type="curve"/>
      <point x="469" y="-2"/>
      <point x="544" y="145"/>
      <point x="544" y="321" type="curve"/>
      <point x="544" y="499"/>
      <point x="467" y="646"/>
      <point x="306" y="646" type="curve"/>
      <point x="143" y="646"/>
      <point x="62" y="499"/>
      <point x="62" y="320" type="curve"/>
      <point x="113" y="320"/>
      <point x="62" y="320"/>
    </contour>
    <contour>
      <point x="406" y="456" type="curve"/>
      <point x="378" y="488"/>
      <point x="350" y="501"/>
      <point x="311" y="501" type="curve"/>
      <point x="218" y="501"/>
      <point x="180" y="422"/>
      <point x="180" y="320" type="curve"/>
      <point x="180" y="220"/>
      <point x="212" y="144"/>
      <point x="301" y="144" type="curve"/>
      <point x="347" y="144"/>
      <point x="379" y="157"/>
      <point x="410" y="197" type="curve"/>
      <point x="379" y="221"/>
      <point x="410" y="197"/>
      <point x="379" y="221" type="curve"/>
      <point x="357" y="198"/>
      <point x="336" y="185"/>
      <point x="303" y="185" type="curve"/>
      <point x="239" y="185"/>
      <point x="227" y="248"/>
      <point x="227" y="322" type="curve"/>
      <point x="227" y="397"/>
      <point x="243" y="460"/>
      <point x="309" y="460" type="curve"/>
      <point x="334" y="460"/>
      <point x="354" y="452"/>
      <point x="373" y="433" type="curve"/>
      <point x="408" y="457"/>
      <point x="371" y="433"/>
    </contour>
  </outline>
</glyph>
<glyph name="ordfeminine" format="1">
  <advance width="344"/>
  <unicode hex="00AA"/>
  <outline>
    <contour>
      <point x="263" y="428" type="curve"/>
      <point x="263" y="517"/>
      <point x="263" y="587"/>
      <point x="263" y="676" type="curve"/>
      <point x="263" y="734"/>
      <point x="226" y="767"/>
      <point x="168" y="767" type="curve"/>
      <point x="126" y="767"/>
      <point x="99" y="748"/>
      <point x="74" y="719" type="curve"/>
      <point x="87" y="698"/>
      <point x="81" y="711"/>
      <point x="94" y="689" type="curve"/>
      <point x="111" y="709"/>
      <point x="130" y="730"/>
      <point x="163" y="730" type="curve"/>
      <point x="199" y="730"/>
      <point x="220" y="706"/>
      <point x="220" y="668" type="curve"/>
      <point x="220" y="581"/>
      <point x="220" y="515"/>
      <point x="220" y="428" type="curve"/>
      <point x="253" y="428"/>
      <point x="231" y="428"/>
    </contour>
    <contour>
      <point x="240" y="637" type="curve"/>
      <point x="208" y="631"/>
      <point x="186" y="628"/>
      <point x="153" y="622" type="curve"/>
      <point x="97" y="612"/>
      <point x="60" y="581"/>
      <point x="60" y="523" type="curve"/>
      <point x="60" y="465"/>
      <point x="91" y="427"/>
      <point x="149" y="427" type="curve"/>
      <point x="202" y="427"/>
      <point x="225" y="468"/>
      <point x="253" y="512" type="curve"/>
      <point x="237" y="526"/>
      <point x="247" y="518"/>
      <point x="231" y="532" type="curve"/>
      <point x="213" y="495"/>
      <point x="198" y="463"/>
      <point x="159" y="463" type="curve"/>
      <point x="121" y="463"/>
      <point x="102" y="488"/>
      <point x="102" y="525" type="curve"/>
      <point x="102" y="560"/>
      <point x="123" y="584"/>
      <point x="154" y="590" type="curve"/>
      <point x="187" y="596"/>
      <point x="208" y="600"/>
      <point x="242" y="606" type="curve"/>
      <point x="241" y="628"/>
      <point x="242" y="615"/>
    </contour>
  </outline>
</glyph>
<glyph name="guillemotleft" format="1">
  <advance width="464"/>
  <unicode hex="00AB"/>
  <outline>
    <contour>
      <point x="223" y="425" type="curve"/>
      <point x="211" y="415"/>
      <point x="59" y="318"/>
      <point x="47" y="308" type="curve"/>
      <point x="47" y="256"/>
      <point x="47" y="302"/>
      <point x="47" y="250" type="curve"/>
      <point x="59" y="260"/>
      <point x="211" y="361"/>
      <point x="223" y="371" type="curve"/>
      <point x="223" y="422"/>
      <point x="223" y="374"/>
    </contour>
    <contour>
      <point x="223" y="188" type="curve"/>
      <point x="211" y="198"/>
      <point x="59" y="298"/>
      <point x="47" y="308" type="curve"/>
      <point x="47" y="256"/>
      <point x="47" y="302"/>
      <point x="47" y="250" type="curve"/>
      <point x="59" y="241"/>
      <point x="211" y="144"/>
      <point x="223" y="135" type="curve"/>
      <point x="223" y="185"/>
      <point x="223" y="137"/>
    </contour>
    <contour>
      <point x="388" y="425" type="curve"/>
      <point x="376" y="415"/>
      <point x="224" y="318"/>
      <point x="212" y="308" type="curve"/>
      <point x="212" y="256"/>
      <point x="212" y="302"/>
      <point x="212" y="250" type="curve"/>
      <point x="224" y="260"/>
      <point x="376" y="361"/>
      <point x="388" y="371" type="curve"/>
      <point x="388" y="422"/>
      <point x="388" y="374"/>
    </contour>
    <contour>
      <point x="389" y="188" type="curve"/>
      <point x="377" y="198"/>
      <point x="224" y="298"/>
      <point x="212" y="308" type="curve"/>
      <point x="212" y="256"/>
      <point x="212" y="302"/>
      <point x="212" y="250" type="curve"/>
      <point x="224" y="241"/>
      <point x="377" y="144"/>
      <point x="389" y="135" type="curve"/>
      <point x="389" y="185"/>
      <point x="389" y="137"/>
    </contour>
  </outline>
</glyph>
<glyph name="logicalnot" format="1">
  <advance width="586"/>
  <unicode hex="00AC"/>
  <outline>
    <contour>
      <point x="83" y="285" type="curve"/>
      <point x="500" y="285" type="line"/>
      <point x="500" y="337"/>
      <point x="500" y="285"/>
      <point x="500" y="337" type="curve"/>
      <point x="83" y="337" type="line"/>
      <point x="83" y="285"/>
      <point x="83" y="337"/>
    </contour>
    <contour>
      <point x="500" y="149" type="curve"/>
      <point x="500" y="337" type="line"/>
      <point x="443" y="337"/>
      <point x="501" y="337"/>
      <point x="443" y="337" type="curve"/>
      <point x="443" y="149" type="line"/>
      <point x="501" y="149"/>
      <point x="443" y="149"/>
    </contour>
  </outline>
</glyph>
<glyph name="registered" format="1">
  <advance width="615"/>
  <unicode hex="00AE"/>
  <outline>
    <contour>
      <point x="109" y="320" type="curve"/>
      <point x="109" y="478"/>
      <point x="168" y="608"/>
      <point x="311" y="608" type="curve"/>
      <point x="451" y="608"/>
      <point x="508" y="476"/>
      <point x="508" y="319" type="curve"/>
      <point x="508" y="165"/>
      <point x="453" y="35"/>
      <point x="315" y="35" type="curve"/>
      <point x="174" y="35"/>
      <point x="109" y="162"/>
      <point x="109" y="320" type="curve"/>
      <point x="81" y="320"/>
      <point x="92" y="320"/>
      <point x="64" y="320" type="curve"/>
      <point x="64" y="140"/>
      <point x="147" y="-2"/>
      <point x="313" y="-2" type="curve"/>
      <point x="477" y="-2"/>
      <point x="551" y="142"/>
      <point x="551" y="320" type="curve"/>
      <point x="551" y="501"/>
      <point x="475" y="645"/>
      <point x="311" y="645" type="curve"/>
      <point x="144" y="645"/>
      <point x="64" y="501"/>
      <point x="64" y="320" type="curve"/>
      <point x="92" y="320"/>
      <point x="81" y="320"/>
    </contour>
    <contour>
      <point x="302" y="312" type="curve"/>
      <point x="317" y="274"/>
      <point x="354" y="185"/>
      <point x="369" y="147" type="curve"/>
      <point x="395" y="147"/>
      <point x="387" y="147"/>
      <point x="415" y="147" type="curve"/>
      <point x="400" y="184"/>
      <point x="363" y="271"/>
      <point x="347" y="311" type="curve"/>
      <point x="293" y="310"/>
      <point x="356" y="313"/>
    </contour>
    <contour>
      <point x="278" y="147" type="curve"/>
      <point x="278" y="255"/>
      <point x="278" y="387"/>
      <point x="278" y="496" type="curve"/>
      <point x="247" y="496"/>
      <point x="263" y="496"/>
      <point x="231" y="496" type="curve"/>
      <point x="231" y="388"/>
      <point x="231" y="254"/>
      <point x="231" y="147" type="curve"/>
      <point x="263" y="147"/>
      <point x="241" y="147"/>
    </contour>
    <contour>
      <point x="257" y="288" type="curve"/>
      <point x="271" y="288"/>
      <point x="286" y="288"/>
      <point x="300" y="288" type="curve"/>
      <point x="364" y="288"/>
      <point x="400" y="324"/>
      <point x="400" y="392" type="curve"/>
      <point x="400" y="453"/>
      <point x="369" y="496"/>
      <point x="311" y="496" type="curve"/>
      <point x="301" y="496"/>
      <point x="259" y="496"/>
      <point x="249" y="496" type="curve"/>
      <point x="231" y="466"/>
      <point x="281" y="496"/>
      <point x="231" y="455" type="curve"/>
      <point x="254" y="455"/>
      <point x="278" y="455"/>
      <point x="302" y="455" type="curve"/>
      <point x="337" y="455"/>
      <point x="355" y="428"/>
      <point x="355" y="389" type="curve"/>
      <point x="355" y="352"/>
      <point x="340" y="328"/>
      <point x="307" y="328" type="curve"/>
      <point x="290" y="328"/>
      <point x="273" y="328"/>
      <point x="257" y="328" type="curve"/>
      <point x="257" y="288"/>
      <point x="257" y="328"/>
    </contour>
  </outline>
</glyph>
<glyph name="macron" format="1">
  <advance width="266"/>
  <unicode hex="00AF"/>
  <outline>
    <contour>
      <point x="197" y="681" type="curve"/>
      <point x="144" y="681"/>
      <point x="90" y="681"/>
      <point x="37" y="681" type="curve"/>
      <point x="37" y="635"/>
      <point x="37" y="681"/>
      <point x="37" y="635" type="curve"/>
      <point x="90" y="635"/>
      <point x="144" y="635"/>
      <point x="197" y="635" type="curve"/>
      <point x="197" y="681"/>
      <point x="197" y="635"/>
    </contour>
    <contour>
      <point x="118" y="635" type="move" name="_top"/>
    </contour>
  </outline>
</glyph>
<glyph name="degree" format="1">
  <advance width="387"/>
  <unicode hex="00B0"/>
  <outline>
    <contour>
      <point x="326" y="486" type="curve"/>
      <point x="326" y="595"/>
      <point x="292" y="682"/>
      <point x="193" y="682" type="curve"/>
      <point x="95" y="682"/>
      <point x="63" y="596"/>
      <point x="63" y="487" type="curve"/>
      <point x="91" y="487"/>
      <point x="83" y="487"/>
      <point x="112" y="487" type="curve"/>
      <point x="112" y="568"/>
      <point x="121" y="638"/>
      <point x="191" y="638" type="curve"/>
      <point x="262" y="638"/>
      <point x="275" y="568"/>
      <point x="275" y="486" type="curve"/>
      <point x="275" y="401"/>
      <point x="266" y="329"/>
      <point x="194" y="329" type="curve"/>
      <point x="121" y="329"/>
      <point x="112" y="403"/>
      <point x="112" y="487" type="curve"/>
      <point x="83" y="487"/>
      <point x="91" y="487"/>
      <point x="63" y="487" type="curve"/>
      <point x="63" y="374"/>
      <point x="93" y="285"/>
      <point x="193" y="285" type="curve"/>
      <point x="294" y="285"/>
      <point x="326" y="374"/>
    </contour>
  </outline>
</glyph>
<glyph name="plusminus" format="1">
  <advance width="621"/>
  <unicode hex="00B1"/>
  <outline>
    <contour>
      <point x="64" y="28" type="line"/>
      <point x="557" y="28" type="line"/>
      <point x="557" y="80" type="line"/>
      <point x="64" y="80" type="line"/>
    </contour>
    <contour>
      <point x="64" y="285" type="curve"/>
      <point x="557" y="285" type="line"/>
      <point x="557" y="337"/>
      <point x="557" y="285"/>
      <point x="557" y="337" type="curve"/>
      <point x="64" y="337" type="line"/>
      <point x="64" y="285"/>
      <point x="64" y="337"/>
    </contour>
    <contour>
      <point x="338" y="29" type="curve"/>
      <point x="338" y="585" type="line"/>
      <point x="280" y="585"/>
      <point x="341" y="585"/>
      <point x="283" y="585" type="curve"/>
      <point x="283" y="29" type="line"/>
      <point x="341" y="29"/>
      <point x="280" y="29"/>
    </contour>
  </outline>
</glyph>
<glyph name="twosuperior" format="1">
  <advance width="373"/>
  <unicode hex="00B2"/>
  <outline>
    <contour>
      <point x="58" y="313" type="curve"/>
      <point x="140" y="313"/>
      <point x="229" y="313"/>
      <point x="306" y="313" type="curve"/>
      <point x="306" y="334"/>
      <point x="306" y="332"/>
      <point x="306" y="354" type="curve"/>
      <point x="226" y="354"/>
      <point x="138" y="354"/>
      <point x="58" y="354" type="curve"/>
      <point x="58" y="313"/>
      <point x="58" y="354"/>
    </contour>
    <contour>
      <point x="117" y="624" type="curve"/>
      <point x="130" y="661"/>
      <point x="145" y="692"/>
      <point x="185" y="692" type="curve"/>
      <point x="228" y="692"/>
      <point x="246" y="655"/>
      <point x="246" y="607" type="curve"/>
      <point x="246" y="562"/>
      <point x="224" y="534"/>
      <point x="195" y="500" type="curve"/>
      <point x="150" y="451"/>
      <point x="104" y="402"/>
      <point x="58" y="354" type="curve"/>
      <point x="66" y="313"/>
      <point x="58" y="354"/>
      <point x="66" y="313" type="curve"/>
      <point x="119" y="365"/>
      <point x="178" y="416"/>
      <point x="227" y="468" type="curve"/>
      <point x="265" y="513"/>
      <point x="293" y="549"/>
      <point x="293" y="609" type="curve"/>
      <point x="293" y="681"/>
      <point x="255" y="733"/>
      <point x="187" y="733" type="curve"/>
      <point x="131" y="733"/>
      <point x="97" y="701"/>
      <point x="79" y="639" type="curve"/>
      <point x="117" y="624"/>
      <point x="79" y="639"/>
    </contour>
    <contour>
      <point x="197" y="733" type="move" name="_top"/>
    </contour>
    <contour>
      <point x="174" y="313" type="move" name="_bottom"/>
    </contour>
  </outline>
</glyph>
<glyph name="threesuperior" format="1">
  <advance width="336"/>
  <unicode hex="00B3"/>
  <outline>
    <contour>
      <point x="94" y="652" type="curve"/>
      <point x="109" y="672"/>
      <point x="126" y="691"/>
      <point x="153" y="691" type="curve"/>
      <point x="194" y="691"/>
      <point x="215" y="661"/>
      <point x="215" y="618" type="curve"/>
      <point x="215" y="572"/>
      <point x="173" y="545"/>
      <point x="123" y="541" type="curve"/>
      <point x="123" y="506"/>
      <point x="123" y="541"/>
      <point x="123" y="506" type="curve"/>
      <point x="203" y="509"/>
      <point x="265" y="547"/>
      <point x="265" y="621" type="curve"/>
      <point x="265" y="689"/>
      <point x="225" y="732"/>
      <point x="158" y="732" type="curve"/>
      <point x="118" y="732"/>
      <point x="84" y="708"/>
      <point x="63" y="677" type="curve"/>
      <point x="94" y="652"/>
      <point x="63" y="677"/>
    </contour>
    <contour>
      <point x="60" y="342" type="curve"/>
      <point x="86" y="320"/>
      <point x="114" y="308"/>
      <point x="147" y="308" type="curve"/>
      <point x="226" y="305"/>
      <point x="277" y="349"/>
      <point x="276" y="426" type="curve"/>
      <point x="276" y="503"/>
      <point x="207" y="530"/>
      <point x="123" y="533" type="curve"/>
      <point x="123" y="503"/>
      <point x="123" y="533"/>
      <point x="123" y="503" type="curve"/>
      <point x="182" y="499"/>
      <point x="226" y="473"/>
      <point x="226" y="424" type="curve"/>
      <point x="225" y="377"/>
      <point x="198" y="346"/>
      <point x="152" y="348" type="curve"/>
      <point x="127" y="348"/>
      <point x="105" y="357"/>
      <point x="85" y="372" type="curve"/>
      <point x="60" y="342"/>
      <point x="85" y="372"/>
    </contour>
    <contour>
      <point x="176" y="732" type="move" name="_top"/>
    </contour>
    <contour>
      <point x="164" y="308" type="move" name="_bottom"/>
    </contour>
  </outline>
</glyph>
<glyph name="paragraph" format="1">
  <advance width="595"/>
  <unicode hex="00B6"/>
  <outline>
    <contour>
      <point x="329" y="675" type="curve"/>
      <point x="462" y="675"/>
      <point x="329" y="675"/>
      <point x="462" y="675" type="curve"/>
      <point x="462" y="722"/>
      <point x="462" y="675"/>
      <point x="462" y="722" type="curve"/>
      <point x="417" y="722"/>
      <point x="373" y="722"/>
      <point x="329" y="722" type="curve"/>
      <point x="329" y="675"/>
      <point x="329" y="722"/>
    </contour>
    <contour>
      <point x="318" y="358" type="curve"/>
      <point x="284" y="334"/>
      <point x="257" y="318"/>
      <point x="215" y="318" type="curve"/>
      <point x="133" y="318"/>
      <point x="99" y="394"/>
      <point x="99" y="488" type="curve"/>
      <point x="99" y="592"/>
      <point x="144" y="675"/>
      <point x="240" y="675" type="curve"/>
      <point x="269" y="675"/>
      <point x="298" y="675"/>
      <point x="326" y="675" type="curve"/>
      <point x="326" y="722"/>
      <point x="326" y="675"/>
      <point x="326" y="722" type="curve"/>
      <point x="295" y="722"/>
      <point x="264" y="722"/>
      <point x="232" y="722" type="curve"/>
      <point x="108" y="722"/>
      <point x="41" y="622"/>
      <point x="41" y="490" type="curve"/>
      <point x="41" y="361"/>
      <point x="102" y="274"/>
      <point x="220" y="272" type="curve"/>
      <point x="265" y="272"/>
      <point x="302" y="292"/>
      <point x="337" y="317" type="curve"/>
      <point x="318" y="357"/>
      <point x="336" y="319"/>
    </contour>
    <contour>
      <point x="358" y="0" type="curve"/>
      <point x="358" y="241"/>
      <point x="358" y="481"/>
      <point x="358" y="722" type="curve"/>
      <point x="301" y="722"/>
      <point x="358" y="722"/>
      <point x="301" y="722" type="curve"/>
      <point x="301" y="481"/>
      <point x="301" y="241"/>
      <point x="301" y="0" type="curve"/>
      <point x="358" y="0"/>
      <point x="301" y="0"/>
    </contour>
    <contour>
      <point x="506" y="0" type="curve"/>
      <point x="506" y="241"/>
      <point x="506" y="481"/>
      <point x="506" y="722" type="curve"/>
      <point x="449" y="722"/>
      <point x="506" y="722"/>
      <point x="449" y="722" type="curve"/>
      <point x="449" y="481"/>
      <point x="449" y="241"/>
      <point x="449" y="0" type="curve"/>
      <point x="506" y="0"/>
      <point x="449" y="0"/>
    </contour>
  </outline>
</glyph>
<glyph name="periodcentered" format="1">
  <advance width="211"/>
  <unicode hex="00B7"/>
  <outline>
    <contour>
      <point x="139" y="440" type="curve"/>
      <point x="139" y="461"/>
      <point x="125" y="473"/>
      <point x="105" y="473" type="curve"/>
      <point x="84" y="473"/>
      <point x="72" y="460"/>
      <point x="72" y="440" type="curve"/>
      <point x="139" y="440"/>
      <point x="72" y="440"/>
      <point x="139" y="440" type="curve"/>
      <point x="139" y="418"/>
      <point x="125" y="408"/>
      <point x="105" y="408" type="curve"/>
      <point x="84" y="408"/>
      <point x="72" y="419"/>
      <point x="72" y="440" type="curve"/>
      <point x="139" y="440"/>
      <point x="72" y="440"/>
    </contour>
  </outline>
</glyph>
<glyph name="cedilla" format="1">
  <advance width="271"/>
  <unicode hex="00B8"/>
  <outline>
    <contour>
      <point x="138" y="59" type="curve"/>
      <point x="127" y="34"/>
      <point x="109" y="-13"/>
      <point x="99" y="-38" type="curve"/>
      <point x="139" y="-75"/>
      <point x="99" y="-38"/>
      <point x="139" y="-75" type="curve"/>
      <point x="149" y="-48"/>
      <point x="171" y="0"/>
      <point x="182" y="27" type="curve"/>
      <point x="138" y="59"/>
      <point x="182" y="27"/>
    </contour>
    <contour>
      <point x="139" y="-75" type="curve"/>
      <point x="146" y="-68"/>
      <point x="153" y="-64"/>
      <point x="164" y="-64" type="curve"/>
      <point x="185" y="-64"/>
      <point x="191" y="-83"/>
      <point x="191" y="-108" type="curve"/>
      <point x="191" y="-135"/>
      <point x="178" y="-152"/>
      <point x="153" y="-152" type="curve"/>
      <point x="134" y="-152"/>
      <point x="120" y="-148"/>
      <point x="105" y="-136" type="curve"/>
      <point x="83" y="-171"/>
      <point x="105" y="-136"/>
      <point x="83" y="-171" type="curve"/>
      <point x="103" y="-187"/>
      <point x="123" y="-195"/>
      <point x="150" y="-195" type="curve"/>
      <point x="202" y="-195"/>
      <point x="233" y="-161"/>
      <point x="233" y="-107" type="curve"/>
      <point x="233" y="-56"/>
      <point x="208" y="-19"/>
      <point x="161" y="-19" type="curve"/>
      <point x="136" y="-19"/>
      <point x="119" y="-24"/>
      <point x="99" y="-38" type="curve"/>
      <point x="139" y="-75"/>
      <point x="99" y="-38"/>
    </contour>
    <contour>
      <point x="180" y="27" type="move" name="_bottom"/>
    </contour>
  </outline>
</glyph>
<glyph name="onesuperior" format="1">
  <advance width="254"/>
  <unicode hex="00B9"/>
  <outline>
    <contour>
      <point x="57" y="589" type="line"/>
      <point x="168" y="717" type="line"/>
      <point x="120" y="723" type="line"/>
      <point x="26" y="618" type="line"/>
    </contour>
    <contour>
      <point x="169" y="313" type="curve"/>
      <point x="169" y="723" type="line"/>
      <point x="120" y="723" type="line"/>
      <point x="120" y="313" type="line"/>
      <point x="151" y="313"/>
      <point x="136" y="313"/>
    </contour>
    <contour>
      <point x="141" y="721" type="move" name="_top"/>
    </contour>
    <contour>
      <point x="146" y="317" type="move" name="_bottom"/>
    </contour>
  </outline>
</glyph>
<glyph name="ordmasculine" format="1">
  <advance width="336"/>
  <unicode hex="00BA"/>
  <outline>
    <contour>
      <point x="95" y="602" type="curve"/>
      <point x="95" y="672"/>
      <point x="109" y="730"/>
      <point x="169" y="730" type="curve"/>
      <point x="226" y="730"/>
      <point x="239" y="671"/>
      <point x="239" y="601" type="curve"/>
      <point x="239" y="524"/>
      <point x="227" y="460"/>
      <point x="173" y="460" type="curve"/>
      <point x="107" y="460"/>
      <point x="95" y="525"/>
      <point x="95" y="602" type="curve"/>
      <point x="78" y="602"/>
      <point x="71" y="602"/>
      <point x="54" y="602" type="curve"/>
      <point x="54" y="501"/>
      <point x="83" y="424"/>
      <point x="171" y="424" type="curve"/>
      <point x="254" y="424"/>
      <point x="283" y="500"/>
      <point x="283" y="601" type="curve"/>
      <point x="283" y="695"/>
      <point x="254" y="766"/>
      <point x="171" y="766" type="curve"/>
      <point x="83" y="766"/>
      <point x="54" y="695"/>
      <point x="54" y="602" type="curve"/>
      <point x="71" y="602"/>
      <point x="78" y="602"/>
    </contour>
  </outline>
</glyph>
<glyph name="guillemotright" format="1">
  <advance width="476"/>
  <unicode hex="00BB"/>
  <outline>
    <contour>
      <point x="249" y="425" type="curve"/>
      <point x="261" y="415"/>
      <point x="413" y="318"/>
      <point x="425" y="308" type="curve"/>
      <point x="425" y="256"/>
      <point x="425" y="302"/>
      <point x="425" y="250" type="curve"/>
      <point x="413" y="260"/>
      <point x="261" y="361"/>
      <point x="249" y="371" type="curve"/>
      <point x="249" y="422"/>
      <point x="249" y="374"/>
    </contour>
    <contour>
      <point x="248" y="188" type="curve"/>
      <point x="260" y="198"/>
      <point x="413" y="298"/>
      <point x="425" y="308" type="curve"/>
      <point x="425" y="256"/>
      <point x="425" y="302"/>
      <point x="425" y="250" type="curve"/>
      <point x="413" y="241"/>
      <point x="260" y="144"/>
      <point x="248" y="135" type="curve"/>
      <point x="248" y="185"/>
      <point x="248" y="137"/>
    </contour>
    <contour>
      <point x="84" y="425" type="curve"/>
      <point x="96" y="415"/>
      <point x="247" y="318"/>
      <point x="260" y="308" type="curve"/>
      <point x="260" y="256"/>
      <point x="260" y="302"/>
      <point x="260" y="250" type="curve"/>
      <point x="247" y="260"/>
      <point x="96" y="361"/>
      <point x="84" y="371" type="curve"/>
      <point x="84" y="422"/>
      <point x="84" y="374"/>
    </contour>
    <contour>
      <point x="83" y="188" type="curve"/>
      <point x="95" y="198"/>
      <point x="247" y="298"/>
      <point x="260" y="308" type="curve"/>
      <point x="260" y="256"/>
      <point x="260" y="302"/>
      <point x="260" y="250" type="curve"/>
      <point x="247" y="241"/>
      <point x="95" y="144"/>
      <point x="83" y="135" type="curve"/>
      <point x="83" y="185"/>
      <point x="83" y="137"/>
    </contour>
  </outline>
</glyph>
<glyph name="onequarter" format="1">
  <advance width="720"/>
  <unicode hex="00BC"/>
  <outline>
    <contour>
      <point x="228" y="-77" type="line"/>
      <point x="533" y="743" type="line"/>
      <point x="476" y="743" type="line"/>
      <point x="171" y="-77" type="line"/>
    </contour>
    <contour>
      <point x="62" y="612" type="line"/>
      <point x="173" y="740" type="line"/>
      <point x="125" y="747" type="line"/>
      <point x="31" y="642" type="line"/>
    </contour>
    <contour>
      <point x="174" y="336" type="curve"/>
      <point x="174" y="747" type="line"/>
      <point x="125" y="747" type="line"/>
      <point x="125" y="336" type="line"/>
      <point x="156" y="336"/>
      <point x="141" y="336"/>
    </contour>
    <contour>
      <point x="684" y="79" type="line"/>
      <point x="395" y="79" type="line"/>
      <point x="395" y="40" type="line"/>
      <point x="684" y="40" type="line"/>
    </contour>
    <contour>
      <point x="417" y="42" type="line"/>
      <point x="597" y="346" type="line"/>
      <point x="558" y="357" type="line"/>
      <point x="395" y="79" type="line"/>
    </contour>
    <contour>
      <point x="607" y="-74" type="line"/>
      <point x="607" y="357" type="line"/>
      <point x="558" y="357" type="line"/>
      <point x="558" y="-74" type="line"/>
    </contour>
  </outline>
</glyph>
<glyph name="onehalf" format="1">
  <advance width="762"/>
  <unicode hex="00BD"/>
  <outline>
    <contour>
      <point x="248" y="-77" type="line"/>
      <point x="553" y="743" type="line"/>
      <point x="496" y="743" type="line"/>
      <point x="192" y="-77" type="line"/>
    </contour>
    <contour>
      <point x="62" y="612" type="line"/>
      <point x="173" y="740" type="line"/>
      <point x="125" y="747" type="line"/>
      <point x="31" y="642" type="line"/>
    </contour>
    <contour>
      <point x="174" y="336" type="curve"/>
      <point x="174" y="747" type="line"/>
      <point x="125" y="747" type="line"/>
      <point x="125" y="336" type="line"/>
      <point x="156" y="336"/>
      <point x="141" y="336"/>
    </contour>
    <contour>
      <point x="472" y="-74" type="curve"/>
      <point x="554" y="-74"/>
      <point x="642" y="-74"/>
      <point x="720" y="-74" type="curve"/>
      <point x="720" y="-54"/>
      <point x="720" y="-55"/>
      <point x="720" y="-34" type="curve"/>
      <point x="639" y="-34"/>
      <point x="551" y="-34"/>
      <point x="472" y="-34" type="curve"/>
      <point x="472" y="-74"/>
      <point x="472" y="-34"/>
    </contour>
    <contour>
      <point x="530" y="236" type="curve"/>
      <point x="543" y="273"/>
      <point x="559" y="304"/>
      <point x="598" y="304" type="curve"/>
      <point x="641" y="304"/>
      <point x="659" y="267"/>
      <point x="659" y="219" type="curve"/>
      <point x="659" y="174"/>
      <point x="637" y="147"/>
      <point x="608" y="112" type="curve"/>
      <point x="563" y="63"/>
      <point x="517" y="15"/>
      <point x="472" y="-34" type="curve"/>
      <point x="480" y="-74"/>
      <point x="472" y="-34"/>
      <point x="480" y="-74" type="curve"/>
      <point x="532" y="-23"/>
      <point x="592" y="28"/>
      <point x="641" y="80" type="curve"/>
      <point x="678" y="125"/>
      <point x="707" y="161"/>
      <point x="707" y="221" type="curve"/>
      <point x="707" y="294"/>
      <point x="669" y="345"/>
      <point x="600" y="345" type="curve"/>
      <point x="544" y="345"/>
      <point x="511" y="314"/>
      <point x="492" y="251" type="curve"/>
      <point x="530" y="236"/>
      <point x="492" y="251"/>
    </contour>
  </outline>
</glyph>
<glyph name="threequarters" format="1">
  <advance width="755"/>
  <unicode hex="00BE"/>
  <outline>
    <contour>
      <point x="265" y="-77" type="line"/>
      <point x="570" y="743" type="line"/>
      <point x="513" y="743" type="line"/>
      <point x="209" y="-77" type="line"/>
    </contour>
    <contour>
      <point x="82" y="665" type="curve"/>
      <point x="96" y="685"/>
      <point x="114" y="704"/>
      <point x="140" y="704" type="curve"/>
      <point x="181" y="704"/>
      <point x="203" y="674"/>
      <point x="203" y="630" type="curve"/>
      <point x="203" y="584"/>
      <point x="161" y="558"/>
      <point x="110" y="554" type="curve"/>
      <point x="110" y="519"/>
      <point x="110" y="554"/>
      <point x="110" y="519" type="curve"/>
      <point x="191" y="522"/>
      <point x="252" y="559"/>
      <point x="252" y="634" type="curve"/>
      <point x="252" y="702"/>
      <point x="212" y="744"/>
      <point x="145" y="744" type="curve"/>
      <point x="106" y="744"/>
      <point x="71" y="721"/>
      <point x="51" y="690" type="curve"/>
      <point x="82" y="665"/>
      <point x="51" y="690"/>
    </contour>
    <contour>
      <point x="48" y="355" type="curve"/>
      <point x="73" y="333"/>
      <point x="101" y="321"/>
      <point x="134" y="321" type="curve"/>
      <point x="213" y="318"/>
      <point x="264" y="362"/>
      <point x="263" y="439" type="curve"/>
      <point x="263" y="516"/>
      <point x="194" y="543"/>
      <point x="110" y="546" type="curve"/>
      <point x="110" y="516"/>
      <point x="110" y="546"/>
      <point x="110" y="516" type="curve"/>
      <point x="169" y="512"/>
      <point x="214" y="486"/>
      <point x="214" y="437" type="curve"/>
      <point x="213" y="390"/>
      <point x="186" y="359"/>
      <point x="139" y="361" type="curve"/>
      <point x="114" y="361"/>
      <point x="92" y="370"/>
      <point x="72" y="385" type="curve"/>
      <point x="48" y="355"/>
      <point x="72" y="385"/>
    </contour>
    <contour>
      <point x="721" y="79" type="line"/>
      <point x="432" y="79" type="line"/>
      <point x="432" y="40" type="line"/>
      <point x="721" y="40" type="line"/>
    </contour>
    <contour>
      <point x="454" y="42" type="line"/>
      <point x="634" y="346" type="line"/>
      <point x="595" y="357" type="line"/>
      <point x="432" y="79" type="line"/>
    </contour>
    <contour>
      <point x="644" y="-74" type="line"/>
      <point x="644" y="357" type="line"/>
      <point x="595" y="357" type="line"/>
      <point x="595" y="-74" type="line"/>
    </contour>
  </outline>
</glyph>
<glyph name="questiondown" format="1">
  <advance width="414"/>
  <unicode hex="00BF"/>
  <outline>
    <contour>
      <point x="248" y="371" type="curve"/>
      <point x="248" y="408"/>
      <point x="248" y="460"/>
      <point x="248" y="497" type="curve"/>
      <point x="194" y="497"/>
      <point x="248" y="497"/>
      <point x="194" y="497" type="curve"/>
      <point x="194" y="460"/>
      <point x="194" y="408"/>
      <point x="194" y="371" type="curve"/>
      <point x="248" y="371"/>
      <point x="194" y="371"/>
    </contour>
    <contour>
      <point x="328" y="109" type="line"/>
      <point x="306" y="73"/>
      <point x="275" y="46"/>
      <point x="226" y="46" type="curve"/>
      <point x="145" y="46"/>
      <point x="110" y="114"/>
      <point x="110" y="200" type="curve"/>
      <point x="110" y="295"/>
      <point x="151" y="371"/>
      <point x="240" y="371" type="curve"/>
      <point x="240" y="399"/>
      <point x="240" y="390"/>
      <point x="240" y="418" type="curve"/>
      <point x="119" y="418"/>
      <point x="54" y="325"/>
      <point x="54" y="200" type="curve"/>
      <point x="54" y="83"/>
      <point x="114" y="-3"/>
      <point x="223" y="-3" type="curve"/>
      <point x="292" y="-3"/>
      <point x="333" y="29"/>
      <point x="362" y="74" type="curve"/>
    </contour>
    <contour>
      <point x="187" y="692" type="curve"/>
      <point x="187" y="671"/>
      <point x="201" y="660"/>
      <point x="221" y="660" type="curve"/>
      <point x="242" y="660"/>
      <point x="254" y="672"/>
      <point x="254" y="692" type="curve"/>
      <point x="187" y="692"/>
      <point x="254" y="692"/>
      <point x="187" y="692" type="curve"/>
      <point x="187" y="714"/>
      <point x="201" y="725"/>
      <point x="221" y="725" type="curve"/>
      <point x="242" y="725"/>
      <point x="254" y="714"/>
      <point x="254" y="692" type="curve"/>
      <point x="187" y="692"/>
      <point x="254" y="692"/>
    </contour>
  </outline>
</glyph>
<glyph name="Atilde" format="1">
  <advance width="492"/>
  <unicode hex="00C3"/>
  <outline>
    <contour>
      <point x="362" y="282" type="curve"/>
      <point x="284" y="282"/>
      <point x="206" y="282"/>
      <point x="127" y="282" type="curve"/>
      <point x="103" y="232"/>
      <point x="127" y="282"/>
      <point x="103" y="232" type="curve"/>
      <point x="196" y="232"/>
      <point x="288" y="232"/>
      <point x="381" y="232" type="curve"/>
      <point x="362" y="282"/>
      <point x="381" y="232"/>
    </contour>
    <contour>
      <point x="471" y="0" type="curve"/>
      <point x="407" y="241"/>
      <point x="341" y="481"/>
      <point x="276" y="722" type="curve"/>
      <point x="224" y="722"/>
      <point x="276" y="722"/>
      <point x="224" y="722" type="curve"/>
      <point x="287" y="481"/>
      <point x="348" y="241"/>
      <point x="411" y="0" type="curve"/>
      <point x="471" y="0"/>
      <point x="411" y="0"/>
    </contour>
    <contour>
      <point x="66" y="0" type="curve"/>
      <point x="137" y="241"/>
      <point x="204" y="481"/>
      <point x="275" y="722" type="curve"/>
      <point x="222" y="722"/>
      <point x="275" y="722"/>
      <point x="222" y="722" type="curve"/>
      <point x="150" y="481"/>
      <point x="75" y="241"/>
      <point x="3" y="0" type="curve"/>
      <point x="66" y="0"/>
      <point x="3" y="0"/>
    </contour>
    <contour>
      <point x="358" y="956" type="curve"/>
      <point x="347" y="910"/>
      <point x="340" y="870"/>
      <point x="312" y="870" type="curve"/>
      <point x="283" y="870"/>
      <point x="270" y="888"/>
      <point x="254" y="911" type="curve"/>
      <point x="233" y="938"/>
      <point x="218" y="958"/>
      <point x="185" y="958" type="curve"/>
      <point x="125" y="958"/>
      <point x="109" y="899"/>
      <point x="96" y="835" type="curve"/>
      <point x="140" y="814"/>
      <point x="96" y="836"/>
      <point x="140" y="814" type="curve"/>
      <point x="152" y="863"/>
      <point x="159" y="901"/>
      <point x="194" y="901" type="curve"/>
      <point x="220" y="901"/>
      <point x="229" y="882"/>
      <point x="243" y="862" type="curve"/>
      <point x="266" y="832"/>
      <point x="284" y="812"/>
      <point x="320" y="812" type="curve"/>
      <point x="380" y="812"/>
      <point x="390" y="872"/>
      <point x="405" y="936" type="curve"/>
      <point x="358" y="956"/>
      <point x="405" y="936"/>
    </contour>
  </outline>
</glyph>
<glyph name="Adieresis" format="1">
  <advance width="492"/>
  <unicode hex="00C4"/>
  <outline>
    <contour>
      <point x="362" y="282" type="curve"/>
      <point x="284" y="282"/>
      <point x="206" y="282"/>
      <point x="127" y="282" type="curve"/>
      <point x="103" y="232"/>
      <point x="127" y="282"/>
      <point x="103" y="232" type="curve"/>
      <point x="196" y="232"/>
      <point x="288" y="232"/>
      <point x="381" y="232" type="curve"/>
      <point x="362" y="282"/>
      <point x="381" y="232"/>
    </contour>
    <contour>
      <point x="471" y="0" type="curve"/>
      <point x="407" y="241"/>
      <point x="341" y="481"/>
      <point x="276" y="722" type="curve"/>
      <point x="224" y="722"/>
      <point x="276" y="722"/>
      <point x="224" y="722" type="curve"/>
      <point x="287" y="481"/>
      <point x="348" y="241"/>
      <point x="411" y="0" type="curve"/>
      <point x="471" y="0"/>
      <point x="411" y="0"/>
    </contour>
    <contour>
      <point x="66" y="0" type="curve"/>
      <point x="137" y="241"/>
      <point x="204" y="481"/>
      <point x="275" y="722" type="curve"/>
      <point x="222" y="722"/>
      <point x="275" y="722"/>
      <point x="222" y="722" type="curve"/>
      <point x="150" y="481"/>
      <point x="75" y="241"/>
      <point x="3" y="0" type="curve"/>
      <point x="66" y="0"/>
      <point x="3" y="0"/>
    </contour>
    <contour>
      <point x="223" y="841" type="curve"/>
      <point x="223" y="862"/>
      <point x="209" y="873"/>
      <point x="189" y="873" type="curve"/>
      <point x="169" y="873"/>
      <point x="156" y="861"/>
      <point x="156" y="841" type="curve"/>
      <point x="223" y="841"/>
      <point x="156" y="841"/>
      <point x="223" y="841" type="curve"/>
      <point x="223" y="819"/>
      <point x="209" y="808"/>
      <point x="189" y="808" type="curve"/>
      <point x="168" y="808"/>
      <point x="156" y="820"/>
      <point x="156" y="841" type="curve"/>
      <point x="223" y="841"/>
      <point x="156" y="841"/>
    </contour>
    <contour>
      <point x="340" y="841" type="curve"/>
      <point x="340" y="862"/>
      <point x="326" y="873"/>
      <point x="306" y="873" type="curve"/>
      <point x="285" y="873"/>
      <point x="273" y="861"/>
      <point x="273" y="841" type="curve"/>
      <point x="340" y="841"/>
      <point x="273" y="841"/>
      <point x="340" y="841" type="curve"/>
      <point x="340" y="819"/>
      <point x="326" y="808"/>
      <point x="306" y="808" type="curve"/>
      <point x="285" y="808"/>
      <point x="273" y="820"/>
      <point x="273" y="841" type="curve"/>
      <point x="340" y="841"/>
      <point x="273" y="841"/>
    </contour>
  </outline>
</glyph>
<glyph name="Aring" format="1">
  <advance width="492"/>
  <unicode hex="00C5"/>
  <outline>
    <contour>
      <point x="362" y="282" type="curve"/>
      <point x="284" y="282"/>
      <point x="206" y="282"/>
      <point x="127" y="282" type="curve"/>
      <point x="103" y="232"/>
      <point x="127" y="282"/>
      <point x="103" y="232" type="curve"/>
      <point x="196" y="232"/>
      <point x="288" y="232"/>
      <point x="381" y="232" type="curve"/>
      <point x="362" y="282"/>
      <point x="381" y="232"/>
    </contour>
    <contour>
      <point x="471" y="0" type="curve"/>
      <point x="407" y="241"/>
      <point x="341" y="481"/>
      <point x="276" y="722" type="curve"/>
      <point x="224" y="722"/>
      <point x="276" y="722"/>
      <point x="224" y="722" type="curve"/>
      <point x="287" y="481"/>
      <point x="348" y="241"/>
      <point x="411" y="0" type="curve"/>
      <point x="471" y="0"/>
      <point x="411" y="0"/>
    </contour>
    <contour>
      <point x="66" y="0" type="curve"/>
      <point x="137" y="241"/>
      <point x="204" y="481"/>
      <point x="275" y="722" type="curve"/>
      <point x="222" y="722"/>
      <point x="275" y="722"/>
      <point x="222" y="722" type="curve"/>
      <point x="150" y="481"/>
      <point x="75" y="241"/>
      <point x="3" y="0" type="curve"/>
      <point x="66" y="0"/>
      <point x="3" y="0"/>
    </contour>
    <contour>
      <point x="147" y="936" type="curve"/>
      <point x="147" y="864"/>
      <point x="180" y="811"/>
      <point x="248" y="811" type="curve"/>
      <point x="316" y="811"/>
      <point x="350" y="863"/>
      <point x="350" y="936" type="curve"/>
      <point x="350" y="1009"/>
      <point x="315" y="1062"/>
      <point x="246" y="1062" type="curve"/>
      <point x="179" y="1062"/>
      <point x="147" y="1009"/>
      <point x="147" y="936" type="curve"/>
      <point x="199" y="936"/>
      <point x="144" y="936"/>
      <point x="196" y="936" type="curve"/>
      <point x="196" y="980"/>
      <point x="206" y="1017"/>
      <point x="246" y="1017" type="curve"/>
      <point x="287" y="1017"/>
      <point x="299" y="981"/>
      <point x="299" y="936" type="curve"/>
      <point x="299" y="892"/>
      <point x="288" y="855"/>
      <point x="248" y="855" type="curve"/>
      <point x="207" y="855"/>
      <point x="196" y="892"/>
      <point x="196" y="936" type="curve"/>
      <point x="144" y="936"/>
      <point x="199" y="936"/>
    </contour>
  </outline>
</glyph>
<glyph name="AE" format="1">
  <advance width="690"/>
  <unicode hex="00C6"/>
  <outline>
    <contour>
      <point x="342" y="277" type="curve"/>
      <point x="263" y="277"/>
      <point x="222" y="277"/>
      <point x="143" y="277" type="curve"/>
      <point x="119" y="227"/>
      <point x="143" y="277"/>
      <point x="119" y="227" type="curve"/>
      <point x="212" y="227"/>
      <point x="268" y="227"/>
      <point x="360" y="227" type="curve"/>
      <point x="342" y="277"/>
      <point x="360" y="227"/>
    </contour>
    <contour>
      <point x="58" y="0" type="curve"/>
      <point x="382" y="722" type="line"/>
      <point x="330" y="722"/>
      <point x="382" y="722"/>
      <point x="330" y="722" type="curve"/>
      <point x="-6" y="0" type="line"/>
      <point x="58" y="0"/>
      <point x="-6" y="0"/>
    </contour>
    <contour>
      <point x="362" y="350" type="curve"/>
      <point x="440" y="350"/>
      <point x="518" y="350"/>
      <point x="597" y="350" type="curve"/>
      <point x="597" y="397"/>
      <point x="597" y="350"/>
      <point x="597" y="397" type="curve"/>
      <point x="518" y="397"/>
      <point x="440" y="397"/>
      <point x="362" y="397" type="curve"/>
      <point x="362" y="350"/>
      <point x="362" y="397"/>
    </contour>
    <contour>
      <point x="352" y="675" type="curve"/>
      <point x="449" y="675"/>
      <point x="545" y="675"/>
      <point x="642" y="675" type="curve"/>
      <point x="642" y="722"/>
      <point x="642" y="675"/>
      <point x="642" y="722" type="curve"/>
      <point x="545" y="722"/>
      <point x="449" y="722"/>
      <point x="352" y="722" type="curve"/>
      <point x="352" y="675"/>
      <point x="352" y="722"/>
    </contour>
    <contour>
      <point x="388" y="0" type="curve"/>
      <point x="388" y="722" type="line"/>
      <point x="330" y="722"/>
      <point x="388" y="722"/>
      <point x="330" y="722" type="curve"/>
      <point x="330" y="481"/>
      <point x="330" y="241"/>
      <point x="330" y="0" type="curve"/>
      <point x="388" y="0"/>
      <point x="330" y="0"/>
    </contour>
    <contour>
      <point x="352" y="0" type="curve"/>
      <point x="457" y="0"/>
      <point x="561" y="0"/>
      <point x="666" y="0" type="curve"/>
      <point x="666" y="47"/>
      <point x="666" y="0"/>
      <point x="666" y="47" type="curve"/>
      <point x="561" y="47"/>
      <point x="457" y="47"/>
      <point x="352" y="47" type="curve"/>
      <point x="352" y="0"/>
      <point x="352" y="47"/>
    </contour>
  </outline>
</glyph>
<glyph name="Ccedilla" format="1">
  <advance width="525"/>
  <unicode hex="00C7"/>
  <outline>
    <contour>
      <point x="484" y="655" type="curve"/>
      <point x="436" y="695"/>
      <point x="379" y="727"/>
      <point x="311" y="727" type="curve"/>
      <point x="121" y="727"/>
      <point x="62" y="562"/>
      <point x="62" y="344" type="curve"/>
      <point x="62" y="146"/>
      <point x="120" y="-5"/>
      <point x="296" y="-5" type="curve"/>
      <point x="386" y="-5"/>
      <point x="442" y="33"/>
      <point x="498" y="97" type="curve"/>
      <point x="463" y="132"/>
      <point x="497" y="97"/>
      <point x="462" y="132" type="curve"/>
      <point x="415" y="80"/>
      <point x="371" y="46"/>
      <point x="299" y="46" type="curve"/>
      <point x="154" y="46"/>
      <point x="119" y="179"/>
      <point x="119" y="346" type="curve"/>
      <point x="119" y="529"/>
      <point x="156" y="677"/>
      <point x="308" y="677" type="curve"/>
      <point x="366" y="677"/>
      <point x="414" y="651"/>
      <point x="453" y="618" type="curve"/>
      <point x="484" y="655"/>
      <point x="453" y="618"/>
    </contour>
    <contour>
      <point x="266" y="30" type="curve"/>
      <point x="256" y="5"/>
      <point x="237" y="-41"/>
      <point x="227" y="-66" type="curve"/>
      <point x="267" y="-104"/>
      <point x="227" y="-66"/>
      <point x="267" y="-104" type="curve"/>
      <point x="278" y="-77"/>
      <point x="300" y="-29"/>
      <point x="310" y="-2" type="curve"/>
      <point x="266" y="30"/>
      <point x="310" y="-2"/>
    </contour>
    <contour>
      <point x="267" y="-104" type="curve"/>
      <point x="275" y="-97"/>
      <point x="281" y="-93"/>
      <point x="292" y="-93" type="curve"/>
      <point x="313" y="-93"/>
      <point x="319" y="-112"/>
      <point x="319" y="-137" type="curve"/>
      <point x="319" y="-163"/>
      <point x="306" y="-181"/>
      <point x="281" y="-181" type="curve"/>
      <point x="262" y="-181"/>
      <point x="248" y="-177"/>
      <point x="234" y="-165" type="curve"/>
      <point x="211" y="-200"/>
      <point x="234" y="-165"/>
      <point x="211" y="-200" type="curve"/>
      <point x="232" y="-216"/>
      <point x="251" y="-223"/>
      <point x="278" y="-223" type="curve"/>
      <point x="330" y="-223"/>
      <point x="361" y="-189"/>
      <point x="361" y="-136" type="curve"/>
      <point x="361" y="-85"/>
      <point x="336" y="-47"/>
      <point x="289" y="-47" type="curve"/>
      <point x="265" y="-47"/>
      <point x="248" y="-53"/>
      <point x="227" y="-66" type="curve"/>
      <point x="267" y="-104"/>
      <point x="227" y="-66"/>
    </contour>
  </outline>
</glyph>
<glyph name="Egrave" format="1">
  <advance width="475"/>
  <unicode hex="00C8"/>
  <outline>
    <contour>
      <point x="147" y="350" type="curve"/>
      <point x="225" y="350"/>
      <point x="303" y="350"/>
      <point x="381" y="350" type="curve"/>
      <point x="381" y="397"/>
      <point x="381" y="350"/>
      <point x="381" y="397" type="curve"/>
      <point x="303" y="397"/>
      <point x="225" y="397"/>
      <point x="147" y="397" type="curve"/>
      <point x="147" y="350"/>
      <point x="147" y="397"/>
    </contour>
    <contour>
      <point x="136" y="675" type="curve"/>
      <point x="233" y="675"/>
      <point x="329" y="675"/>
      <point x="426" y="675" type="curve"/>
      <point x="426" y="722"/>
      <point x="426" y="675"/>
      <point x="426" y="722" type="curve"/>
      <point x="329" y="722"/>
      <point x="233" y="722"/>
      <point x="136" y="722" type="curve"/>
      <point x="136" y="675"/>
      <point x="136" y="722"/>
    </contour>
    <contour>
      <point x="172" y="0" type="curve"/>
      <point x="172" y="722" type="line"/>
      <point x="115" y="722"/>
      <point x="172" y="722"/>
      <point x="115" y="722" type="curve"/>
      <point x="115" y="481"/>
      <point x="115" y="241"/>
      <point x="115" y="0" type="curve"/>
      <point x="172" y="0"/>
      <point x="115" y="0"/>
    </contour>
    <contour>
      <point x="136" y="0" type="curve"/>
      <point x="241" y="0"/>
      <point x="345" y="0"/>
      <point x="450" y="0" type="curve"/>
      <point x="450" y="47"/>
      <point x="450" y="0"/>
      <point x="450" y="47" type="curve"/>
      <point x="345" y="47"/>
      <point x="241" y="47"/>
      <point x="136" y="47" type="curve"/>
      <point x="136" y="0"/>
      <point x="136" y="47"/>
    </contour>
    <contour>
      <point x="274" y="813" type="line"/>
      <point x="203" y="979" type="line"/>
      <point x="131" y="979" type="line"/>
      <point x="219" y="813" type="line"/>
    </contour>
  </outline>
</glyph>
<glyph name="Ecircumflex" format="1">
  <advance width="462"/>
  <unicode hex="00CA"/>
  <outline>
    <contour>
      <point x="138" y="350" type="curve"/>
      <point x="216" y="350"/>
      <point x="294" y="350"/>
      <point x="372" y="350" type="curve"/>
      <point x="372" y="397"/>
      <point x="372" y="350"/>
      <point x="372" y="397" type="curve"/>
      <point x="294" y="397"/>
      <point x="216" y="397"/>
      <point x="138" y="397" type="curve"/>
      <point x="138" y="350"/>
      <point x="138" y="397"/>
    </contour>
    <contour>
      <point x="127" y="675" type="curve"/>
      <point x="224" y="675"/>
      <point x="320" y="675"/>
      <point x="417" y="675" type="curve"/>
      <point x="417" y="722"/>
      <point x="417" y="675"/>
      <point x="417" y="722" type="curve"/>
      <point x="320" y="722"/>
      <point x="224" y="722"/>
      <point x="127" y="722" type="curve"/>
      <point x="127" y="675"/>
      <point x="127" y="722"/>
    </contour>
    <contour>
      <point x="164" y="0" type="curve"/>
      <point x="164" y="722" type="line"/>
      <point x="106" y="722"/>
      <point x="164" y="722"/>
      <point x="106" y="722" type="curve"/>
      <point x="106" y="481"/>
      <point x="106" y="241"/>
      <point x="106" y="0" type="curve"/>
      <point x="164" y="0"/>
      <point x="106" y="0"/>
    </contour>
    <contour>
      <point x="127" y="0" type="curve"/>
      <point x="232" y="0"/>
      <point x="337" y="0"/>
      <point x="442" y="0" type="curve"/>
      <point x="442" y="47"/>
      <point x="442" y="0"/>
      <point x="442" y="47" type="curve"/>
      <point x="337" y="47"/>
      <point x="232" y="47"/>
      <point x="127" y="47" type="curve"/>
      <point x="127" y="0"/>
      <point x="127" y="47"/>
    </contour>
    <contour>
      <point x="173" y="812" type="line"/>
      <point x="260" y="978" type="line"/>
      <point x="189" y="978" type="line"/>
      <point x="117" y="812" type="line"/>
    </contour>
    <contour>
      <point x="354" y="812" type="line"/>
      <point x="283" y="978" type="line"/>
      <point x="211" y="978" type="line"/>
      <point x="299" y="812" type="line"/>
    </contour>
  </outline>
</glyph>
<glyph name="Edieresis" format="1">
  <advance width="469"/>
  <unicode hex="00CB"/>
  <outline>
    <contour>
      <point x="141" y="350" type="curve"/>
      <point x="219" y="350"/>
      <point x="297" y="350"/>
      <point x="376" y="350" type="curve"/>
      <point x="376" y="397"/>
      <point x="376" y="350"/>
      <point x="376" y="397" type="curve"/>
      <point x="297" y="397"/>
      <point x="219" y="397"/>
      <point x="141" y="397" type="curve"/>
      <point x="141" y="350"/>
      <point x="141" y="397"/>
    </contour>
    <contour>
      <point x="131" y="675" type="curve"/>
      <point x="228" y="675"/>
      <point x="324" y="675"/>
      <point x="421" y="675" type="curve"/>
      <point x="421" y="722"/>
      <point x="421" y="675"/>
      <point x="421" y="722" type="curve"/>
      <point x="324" y="722"/>
      <point x="228" y="722"/>
      <point x="131" y="722" type="curve"/>
      <point x="131" y="675"/>
      <point x="131" y="722"/>
    </contour>
    <contour>
      <point x="167" y="0" type="curve"/>
      <point x="167" y="722" type="line"/>
      <point x="109" y="722"/>
      <point x="167" y="722"/>
      <point x="109" y="722" type="curve"/>
      <point x="109" y="481"/>
      <point x="109" y="241"/>
      <point x="109" y="0" type="curve"/>
      <point x="167" y="0"/>
      <point x="109" y="0"/>
    </contour>
    <contour>
      <point x="131" y="0" type="curve"/>
      <point x="236" y="0"/>
      <point x="340" y="0"/>
      <point x="445" y="0" type="curve"/>
      <point x="445" y="47"/>
      <point x="445" y="0"/>
      <point x="445" y="47" type="curve"/>
      <point x="340" y="47"/>
      <point x="236" y="47"/>
      <point x="131" y="47" type="curve"/>
      <point x="131" y="0"/>
      <point x="131" y="47"/>
    </contour>
    <contour>
      <point x="215" y="841" type="curve"/>
      <point x="215" y="862"/>
      <point x="200" y="873"/>
      <point x="180" y="873" type="curve"/>
      <point x="160" y="873"/>
      <point x="148" y="861"/>
      <point x="148" y="841" type="curve"/>
      <point x="215" y="841"/>
      <point x="148" y="841"/>
      <point x="215" y="841" type="curve"/>
      <point x="215" y="819"/>
      <point x="201" y="808"/>
      <point x="180" y="808" type="curve"/>
      <point x="160" y="808"/>
      <point x="148" y="820"/>
      <point x="148" y="841" type="curve"/>
      <point x="215" y="841"/>
      <point x="148" y="841"/>
    </contour>
    <contour>
      <point x="331" y="841" type="curve"/>
      <point x="331" y="862"/>
      <point x="317" y="873"/>
      <point x="297" y="873" type="curve"/>
      <point x="277" y="873"/>
      <point x="264" y="861"/>
      <point x="264" y="841" type="curve"/>
      <point x="331" y="841"/>
      <point x="264" y="841"/>
      <point x="331" y="841" type="curve"/>
      <point x="331" y="819"/>
      <point x="318" y="808"/>
      <point x="297" y="808" type="curve"/>
      <point x="277" y="808"/>
      <point x="264" y="820"/>
      <point x="264" y="841" type="curve"/>
      <point x="331" y="841"/>
      <point x="264" y="841"/>
    </contour>
  </outline>
</glyph>
<glyph name="Igrave" format="1">
  <advance width="283"/>
  <unicode hex="00CC"/>
  <outline>
    <contour>
      <point x="173" y="0" type="curve"/>
      <point x="173" y="241"/>
      <point x="173" y="481"/>
      <point x="173" y="722" type="curve"/>
      <point x="115" y="722"/>
      <point x="173" y="722"/>
      <point x="115" y="722" type="curve"/>
      <point x="115" y="481"/>
      <point x="115" y="241"/>
      <point x="115" y="0" type="curve"/>
      <point x="173" y="0"/>
      <point x="115" y="0"/>
    </contour>
    <contour>
      <point x="174" y="813" type="line"/>
      <point x="103" y="979" type="line"/>
      <point x="32" y="979" type="line"/>
      <point x="119" y="813" type="line"/>
    </contour>
  </outline>
</glyph>
<glyph name="Iacute" format="1">
  <advance width="279"/>
  <unicode hex="00CD"/>
  <outline>
    <contour>
      <point x="165" y="0" type="curve"/>
      <point x="165" y="241"/>
      <point x="165" y="481"/>
      <point x="165" y="722" type="curve"/>
      <point x="108" y="722"/>
      <point x="165" y="722"/>
      <point x="108" y="722" type="curve"/>
      <point x="108" y="481"/>
      <point x="108" y="241"/>
      <point x="108" y="0" type="curve"/>
      <point x="165" y="0"/>
      <point x="108" y="0"/>
    </contour>
    <contour>
      <point x="164" y="812" type="line"/>
      <point x="251" y="978" type="line"/>
      <point x="180" y="978" type="line"/>
      <point x="109" y="812" type="line"/>
    </contour>
  </outline>
</glyph>
<glyph name="Icircumflex" format="1">
  <advance width="278"/>
  <unicode hex="00CE"/>
  <outline>
    <contour>
      <point x="171" y="0" type="curve"/>
      <point x="171" y="241"/>
      <point x="171" y="481"/>
      <point x="171" y="722" type="curve"/>
      <point x="113" y="722"/>
      <point x="171" y="722"/>
      <point x="113" y="722" type="curve"/>
      <point x="113" y="481"/>
      <point x="113" y="241"/>
      <point x="113" y="0" type="curve"/>
      <point x="171" y="0"/>
      <point x="113" y="0"/>
    </contour>
    <contour>
      <point x="80" y="812" type="line"/>
      <point x="167" y="978" type="line"/>
      <point x="96" y="978" type="line"/>
      <point x="25" y="812" type="line"/>
    </contour>
    <contour>
      <point x="261" y="812" type="line"/>
      <point x="190" y="978" type="line"/>
      <point x="118" y="978" type="line"/>
      <point x="206" y="812" type="line"/>
    </contour>
  </outline>
</glyph>
<glyph name="Idieresis" format="1">
  <advance width="223"/>
  <unicode hex="00CF"/>
  <outline>
    <contour>
      <point x="142" y="0" type="curve"/>
      <point x="142" y="241"/>
      <point x="142" y="481"/>
      <point x="142" y="722" type="curve"/>
      <point x="84" y="722"/>
      <point x="142" y="722"/>
      <point x="84" y="722" type="curve"/>
      <point x="84" y="481"/>
      <point x="84" y="241"/>
      <point x="84" y="0" type="curve"/>
      <point x="142" y="0"/>
      <point x="84" y="0"/>
    </contour>
    <contour>
      <point x="90" y="841" type="curve"/>
      <point x="90" y="862"/>
      <point x="76" y="873"/>
      <point x="56" y="873" type="curve"/>
      <point x="35" y="873"/>
      <point x="23" y="861"/>
      <point x="23" y="841" type="curve"/>
      <point x="90" y="841"/>
      <point x="23" y="841"/>
      <point x="90" y="841" type="curve"/>
      <point x="90" y="819"/>
      <point x="76" y="808"/>
      <point x="56" y="808" type="curve"/>
      <point x="35" y="808"/>
      <point x="23" y="820"/>
      <point x="23" y="841" type="curve"/>
      <point x="90" y="841"/>
      <point x="23" y="841"/>
    </contour>
    <contour>
      <point x="207" y="841" type="curve"/>
      <point x="207" y="862"/>
      <point x="192" y="873"/>
      <point x="172" y="873" type="curve"/>
      <point x="152" y="873"/>
      <point x="140" y="861"/>
      <point x="140" y="841" type="curve"/>
      <point x="207" y="841"/>
      <point x="140" y="841"/>
      <point x="207" y="841" type="curve"/>
      <point x="207" y="819"/>
      <point x="193" y="808"/>
      <point x="172" y="808" type="curve"/>
      <point x="152" y="808"/>
      <point x="140" y="820"/>
      <point x="140" y="841" type="curve"/>
      <point x="207" y="841"/>
      <point x="140" y="841"/>
    </contour>
  </outline>
</glyph>
<glyph name="Ntilde" format="1">
  <advance width="664"/>
  <unicode hex="00D1"/>
  <outline>
    <contour>
      <point x="554" y="0" type="curve"/>
      <point x="427" y="241"/>
      <point x="299" y="481"/>
      <point x="172" y="722" type="curve"/>
      <point x="109" y="722"/>
      <point x="173" y="722"/>
      <point x="110" y="722" type="curve"/>
      <point x="237" y="481"/>
      <point x="365" y="241"/>
      <point x="492" y="0" type="curve"/>
      <point x="555" y="0"/>
      <point x="492" y="0"/>
    </contour>
    <contour>
      <point x="496" y="722" type="curve"/>
      <point x="496" y="481"/>
      <point x="496" y="241"/>
      <point x="496" y="0" type="curve"/>
      <point x="554" y="0"/>
      <point x="496" y="0"/>
      <point x="554" y="0" type="curve"/>
      <point x="554" y="241"/>
      <point x="554" y="481"/>
      <point x="554" y="722" type="curve"/>
      <point x="496" y="722"/>
      <point x="554" y="722"/>
    </contour>
    <contour>
      <point x="168" y="0" type="curve"/>
      <point x="168" y="241"/>
      <point x="168" y="481"/>
      <point x="168" y="722" type="curve"/>
      <point x="111" y="722"/>
      <point x="168" y="722"/>
      <point x="111" y="722" type="curve"/>
      <point x="111" y="481"/>
      <point x="111" y="241"/>
      <point x="111" y="0" type="curve"/>
      <point x="168" y="0"/>
      <point x="111" y="0"/>
    </contour>
    <contour>
      <point x="448" y="956" type="curve"/>
      <point x="437" y="910"/>
      <point x="430" y="870"/>
      <point x="401" y="870" type="curve"/>
      <point x="373" y="870"/>
      <point x="360" y="888"/>
      <point x="344" y="911" type="curve"/>
      <point x="323" y="938"/>
      <point x="308" y="958"/>
      <point x="275" y="958" type="curve"/>
      <point x="214" y="958"/>
      <point x="199" y="899"/>
      <point x="186" y="835" type="curve"/>
      <point x="230" y="814"/>
      <point x="186" y="836"/>
      <point x="230" y="814" type="curve"/>
      <point x="242" y="863"/>
      <point x="249" y="901"/>
      <point x="284" y="901" type="curve"/>
      <point x="310" y="901"/>
      <point x="319" y="882"/>
      <point x="333" y="862" type="curve"/>
      <point x="356" y="832"/>
      <point x="374" y="812"/>
      <point x="410" y="812" type="curve"/>
      <point x="470" y="812"/>
      <point x="480" y="872"/>
      <point x="495" y="936" type="curve"/>
      <point x="448" y="956"/>
      <point x="495" y="936"/>
    </contour>
  </outline>
</glyph>
<glyph name="Otilde" format="1">
  <advance width="594"/>
  <unicode hex="00D5"/>
  <outline>
    <contour>
      <point x="120" y="360" type="curve" name="FullCurve"/>
      <point x="120" y="529"/>
      <point x="148" y="678"/>
      <point x="295" y="678" type="curve" name="FullCurve"/>
      <point x="441" y="678"/>
      <point x="475" y="532"/>
      <point x="475" y="363" type="curve" name="FullCurve"/>
      <point x="475" y="195"/>
      <point x="446" y="44"/>
      <point x="299" y="44" type="curve" name="FullCurve"/>
      <point x="152" y="44"/>
      <point x="120" y="190"/>
      <point x="120" y="360" type="curve" name="FullCurve"/>
      <point x="62" y="360"/>
      <point x="120" y="360"/>
      <point x="62" y="360" type="curve" name="FullCurve"/>
      <point x="62" y="159"/>
      <point x="119" y="-5"/>
      <point x="297" y="-5" type="curve" name="FullCurve"/>
      <point x="475" y="-5"/>
      <point x="532" y="161"/>
      <point x="532" y="363" type="curve" name="FullCurve"/>
      <point x="532" y="563"/>
      <point x="476" y="727"/>
      <point x="298" y="727" type="curve" name="FullCurve"/>
      <point x="119" y="727"/>
      <point x="62" y="561"/>
      <point x="62" y="360" type="curve" name="FullCurve"/>
      <point x="120" y="360"/>
      <point x="62" y="360"/>
    </contour>
    <contour>
      <point x="407" y="956" type="curve"/>
      <point x="396" y="910"/>
      <point x="389" y="870"/>
      <point x="361" y="870" type="curve"/>
      <point x="332" y="870"/>
      <point x="319" y="888"/>
      <point x="303" y="911" type="curve"/>
      <point x="282" y="938"/>
      <point x="267" y="958"/>
      <point x="234" y="958" type="curve"/>
      <point x="174" y="958"/>
      <point x="158" y="899"/>
      <point x="145" y="835" type="curve"/>
      <point x="189" y="814"/>
      <point x="145" y="836"/>
      <point x="189" y="814" type="curve"/>
      <point x="201" y="863"/>
      <point x="208" y="901"/>
      <point x="243" y="901" type="curve"/>
      <point x="269" y="901"/>
      <point x="278" y="882"/>
      <point x="292" y="862" type="curve"/>
      <point x="315" y="832"/>
      <point x="333" y="812"/>
      <point x="369" y="812" type="curve"/>
      <point x="429" y="812"/>
      <point x="439" y="872"/>
      <point x="454" y="936" type="curve"/>
      <point x="407" y="956"/>
      <point x="454" y="936"/>
    </contour>
  </outline>
</glyph>
<glyph name="Odieresis" format="1">
  <advance width="594"/>
  <unicode hex="00D6"/>
  <outline>
    <contour>
      <point x="120" y="360" type="curve" name="FullCurve"/>
      <point x="120" y="529"/>
      <point x="148" y="678"/>
      <point x="295" y="678" type="curve" name="FullCurve"/>
      <point x="441" y="678"/>
      <point x="475" y="532"/>
      <point x="475" y="363" type="curve" name="FullCurve"/>
      <point x="475" y="195"/>
      <point x="446" y="44"/>
      <point x="299" y="44" type="curve" name="FullCurve"/>
      <point x="152" y="44"/>
      <point x="120" y="190"/>
      <point x="120" y="360" type="curve" name="FullCurve"/>
      <point x="62" y="360"/>
      <point x="120" y="360"/>
      <point x="62" y="360" type="curve" name="FullCurve"/>
      <point x="62" y="159"/>
      <point x="119" y="-5"/>
      <point x="297" y="-5" type="curve" name="FullCurve"/>
      <point x="475" y="-5"/>
      <point x="532" y="161"/>
      <point x="532" y="363" type="curve" name="FullCurve"/>
      <point x="532" y="563"/>
      <point x="476" y="727"/>
      <point x="298" y="727" type="curve" name="FullCurve"/>
      <point x="119" y="727"/>
      <point x="62" y="561"/>
      <point x="62" y="360" type="curve" name="FullCurve"/>
      <point x="120" y="360"/>
      <point x="62" y="360"/>
    </contour>
    <contour>
      <point x="272" y="841" type="curve"/>
      <point x="272" y="862"/>
      <point x="258" y="873"/>
      <point x="238" y="873" type="curve"/>
      <point x="218" y="873"/>
      <point x="205" y="861"/>
      <point x="205" y="841" type="curve"/>
      <point x="272" y="841"/>
      <point x="205" y="841"/>
      <point x="272" y="841" type="curve"/>
      <point x="272" y="819"/>
      <point x="258" y="808"/>
      <point x="238" y="808" type="curve"/>
      <point x="217" y="808"/>
      <point x="205" y="820"/>
      <point x="205" y="841" type="curve"/>
      <point x="272" y="841"/>
      <point x="205" y="841"/>
    </contour>
    <contour>
      <point x="389" y="841" type="curve"/>
      <point x="389" y="862"/>
      <point x="375" y="873"/>
      <point x="355" y="873" type="curve"/>
      <point x="334" y="873"/>
      <point x="322" y="861"/>
      <point x="322" y="841" type="curve"/>
      <point x="389" y="841"/>
      <point x="322" y="841"/>
      <point x="389" y="841" type="curve"/>
      <point x="389" y="819"/>
      <point x="375" y="808"/>
      <point x="355" y="808" type="curve"/>
      <point x="334" y="808"/>
      <point x="322" y="820"/>
      <point x="322" y="841" type="curve"/>
      <point x="389" y="841"/>
      <point x="322" y="841"/>
    </contour>
  </outline>
</glyph>
<glyph name="multiply" format="1">
  <advance width="525"/>
  <unicode hex="00D7"/>
  <outline>
    <contour>
      <point x="96" y="105" type="line"/>
      <point x="465" y="479" type="line"/>
      <point x="430" y="514" type="line"/>
      <point x="61" y="140" type="line"/>
    </contour>
    <contour>
      <point x="465" y="139" type="line"/>
      <point x="96" y="513" type="line"/>
      <point x="61" y="478" type="line"/>
      <point x="430" y="104" type="line"/>
    </contour>
  </outline>
</glyph>
<glyph name="Ugrave" format="1">
  <advance width="615"/>
  <unicode hex="00D9"/>
  <outline>
    <contour>
      <point x="101" y="721" type="curve"/>
      <point x="101" y="576"/>
      <point x="101" y="417"/>
      <point x="101" y="272" type="curve"/>
      <point x="101" y="103"/>
      <point x="152" y="-5"/>
      <point x="307" y="-5" type="curve"/>
      <point x="461" y="-5"/>
      <point x="514" y="102"/>
      <point x="514" y="269" type="curve"/>
      <point x="514" y="416"/>
      <point x="514" y="576"/>
      <point x="514" y="721" type="curve"/>
      <point x="461" y="721"/>
      <point x="513" y="721"/>
      <point x="461" y="721" type="curve"/>
      <point x="461" y="572"/>
      <point x="461" y="411"/>
      <point x="461" y="262" type="curve"/>
      <point x="461" y="135"/>
      <point x="423" y="47"/>
      <point x="311" y="47" type="curve"/>
      <point x="187" y="47"/>
      <point x="154" y="142"/>
      <point x="154" y="281" type="curve"/>
      <point x="154" y="423"/>
      <point x="154" y="580"/>
      <point x="154" y="721" type="curve"/>
      <point x="102" y="721"/>
      <point x="154" y="721"/>
    </contour>
    <contour>
      <point x="340" y="813" type="line"/>
      <point x="269" y="979" type="line"/>
      <point x="197" y="979" type="line"/>
      <point x="284" y="813" type="line"/>
    </contour>
  </outline>
</glyph>
<glyph name="Uacute" format="1">
  <advance width="615"/>
  <unicode hex="00DA"/>
  <outline>
    <contour>
      <point x="101" y="721" type="curve"/>
      <point x="101" y="576"/>
      <point x="101" y="417"/>
      <point x="101" y="272" type="curve"/>
      <point x="101" y="103"/>
      <point x="152" y="-5"/>
      <point x="307" y="-5" type="curve"/>
      <point x="461" y="-5"/>
      <point x="514" y="102"/>
      <point x="514" y="269" type="curve"/>
      <point x="514" y="416"/>
      <point x="514" y="576"/>
      <point x="514" y="721" type="curve"/>
      <point x="461" y="721"/>
      <point x="513" y="721"/>
      <point x="461" y="721" type="curve"/>
      <point x="461" y="572"/>
      <point x="461" y="411"/>
      <point x="461" y="262" type="curve"/>
      <point x="461" y="135"/>
      <point x="423" y="47"/>
      <point x="311" y="47" type="curve"/>
      <point x="187" y="47"/>
      <point x="154" y="142"/>
      <point x="154" y="281" type="curve"/>
      <point x="154" y="423"/>
      <point x="154" y="580"/>
      <point x="154" y="721" type="curve"/>
      <point x="102" y="721"/>
      <point x="154" y="721"/>
    </contour>
    <contour>
      <point x="336" y="812" type="line"/>
      <point x="424" y="978" type="line"/>
      <point x="352" y="978" type="line"/>
      <point x="281" y="812" type="line"/>
    </contour>
  </outline>
</glyph>
<glyph name="Udieresis" format="1">
  <advance width="615"/>
  <unicode hex="00DC"/>
  <outline>
    <contour>
      <point x="101" y="721" type="curve"/>
      <point x="101" y="576"/>
      <point x="101" y="417"/>
      <point x="101" y="272" type="curve"/>
      <point x="101" y="103"/>
      <point x="152" y="-5"/>
      <point x="307" y="-5" type="curve"/>
      <point x="461" y="-5"/>
      <point x="514" y="102"/>
      <point x="514" y="269" type="curve"/>
      <point x="514" y="416"/>
      <point x="514" y="576"/>
      <point x="514" y="721" type="curve"/>
      <point x="461" y="721"/>
      <point x="513" y="721"/>
      <point x="461" y="721" type="curve"/>
      <point x="461" y="572"/>
      <point x="461" y="411"/>
      <point x="461" y="262" type="curve"/>
      <point x="461" y="135"/>
      <point x="423" y="47"/>
      <point x="311" y="47" type="curve"/>
      <point x="187" y="47"/>
      <point x="154" y="142"/>
      <point x="154" y="281" type="curve"/>
      <point x="154" y="423"/>
      <point x="154" y="580"/>
      <point x="154" y="721" type="curve"/>
      <point x="102" y="721"/>
      <point x="154" y="721"/>
    </contour>
    <contour>
      <point x="285" y="841" type="curve"/>
      <point x="285" y="862"/>
      <point x="271" y="873"/>
      <point x="251" y="873" type="curve"/>
      <point x="231" y="873"/>
      <point x="218" y="861"/>
      <point x="218" y="841" type="curve"/>
      <point x="285" y="841"/>
      <point x="218" y="841"/>
      <point x="285" y="841" type="curve"/>
      <point x="285" y="819"/>
      <point x="272" y="808"/>
      <point x="251" y="808" type="curve"/>
      <point x="231" y="808"/>
      <point x="218" y="820"/>
      <point x="218" y="841" type="curve"/>
      <point x="285" y="841"/>
      <point x="218" y="841"/>
    </contour>
    <contour>
      <point x="402" y="841" type="curve"/>
      <point x="402" y="862"/>
      <point x="388" y="873"/>
      <point x="368" y="873" type="curve"/>
      <point x="348" y="873"/>
      <point x="335" y="861"/>
      <point x="335" y="841" type="curve"/>
      <point x="402" y="841"/>
      <point x="335" y="841"/>
      <point x="402" y="841" type="curve"/>
      <point x="402" y="819"/>
      <point x="388" y="808"/>
      <point x="368" y="808" type="curve"/>
      <point x="347" y="808"/>
      <point x="335" y="820"/>
      <point x="335" y="841" type="curve"/>
      <point x="402" y="841"/>
      <point x="335" y="841"/>
    </contour>
  </outline>
</glyph>
<glyph name="Thorn" format="1">
  <advance width="470"/>
  <unicode hex="00DE"/>
  <outline>
    <contour>
      <point x="131" y="224" type="curve"/>
      <point x="169" y="198"/>
      <point x="209" y="179"/>
      <point x="257" y="179" type="curve"/>
      <point x="369" y="181"/>
      <point x="427" y="266"/>
      <point x="427" y="394" type="curve"/>
      <point x="427" y="519"/>
      <point x="360" y="615"/>
      <point x="236" y="615" type="curve"/>
      <point x="204" y="615"/>
      <point x="173" y="615"/>
      <point x="142" y="615" type="curve"/>
      <point x="142" y="568"/>
      <point x="142" y="615"/>
      <point x="142" y="568" type="curve"/>
      <point x="171" y="568"/>
      <point x="199" y="568"/>
      <point x="228" y="568" type="curve"/>
      <point x="324" y="568"/>
      <point x="369" y="490"/>
      <point x="369" y="392" type="curve"/>
      <point x="369" y="300"/>
      <point x="335" y="225"/>
      <point x="253" y="225" type="curve"/>
      <point x="211" y="225"/>
      <point x="184" y="241"/>
      <point x="150" y="265" type="curve"/>
      <point x="132" y="226"/>
      <point x="150" y="264"/>
    </contour>
    <contour>
      <point x="168" y="0" type="curve"/>
      <point x="168" y="241"/>
      <point x="168" y="481"/>
      <point x="168" y="722" type="curve"/>
      <point x="110" y="722"/>
      <point x="168" y="722"/>
      <point x="110" y="722" type="curve"/>
      <point x="110" y="481"/>
      <point x="110" y="241"/>
      <point x="110" y="0" type="curve"/>
      <point x="168" y="0"/>
      <point x="110" y="0"/>
    </contour>
  </outline>
</glyph>
<glyph name="germandbls" format="1">
  <advance width="467"/>
  <unicode hex="00DF"/>
  <outline>
    <contour>
      <point x="151" y="0" type="curve"/>
      <point x="151" y="204"/>
      <point x="151" y="406"/>
      <point x="151" y="610" type="curve"/>
      <point x="93" y="610"/>
      <point x="151" y="610"/>
      <point x="93" y="610" type="curve"/>
      <point x="93" y="406"/>
      <point x="93" y="204"/>
      <point x="93" y="0" type="curve"/>
      <point x="151" y="0"/>
      <point x="93" y="0"/>
    </contour>
    <contour>
      <point x="151" y="610" type="curve"/>
      <point x="151" y="689"/>
      <point x="175" y="755"/>
      <point x="243" y="755" type="curve"/>
      <point x="312" y="755"/>
      <point x="345" y="696"/>
      <point x="345" y="617" type="curve"/>
      <point x="345" y="537"/>
      <point x="304" y="478"/>
      <point x="233" y="478" type="curve"/>
      <point x="233" y="439"/>
      <point x="233" y="478"/>
      <point x="233" y="439" type="curve"/>
      <point x="338" y="439"/>
      <point x="400" y="511"/>
      <point x="400" y="619" type="curve"/>
      <point x="400" y="727"/>
      <point x="348" y="802"/>
      <point x="246" y="802" type="curve"/>
      <point x="143" y="802"/>
      <point x="93" y="720"/>
      <point x="93" y="610" type="curve"/>
      <point x="151" y="610"/>
      <point x="93" y="610"/>
    </contour>
    <contour>
      <point x="308" y="84" type="curve"/>
      <point x="389" y="110"/>
      <point x="423" y="177"/>
      <point x="423" y="277" type="curve"/>
      <point x="423" y="395"/>
      <point x="358" y="478"/>
      <point x="233" y="478" type="curve"/>
      <point x="233" y="439"/>
      <point x="233" y="478"/>
      <point x="233" y="439" type="curve"/>
      <point x="313" y="439"/>
      <point x="368" y="371"/>
      <point x="368" y="277" type="curve"/>
      <point x="368" y="205"/>
      <point x="344" y="152"/>
      <point x="290" y="130" type="curve"/>
      <point x="308" y="84"/>
      <point x="290" y="130"/>
    </contour>
  </outline>
</glyph>
<glyph name="atilde" format="1">
  <advance width="450"/>
  <unicode hex="00E3"/>
  <outline>
    <contour>
      <point x="360" y="0" type="curve"/>
      <point x="360" y="128"/>
      <point x="360" y="256"/>
      <point x="360" y="384" type="curve"/>
      <point x="360" y="486"/>
      <point x="313" y="538"/>
      <point x="219" y="538" type="curve"/>
      <point x="149" y="538"/>
      <point x="102" y="502"/>
      <point x="69" y="463" type="curve"/>
      <point x="96" y="425"/>
      <point x="69" y="463"/>
      <point x="96" y="425" type="curve"/>
      <point x="118" y="452"/>
      <point x="157" y="490"/>
      <point x="211" y="490" type="curve"/>
      <point x="277" y="490"/>
      <point x="302" y="448"/>
      <point x="302" y="374" type="curve"/>
      <point x="302" y="249"/>
      <point x="302" y="125"/>
      <point x="302" y="0" type="curve"/>
      <point x="360" y="0"/>
      <point x="302" y="0"/>
    </contour>
    <contour>
      <point x="328" y="329" type="curve"/>
      <point x="273" y="319"/>
      <point x="244" y="315"/>
      <point x="188" y="304" type="curve"/>
      <point x="103" y="288"/>
      <point x="52" y="238"/>
      <point x="52" y="148" type="curve"/>
      <point x="52" y="57"/>
      <point x="86" y="-5"/>
      <point x="174" y="-5" type="curve"/>
      <point x="271" y="-5"/>
      <point x="308" y="74"/>
      <point x="348" y="152" type="curve"/>
      <point x="317" y="179"/>
      <point x="348" y="152"/>
      <point x="317" y="179" type="curve"/>
      <point x="292" y="110"/>
      <point x="257" y="42"/>
      <point x="188" y="42" type="curve"/>
      <point x="125" y="42"/>
      <point x="108" y="87"/>
      <point x="108" y="151" type="curve"/>
      <point x="108" y="211"/>
      <point x="138" y="251"/>
      <point x="188" y="262" type="curve"/>
      <point x="247" y="273"/>
      <point x="273" y="278"/>
      <point x="332" y="288" type="curve"/>
      <point x="328" y="329"/>
      <point x="332" y="288"/>
    </contour>
    <contour>
      <point x="330" y="797" type="curve"/>
      <point x="319" y="751"/>
      <point x="311" y="712"/>
      <point x="283" y="712" type="curve"/>
      <point x="254" y="712"/>
      <point x="242" y="729"/>
      <point x="225" y="752" type="curve"/>
      <point x="204" y="779"/>
      <point x="190" y="800"/>
      <point x="156" y="800" type="curve"/>
      <point x="96" y="800"/>
      <point x="80" y="740"/>
      <point x="68" y="677" type="curve"/>
      <point x="112" y="655"/>
      <point x="68" y="677"/>
      <point x="112" y="655" type="curve"/>
      <point x="123" y="704"/>
      <point x="131" y="742"/>
      <point x="166" y="742" type="curve"/>
      <point x="191" y="742"/>
      <point x="201" y="724"/>
      <point x="215" y="703" type="curve"/>
      <point x="238" y="673"/>
      <point x="255" y="653"/>
      <point x="291" y="653" type="curve"/>
      <point x="352" y="653"/>
      <point x="361" y="714"/>
      <point x="377" y="777" type="curve"/>
      <point x="330" y="797"/>
      <point x="377" y="777"/>
    </contour>
  </outline>
</glyph>
<glyph name="ae" format="1">
  <advance width="688"/>
  <unicode hex="00E6"/>
  <outline>
    <contour>
      <point x="359" y="281" type="curve"/>
      <point x="359" y="382"/>
      <point x="359" y="283"/>
      <point x="359" y="384" type="curve"/>
      <point x="359" y="486"/>
      <point x="312" y="537"/>
      <point x="218" y="537" type="curve"/>
      <point x="148" y="537"/>
      <point x="101" y="502"/>
      <point x="69" y="463" type="curve"/>
      <point x="93" y="423"/>
      <point x="69" y="463"/>
      <point x="93" y="423" type="curve"/>
      <point x="117" y="455"/>
      <point x="153" y="490"/>
      <point x="211" y="490" type="curve"/>
      <point x="276" y="490"/>
      <point x="302" y="446"/>
      <point x="302" y="370" type="curve"/>
      <point x="302" y="273"/>
      <point x="302" y="378"/>
      <point x="302" y="281" type="curve"/>
      <point x="359" y="281"/>
      <point x="301" y="281"/>
    </contour>
    <contour>
      <point x="332" y="305" type="curve"/>
      <point x="272" y="305"/>
      <point x="243" y="306"/>
      <point x="186" y="296" type="curve"/>
      <point x="100" y="279"/>
      <point x="51" y="236"/>
      <point x="51" y="148" type="curve"/>
      <point x="51" y="57"/>
      <point x="86" y="-5"/>
      <point x="174" y="-5" type="curve"/>
      <point x="270" y="-5"/>
      <point x="313" y="65"/>
      <point x="354" y="147" type="curve"/>
      <point x="325" y="173"/>
      <point x="349" y="147"/>
      <point x="320" y="173" type="curve"/>
      <point x="286" y="104"/>
      <point x="256" y="42"/>
      <point x="185" y="42" type="curve"/>
      <point x="124" y="42"/>
      <point x="107" y="86"/>
      <point x="107" y="149" type="curve"/>
      <point x="107" y="208"/>
      <point x="140" y="242"/>
      <point x="190" y="252" type="curve"/>
      <point x="247" y="262"/>
      <point x="277" y="260"/>
      <point x="334" y="260" type="curve"/>
      <point x="331" y="300"/>
      <point x="334" y="265"/>
    </contour>
    <contour>
      <point x="330" y="260" type="curve"/>
      <point x="423" y="260"/>
      <point x="517" y="260"/>
      <point x="610" y="260" type="curve"/>
      <point x="631" y="260"/>
      <point x="610" y="260"/>
      <point x="631" y="260" type="curve"/>
      <point x="631" y="275"/>
      <point x="631" y="260"/>
      <point x="631" y="275" type="curve"/>
      <point x="631" y="284"/>
      <point x="631" y="292"/>
      <point x="631" y="300" type="curve"/>
      <point x="631" y="437"/>
      <point x="592" y="538"/>
      <point x="471" y="538" type="curve"/>
      <point x="341" y="538"/>
      <point x="300" y="429"/>
      <point x="300" y="280" type="curve"/>
      <point x="300" y="117"/>
      <point x="343" y="-5"/>
      <point x="485" y="-5" type="curve"/>
      <point x="546" y="-5"/>
      <point x="584" y="25"/>
      <point x="624" y="75" type="curve"/>
      <point x="587" y="107"/>
      <point x="624" y="75"/>
      <point x="587" y="107" type="curve"/>
      <point x="559" y="70"/>
      <point x="528" y="44"/>
      <point x="485" y="44" type="curve"/>
      <point x="379" y="44"/>
      <point x="358" y="150"/>
      <point x="358" y="280" type="curve"/>
      <point x="358" y="395"/>
      <point x="374" y="490"/>
      <point x="468" y="490" type="curve"/>
      <point x="556" y="490"/>
      <point x="576" y="408"/>
      <point x="576" y="304" type="curve"/>
      <point x="576" y="294"/>
      <point x="576" y="285"/>
      <point x="576" y="275" type="curve"/>
      <point x="581" y="281"/>
      <point x="587" y="286"/>
      <point x="592" y="292" type="curve"/>
      <point x="597" y="297"/>
      <point x="604" y="299"/>
      <point x="610" y="305" type="curve"/>
      <point x="517" y="305"/>
      <point x="423" y="305"/>
      <point x="330" y="305" type="curve"/>
      <point x="330" y="258"/>
      <point x="330" y="307"/>
    </contour>
  </outline>
</glyph>
<glyph name="igrave" format="1">
  <advance width="247"/>
  <unicode hex="00EC"/>
  <outline>
    <contour>
      <point x="157" y="0" type="curve"/>
      <point x="157" y="178"/>
      <point x="157" y="355"/>
      <point x="157" y="533" type="curve"/>
      <point x="96" y="533"/>
      <point x="157" y="533"/>
      <point x="96" y="533" type="curve"/>
      <point x="96" y="355"/>
      <point x="96" y="178"/>
      <point x="96" y="0" type="curve"/>
      <point x="157" y="0"/>
      <point x="96" y="0"/>
    </contour>
    <contour>
      <point x="155" y="654" type="line"/>
      <point x="84" y="820" type="line"/>
      <point x="12" y="820" type="line"/>
      <point x="99" y="654" type="line"/>
    </contour>
  </outline>
</glyph>
